<svg width="154" height="445" viewBox="0 0 154 445" fill="none" xmlns="http://www.w3.org/2000/svg">
<g filter="url(#filter0_d_525_7241)">
<rect x="8" y="12" width="130" height="420" rx="20" fill="black" shape-rendering="crispEdges"/>
<g clip-path="url(#clip0_525_7241)">
<g clip-path="url(#clip1_525_7241)">
<g clip-path="url(#clip2_525_7241)">
<path d="M72.9961 68.5C83.7656 68.5 92.4961 59.7696 92.4961 49C92.4961 38.2304 83.7656 29.5 72.9961 29.5C62.2265 29.5 53.4961 38.2304 53.4961 49C53.4961 59.7696 62.2265 68.5 72.9961 68.5Z" stroke="#606060" stroke-dasharray="6 6"/>
<path d="M66.197 44.7227V54.4184C66.197 55.1757 66.7074 55.7697 67.5822 55.7697H68.7241C68.6849 55.7697 68.5969 56.0266 68.5969 56.1528V58.8989C68.5969 59.6166 69.3693 60.1985 70.1969 60.1985C71.0248 60.1985 71.7968 59.6166 71.7968 58.8989V56.1528C71.7968 56.0266 71.6424 55.7697 71.6044 55.7697H74.3899C74.3519 55.7697 74.1967 56.0266 74.1967 56.1528V58.8989C74.1967 59.6166 74.9675 60.1985 75.795 60.1985C76.6246 60.1985 77.3965 59.6166 77.3965 58.8989V56.1528C77.3965 56.0266 77.309 55.7697 77.2698 55.7697H78.4133C79.2881 55.7697 79.7964 55.1757 79.7964 54.4184V44.7227H66.1055H66.197Z" fill="#57C927"/>
<path d="M63.3968 44.8809C62.5684 44.8809 61.7969 45.4631 61.7969 46.1805V51.745C61.7969 52.4627 62.5684 53.0446 63.3968 53.0446C64.2247 53.0446 64.9967 52.4627 64.9967 51.745V46.1808C64.9967 45.4631 64.2247 44.8809 63.3968 44.8809Z" fill="#57C927"/>
<path d="M76.4419 39.6722L76.7211 39.3073L77.0007 38.9467L77.6234 38.136C77.7014 38.0355 77.669 37.9015 77.5542 37.8356C77.4406 37.7682 77.2834 37.7964 77.2091 37.8962L76.2583 39.1302L75.9723 39.5019C75.0687 39.1976 74.062 39.0279 72.9984 39.0279C71.9373 39.0279 70.9285 39.1979 70.025 39.5019L69.7406 39.1306L69.4594 38.766L68.7914 37.8969C68.7142 37.7967 68.559 37.7704 68.4438 37.8363C68.3298 37.9026 68.2983 38.0366 68.3742 38.1367L68.9966 38.9478L69.2762 39.3088L69.557 39.6726C67.4355 40.5296 66 42.228 66 44.0098H79.9973C79.9973 42.228 78.5622 40.5296 76.4419 39.6722ZM69.999 42.2797C69.5834 42.2797 69.2486 41.9885 69.2486 41.629C69.2486 41.2694 69.5834 40.9797 69.999 40.9797C70.4134 40.9797 70.7489 41.2694 70.7489 41.629C70.7489 41.9885 70.4138 42.2797 69.999 42.2797ZM75.9987 42.2797C75.5835 42.2797 75.2479 41.9885 75.2479 41.629C75.2479 41.2694 75.5835 40.9797 75.9987 40.9797C76.4131 40.9797 76.7487 41.2694 76.7487 41.629C76.7487 41.9885 76.4131 42.2797 75.9987 42.2797Z" fill="#57C927"/>
<path d="M63.468 47.7853C62.8444 47.7853 62.1969 47.2611 61.7969 46.4297V51.7447C61.7969 52.4624 62.5684 53.0444 63.3968 53.0444C64.2248 53.0444 64.9968 52.4624 64.9968 51.7447V46.7069C64.5968 47.3747 64.0184 47.7853 63.468 47.7853Z" fill="#1CB71C"/>
<path d="M82.596 44.8809C81.7676 44.8809 80.9961 45.4631 80.9961 46.1805V51.745C80.9961 52.4627 81.7676 53.0446 82.596 53.0446C83.424 53.0446 84.1959 52.4627 84.1959 51.745V46.1808C84.1959 45.4631 83.424 44.8809 82.596 44.8809Z" fill="#57C927"/>
<path d="M82.6634 47.7872C82.0398 47.7872 81.3922 47.263 80.9922 46.4316V51.7467C80.9922 52.4644 81.7638 53.0463 82.5922 53.0463C83.4201 53.0463 84.1921 52.4644 84.1921 51.7467V46.7089C83.7921 47.3767 83.2137 47.7872 82.6634 47.7872Z" fill="#1CB71C"/>
<path d="M72.995 45.7854C69.8312 45.7854 66.9953 45.4594 66.1953 44.9964V54.4164C66.1953 55.1736 66.7057 55.7677 67.5805 55.7677H68.7224C68.6832 55.7677 68.5952 56.0246 68.5952 56.1508V58.8968C68.5952 59.6145 69.3676 60.1965 70.1951 60.1965C71.0231 60.1965 71.7951 59.6145 71.7951 58.8968V56.1508C71.7951 56.0246 71.6407 55.7677 71.6027 55.7677H74.3882C74.3502 55.7677 74.195 56.0246 74.195 56.1508V58.8968C74.195 59.6145 74.9657 60.1965 75.7933 60.1965C76.6229 60.1965 77.3948 59.6145 77.3948 58.8968V56.1508C77.3948 56.0246 77.3072 55.7677 77.268 55.7677H78.4116C79.2863 55.7677 79.7947 55.1736 79.7947 54.4164V44.9961C78.9947 45.459 76.1593 45.7854 72.995 45.7854Z" fill="#1CB71C"/>
<path d="M76.7448 41.6291C76.7448 41.9887 76.4092 42.2798 75.9948 42.2798C75.5796 42.2798 75.2441 41.9887 75.2441 41.6291C75.2441 41.4342 75.3445 41.2621 75.5009 41.143C74.7101 41.0254 73.8689 40.9609 72.9946 40.9609C72.1202 40.9609 71.2794 41.0254 70.4883 41.143C70.6451 41.2617 70.7455 41.4342 70.7455 41.6291C70.7455 41.9887 70.4099 42.2798 69.9955 42.2798C69.5799 42.2798 69.2451 41.9887 69.2451 41.6291C69.2451 41.5372 69.2679 41.4499 69.3075 41.3704C68.1084 41.6512 67.078 42.061 66.3005 42.5645C66.1045 43.0232 65.9961 43.6539 65.9961 44.0103H79.9935C79.9935 43.6539 79.8851 43.0235 79.6895 42.5653C78.9123 42.061 77.8815 41.6505 76.6832 41.3697C76.7224 41.4491 76.7448 41.5375 76.7448 41.6291Z" fill="#1CB71C"/>
<path d="M72.9989 49.5056C70.3042 49.5056 67.7991 49.032 66.1992 48.2559V54.418C66.1992 55.1752 66.7095 55.7693 67.5843 55.7693H68.7263C68.6871 55.7693 68.5991 56.0262 68.5991 56.1524V58.8984C68.5991 59.6161 69.3714 60.1981 70.199 60.1981C71.027 60.1981 71.7989 59.6161 71.7989 58.8984V56.1524C71.7989 56.0262 71.6445 55.7693 71.6065 55.7693H74.392C74.354 55.7693 74.1988 56.0262 74.1988 56.1524V58.8984C74.1988 59.6161 74.9696 60.1981 75.7971 60.1981C76.6267 60.1981 77.3987 59.6161 77.3987 58.8984V56.1524C77.3987 56.0262 77.3111 55.7693 77.2719 55.7693H78.4154C79.2902 55.7693 79.7986 55.1752 79.7986 54.418V48.2559C78.1986 49.0324 75.6935 49.5056 72.9989 49.5056Z" fill="#049E42"/>
</g>
</g>
</g>
<path d="M49.3201 90.52H44.4561L43.5601 93H42.0241L46.0561 81.912H47.7361L51.7521 93H50.2161L49.3201 90.52ZM48.9041 89.336L46.8881 83.704L44.8721 89.336H48.9041ZM57.7813 84.072C58.848 84.072 59.712 84.3973 60.3733 85.048C61.0347 85.688 61.3653 86.616 61.3653 87.832V93H59.9253V88.04C59.9253 87.1653 59.7067 86.4987 59.2693 86.04C58.832 85.5707 58.2347 85.336 57.4773 85.336C56.7093 85.336 56.096 85.576 55.6373 86.056C55.1893 86.536 54.9653 87.2347 54.9653 88.152V93H53.5093V84.232H54.9653V85.48C55.2533 85.032 55.6427 84.6853 56.1333 84.44C56.6347 84.1947 57.184 84.072 57.7813 84.072ZM63.1997 88.584C63.1997 87.688 63.3811 86.904 63.7437 86.232C64.1064 85.5493 64.6024 85.0213 65.2317 84.648C65.8717 84.2747 66.5864 84.088 67.3757 84.088C68.0584 84.088 68.6931 84.248 69.2797 84.568C69.8664 84.8773 70.3144 85.288 70.6237 85.8V81.16H72.0957V93H70.6237V91.352C70.3357 91.8747 69.9091 92.3067 69.3437 92.648C68.7784 92.9787 68.1171 93.144 67.3597 93.144C66.5811 93.144 65.8717 92.952 65.2317 92.568C64.6024 92.184 64.1064 91.6453 63.7437 90.952C63.3811 90.2587 63.1997 89.4693 63.1997 88.584ZM70.6237 88.6C70.6237 87.9387 70.4904 87.3627 70.2237 86.872C69.9571 86.3813 69.5944 86.008 69.1357 85.752C68.6877 85.4853 68.1917 85.352 67.6477 85.352C67.1037 85.352 66.6077 85.48 66.1597 85.736C65.7117 85.992 65.3544 86.3653 65.0877 86.856C64.8211 87.3467 64.6877 87.9227 64.6877 88.584C64.6877 89.256 64.8211 89.8427 65.0877 90.344C65.3544 90.8347 65.7117 91.2133 66.1597 91.48C66.6077 91.736 67.1037 91.864 67.6477 91.864C68.1917 91.864 68.6877 91.736 69.1357 91.48C69.5944 91.2133 69.9571 90.8347 70.2237 90.344C70.4904 89.8427 70.6237 89.2613 70.6237 88.6ZM76.0122 85.656C76.2682 85.1547 76.6309 84.7653 77.1002 84.488C77.5802 84.2107 78.1616 84.072 78.8442 84.072V85.576H78.4602C76.8282 85.576 76.0122 86.4613 76.0122 88.232V93H74.5562V84.232H76.0122V85.656ZM84.349 93.144C83.5276 93.144 82.781 92.9573 82.109 92.584C81.4476 92.2107 80.925 91.6827 80.541 91C80.1676 90.3067 79.981 89.5067 79.981 88.6C79.981 87.704 80.173 86.9147 80.557 86.232C80.9516 85.5387 81.485 85.0107 82.157 84.648C82.829 84.2747 83.581 84.088 84.413 84.088C85.245 84.088 85.997 84.2747 86.669 84.648C87.341 85.0107 87.869 85.5333 88.253 86.216C88.6476 86.8987 88.845 87.6933 88.845 88.6C88.845 89.5067 88.6423 90.3067 88.237 91C87.8423 91.6827 87.3036 92.2107 86.621 92.584C85.9383 92.9573 85.181 93.144 84.349 93.144ZM84.349 91.864C84.8716 91.864 85.3623 91.7413 85.821 91.496C86.2796 91.2507 86.6476 90.8827 86.925 90.392C87.213 89.9013 87.357 89.304 87.357 88.6C87.357 87.896 87.2183 87.2987 86.941 86.808C86.6636 86.3173 86.301 85.9547 85.853 85.72C85.405 85.4747 84.9196 85.352 84.397 85.352C83.8636 85.352 83.373 85.4747 82.925 85.72C82.4876 85.9547 82.1356 86.3173 81.869 86.808C81.6023 87.2987 81.469 87.896 81.469 88.6C81.469 89.3147 81.597 89.9173 81.853 90.408C82.1196 90.8987 82.4716 91.2667 82.909 91.512C83.3463 91.7467 83.8263 91.864 84.349 91.864ZM91.5113 82.808C91.234 82.808 90.9993 82.712 90.8073 82.52C90.6153 82.328 90.5193 82.0933 90.5193 81.816C90.5193 81.5387 90.6153 81.304 90.8073 81.112C90.9993 80.92 91.234 80.824 91.5113 80.824C91.778 80.824 92.002 80.92 92.1833 81.112C92.3753 81.304 92.4713 81.5387 92.4713 81.816C92.4713 82.0933 92.3753 82.328 92.1833 82.52C92.002 82.712 91.778 82.808 91.5113 82.808ZM92.2153 84.232V93H90.7593V84.232H92.2153ZM94.1528 88.584C94.1528 87.688 94.3342 86.904 94.6968 86.232C95.0595 85.5493 95.5555 85.0213 96.1848 84.648C96.8248 84.2747 97.5395 84.088 98.3288 84.088C99.0115 84.088 99.6462 84.248 100.233 84.568C100.82 84.8773 101.268 85.288 101.577 85.8V81.16H103.049V93H101.577V91.352C101.289 91.8747 100.862 92.3067 100.297 92.648C99.7315 92.9787 99.0702 93.144 98.3128 93.144C97.5342 93.144 96.8248 92.952 96.1848 92.568C95.5555 92.184 95.0595 91.6453 94.6968 90.952C94.3342 90.2587 94.1528 89.4693 94.1528 88.584ZM101.577 88.6C101.577 87.9387 101.444 87.3627 101.177 86.872C100.91 86.3813 100.548 86.008 100.089 85.752C99.6408 85.4853 99.1448 85.352 98.6008 85.352C98.0568 85.352 97.5608 85.48 97.1128 85.736C96.6648 85.992 96.3075 86.3653 96.0408 86.856C95.7742 87.3467 95.6408 87.9227 95.6408 88.584C95.6408 89.256 95.7742 89.8427 96.0408 90.344C96.3075 90.8347 96.6648 91.2133 97.1128 91.48C97.5608 91.736 98.0568 91.864 98.6008 91.864C99.1448 91.864 99.6408 91.736 100.089 91.48C100.548 91.2133 100.91 90.8347 101.177 90.344C101.444 89.8427 101.577 89.2613 101.577 88.6Z" fill="#F9F9F9"/>
<g clip-path="url(#clip3_525_7241)">
<g clip-path="url(#clip4_525_7241)">
<g clip-path="url(#clip5_525_7241)">
<path d="M73.5978 150.918H73.6905C74.8596 150.678 75.9078 150.036 76.6534 149.104C77.399 148.172 77.7949 147.009 77.7727 145.815C77.7724 145.746 77.7563 145.677 77.7258 145.614C77.6953 145.552 77.6511 145.497 77.5964 145.454C77.5447 145.409 77.4837 145.377 77.4178 145.359C77.352 145.342 77.283 145.339 77.216 145.352C76.0453 145.592 74.9959 146.235 74.2502 147.169C73.5044 148.103 73.1094 149.269 73.1339 150.464C73.1339 150.587 73.1828 150.705 73.2697 150.792C73.3567 150.879 73.4747 150.927 73.5978 150.927V150.918Z" fill="white"/>
<path d="M82.1046 160.687C81.3689 160.386 80.74 159.872 80.2987 159.21C79.8573 158.549 79.6236 157.771 79.6274 156.976C79.6276 156.254 79.8169 155.544 80.1766 154.917C80.5364 154.29 81.0539 153.769 81.6778 153.404C81.7379 153.37 81.7895 153.322 81.8287 153.265C81.868 153.208 81.8939 153.142 81.9046 153.074C81.9153 153.005 81.9104 152.935 81.8904 152.869C81.8705 152.802 81.8358 152.741 81.7891 152.69C81.2746 152.138 80.6532 151.696 79.9626 151.391C79.272 151.086 78.5267 150.925 77.7719 150.918C77.0235 150.934 76.2857 151.098 75.601 151.4C74.9694 151.681 74.288 151.832 73.597 151.846C72.906 151.832 72.2246 151.681 71.5931 151.4C70.9083 151.098 70.1705 150.934 69.4221 150.918C68.8562 150.918 63.8555 151.103 63.8555 157.412C63.8555 162.571 67.381 167.618 69.4221 167.618C70.3206 167.628 71.2105 167.441 72.0291 167.07C72.5185 166.833 73.0532 166.703 73.597 166.69C74.1408 166.703 74.6755 166.833 75.1649 167.07C75.9835 167.441 76.8734 167.628 77.7719 167.618C79.4326 167.618 81.3902 164.343 82.4107 161.272C82.4294 161.213 82.4362 161.152 82.4309 161.091C82.4256 161.029 82.4082 160.97 82.3797 160.916C82.3512 160.861 82.3122 160.813 82.265 160.774C82.2178 160.735 82.1632 160.705 82.1046 160.687Z" fill="white"/>
<path d="M73 176.5C83.7696 176.5 92.5 167.77 92.5 157C92.5 146.23 83.7696 137.5 73 137.5C62.2304 137.5 53.5 146.23 53.5 157C53.5 167.77 62.2304 176.5 73 176.5Z" stroke="#606060" stroke-dasharray="6 6"/>
</g>
</g>
</g>
<path d="M61.984 190.808C61.7067 190.808 61.472 190.712 61.28 190.52C61.088 190.328 60.992 190.093 60.992 189.816C60.992 189.539 61.088 189.304 61.28 189.112C61.472 188.92 61.7067 188.824 61.984 188.824C62.2507 188.824 62.4747 188.92 62.656 189.112C62.848 189.304 62.944 189.539 62.944 189.816C62.944 190.093 62.848 190.328 62.656 190.52C62.4747 190.712 62.2507 190.808 61.984 190.808ZM62.688 192.232V201H61.232V192.232H62.688ZM70.2255 201.112C69.1908 201.112 68.2468 200.872 67.3935 200.392C66.5402 199.901 65.8628 199.224 65.3615 198.36C64.8708 197.485 64.6255 196.504 64.6255 195.416C64.6255 194.328 64.8708 193.352 65.3615 192.488C65.8628 191.613 66.5402 190.936 67.3935 190.456C68.2468 189.965 69.1908 189.72 70.2255 189.72C71.2708 189.72 72.2202 189.965 73.0735 190.456C73.9268 190.936 74.5988 191.608 75.0895 192.472C75.5802 193.336 75.8255 194.317 75.8255 195.416C75.8255 196.515 75.5802 197.496 75.0895 198.36C74.5988 199.224 73.9268 199.901 73.0735 200.392C72.2202 200.872 71.2708 201.112 70.2255 201.112ZM70.2255 199.848C71.0042 199.848 71.7028 199.667 72.3215 199.304C72.9508 198.941 73.4415 198.424 73.7935 197.752C74.1562 197.08 74.3375 196.301 74.3375 195.416C74.3375 194.52 74.1562 193.741 73.7935 193.08C73.4415 192.408 72.9562 191.891 72.3375 191.528C71.7188 191.165 71.0148 190.984 70.2255 190.984C69.4362 190.984 68.7322 191.165 68.1135 191.528C67.4948 191.891 67.0042 192.408 66.6415 193.08C66.2895 193.741 66.1135 194.52 66.1135 195.416C66.1135 196.301 66.2895 197.08 66.6415 197.752C67.0042 198.424 67.4948 198.941 68.1135 199.304C68.7428 199.667 69.4468 199.848 70.2255 199.848ZM81.2836 201.112C80.5476 201.112 79.8863 200.984 79.2996 200.728C78.7236 200.461 78.2703 200.099 77.9396 199.64C77.609 199.171 77.4383 198.632 77.4276 198.024H78.9796C79.033 198.547 79.2463 198.989 79.6196 199.352C80.0036 199.704 80.5583 199.88 81.2836 199.88C81.977 199.88 82.521 199.709 82.9156 199.368C83.321 199.016 83.5236 198.568 83.5236 198.024C83.5236 197.597 83.4063 197.251 83.1716 196.984C82.937 196.717 82.6436 196.515 82.2916 196.376C81.9396 196.237 81.465 196.088 80.8676 195.928C80.1316 195.736 79.5396 195.544 79.0916 195.352C78.6543 195.16 78.2756 194.861 77.9556 194.456C77.6463 194.04 77.4916 193.485 77.4916 192.792C77.4916 192.184 77.6463 191.645 77.9556 191.176C78.265 190.707 78.697 190.344 79.2516 190.088C79.817 189.832 80.4623 189.704 81.1876 189.704C82.233 189.704 83.0863 189.965 83.7476 190.488C84.4196 191.011 84.7983 191.704 84.8836 192.568H83.2836C83.2303 192.141 83.0063 191.768 82.6116 191.448C82.217 191.117 81.6943 190.952 81.0436 190.952C80.4356 190.952 79.9396 191.112 79.5556 191.432C79.1716 191.741 78.9796 192.179 78.9796 192.744C78.9796 193.149 79.0916 193.48 79.3156 193.736C79.5503 193.992 79.833 194.189 80.1636 194.328C80.505 194.456 80.9796 194.605 81.5876 194.776C82.3236 194.979 82.9156 195.181 83.3636 195.384C83.8116 195.576 84.1956 195.88 84.5156 196.296C84.8356 196.701 84.9956 197.256 84.9956 197.96C84.9956 198.504 84.8516 199.016 84.5636 199.496C84.2756 199.976 83.849 200.365 83.2836 200.664C82.7183 200.963 82.0516 201.112 81.2836 201.112Z" fill="#F9F9F9"/>
<g clip-path="url(#clip6_525_7241)">
<g clip-path="url(#clip7_525_7241)">
<g clip-path="url(#clip8_525_7241)">
<path d="M72.9883 284.5C83.7578 284.5 92.4883 275.77 92.4883 265C92.4883 254.23 83.7578 245.5 72.9883 245.5C62.2187 245.5 53.4883 254.23 53.4883 265C53.4883 275.77 62.2187 284.5 72.9883 284.5Z" stroke="#606060" stroke-dasharray="6 6"/>
<mask id="mask0_525_7241" style="mask-type:luminance" maskUnits="userSpaceOnUse" x="60" y="252" width="27" height="27">
<path d="M86.1323 252.43H60.418V278.144H86.1323V252.43Z" fill="white"/>
</mask>
<g mask="url(#mask0_525_7241)">
<path d="M75.3661 265.287C75.3661 266.441 74.4317 267.376 73.2768 267.376C72.1219 267.376 71.1875 266.441 71.1875 265.287C71.1875 264.132 72.1219 263.197 73.2768 263.197C74.4317 263.197 75.3661 264.132 75.3661 265.287Z" fill="#8BB7F0"/>
<path d="M73.2734 267.537C72.033 267.537 71.0234 266.528 71.0234 265.287C71.0234 264.046 72.033 263.037 73.2734 263.037C74.5138 263.037 75.5234 264.046 75.5234 265.287C75.5234 266.528 74.5138 267.537 73.2734 267.537ZM73.2734 263.359C72.2098 263.359 71.3449 264.224 71.3449 265.287C71.3449 266.351 72.2098 267.216 73.2734 267.216C74.337 267.216 75.202 266.351 75.202 265.287C75.202 264.224 74.337 263.359 73.2734 263.359Z" fill="#4E7AB5"/>
<path d="M68.2841 276.698C67.7341 276.698 67.2333 276.572 66.7952 276.324C66.0624 275.909 65.5558 275.192 65.289 274.196C64.9788 273.037 65.0158 271.497 65.3957 269.736C62.3318 268.682 60.5781 267.064 60.5781 265.287C60.5781 263.508 62.3315 261.892 65.3954 260.838C65.0155 259.076 64.9782 257.536 65.2884 256.377C65.5551 255.381 66.0617 254.664 66.7943 254.249C67.232 254.001 67.7331 253.875 68.2831 253.875C69.6935 253.875 71.4624 254.752 73.2752 256.349C75.0881 254.754 76.8563 253.877 78.2651 253.877C78.815 253.877 79.3158 254.003 79.7539 254.251C80.4858 254.666 80.9927 255.381 81.2595 256.376C81.57 257.535 81.5327 259.076 81.1525 260.838C84.217 261.891 85.971 263.508 85.971 265.287C85.971 267.065 84.217 268.682 81.1525 269.736C81.5324 271.498 81.5697 273.038 81.2592 274.197C80.9924 275.192 80.4861 275.907 79.7549 276.322C79.3165 276.57 78.8154 276.696 78.2657 276.696C76.8559 276.696 75.0871 275.819 73.2749 274.225C71.462 275.821 69.6935 276.698 68.2841 276.698ZM66.6329 270.11C66.3144 271.626 66.2787 272.922 66.5313 273.864C66.7055 274.515 67.0074 274.967 67.4294 275.206C67.6714 275.343 67.9591 275.413 68.2841 275.413C69.375 275.413 70.8111 274.68 72.3408 273.344C71.5742 272.572 70.8259 271.698 70.114 270.743C68.8826 270.61 67.7126 270.397 66.6329 270.11ZM74.2086 273.343C75.738 274.677 77.1745 275.41 78.2654 275.411C78.5904 275.411 78.878 275.341 79.1207 275.204C79.5415 274.965 79.8426 274.515 80.0165 273.864C80.2692 272.921 80.2338 271.626 79.9153 270.11C78.8346 270.397 77.6643 270.61 76.4333 270.744C75.7216 271.698 74.9743 272.572 74.2086 273.343ZM71.8494 270.877C72.3161 271.448 72.7937 271.981 73.2746 272.465C73.7541 271.981 74.2321 271.449 74.6985 270.877C74.2193 270.9 73.7419 270.912 73.2746 270.912C72.8069 270.912 72.3293 270.9 71.8494 270.877ZM70.8153 269.523C71.6173 269.591 72.4443 269.626 73.2746 269.626C74.1055 269.626 74.9315 269.591 75.7322 269.523C76.2099 268.853 76.6653 268.151 77.0867 267.435C77.4943 266.743 77.8778 266.02 78.2268 265.286C77.8787 264.555 77.4956 263.832 77.087 263.138C76.6666 262.424 76.2111 261.722 75.7322 261.05C74.9322 260.982 74.1061 260.947 73.2746 260.947C72.4427 260.947 71.6163 260.982 70.8166 261.051C70.3377 261.721 69.8816 262.423 69.4605 263.138C69.0523 263.832 68.6691 264.555 68.3207 265.287C68.6685 266.018 69.0516 266.741 69.4602 267.436C69.8793 268.148 70.3348 268.849 70.8153 269.523ZM78.8967 266.823C78.6698 267.255 78.4345 267.68 78.1944 268.087C77.9523 268.499 77.6949 268.913 77.4274 269.32C78.1905 269.203 78.9205 269.052 79.6038 268.87C79.4142 268.212 79.1766 267.525 78.8967 266.823ZM66.9437 268.87C67.6274 269.051 68.357 269.202 69.1191 269.32C68.8501 268.91 68.5926 268.496 68.3522 268.087C68.1128 267.68 67.8771 267.256 67.6505 266.824C67.3719 267.522 67.1346 268.209 66.9437 268.87ZM79.644 265.287C80.1351 266.377 80.5353 267.454 80.8359 268.494C83.2151 267.657 84.6853 266.435 84.6853 265.287C84.6853 264.138 83.2151 262.917 80.8359 262.08C80.536 263.119 80.1355 264.197 79.644 265.287ZM65.712 262.08C63.3338 262.917 61.8638 264.138 61.8638 265.287C61.8638 266.435 63.3338 267.657 65.7126 268.493C66.0129 267.453 66.413 266.376 66.9035 265.287C66.4127 264.198 66.0125 263.121 65.712 262.08ZM66.9434 261.703C67.1343 262.364 67.3715 263.05 67.6505 263.75C67.8768 263.319 68.1121 262.895 68.3525 262.486C68.5943 262.075 68.8517 261.662 69.1201 261.253C68.357 261.371 67.6274 261.522 66.9434 261.703ZM77.4281 261.253C77.6971 261.663 77.9546 262.077 78.195 262.486C78.4348 262.894 78.6704 263.318 78.8973 263.75C79.1766 263.051 79.4139 262.364 79.6048 261.703C78.9201 261.522 78.1905 261.37 77.4281 261.253ZM68.2831 255.161C67.9581 255.161 67.6708 255.23 67.4291 255.368C67.0074 255.607 66.7052 256.058 66.5307 256.71C66.2784 257.653 66.3137 258.948 66.6326 260.464C67.7126 260.177 68.8832 259.964 70.1149 259.83C70.8275 258.875 71.5758 258.002 72.3415 257.23C70.8115 255.894 69.3744 255.161 68.2831 255.161ZM76.4336 259.83C77.6646 259.963 78.835 260.176 79.9156 260.463C80.2345 258.947 80.2701 257.652 80.0172 256.709C79.843 256.059 79.5415 255.608 79.1204 255.37C78.878 255.232 78.5904 255.163 78.2651 255.163C77.1745 255.163 75.7386 255.896 74.209 257.23C74.974 258.002 75.7216 258.875 76.4336 259.83ZM73.2746 259.662C73.7419 259.662 74.2193 259.673 74.6988 259.696C74.2328 259.126 73.7551 258.594 73.2752 258.109C72.794 258.594 72.3167 259.127 71.8506 259.696C72.3299 259.673 72.8072 259.662 73.2746 259.662Z" fill="#8BB7F0"/>
<path d="M68.2837 254.036C69.7282 254.036 71.4967 254.972 73.2761 256.565C75.0552 254.973 76.8228 254.039 78.266 254.039C78.7877 254.039 79.2621 254.157 79.6758 254.392C80.3688 254.785 80.8496 255.466 81.1048 256.419C81.451 257.678 81.3784 259.228 80.9653 260.944C83.9295 261.935 85.8109 263.497 85.8109 265.287C85.8109 267.077 83.9295 268.64 80.965 269.63C81.396 271.486 81.4684 273.078 81.1045 274.156C80.8493 275.108 80.3688 275.79 79.6764 276.183C79.2621 276.417 78.8857 276.537 78.3643 276.537C78.364 276.537 78.2306 276.537 78.2303 276.537C76.7864 276.537 75.0539 275.602 73.2752 274.01C71.496 275.603 69.7282 276.538 68.2843 276.538C67.7627 276.538 67.2882 276.419 66.8745 276.185C66.1809 275.791 65.6997 275.108 65.4448 274.155C65.0623 272.961 65.1395 271.39 65.5843 269.63C62.6204 268.639 60.7394 267.077 60.7394 265.287C60.7394 263.497 62.6204 261.935 65.584 260.944C65.3632 259.961 65.2221 259.048 65.2173 258.216C65.2134 257.558 65.3031 256.946 65.4445 256.419C65.6997 255.466 66.1806 254.783 66.8742 254.39C67.2876 254.155 67.762 254.036 68.2837 254.036ZM66.5117 260.663C67.6293 260.356 68.8703 260.124 70.2026 259.983C70.9683 258.951 71.7696 258.023 72.5767 257.224C71.0107 255.827 69.4858 255 68.2837 255C67.9304 255 67.6167 255.077 67.3503 255.228C66.8897 255.489 66.5621 255.974 66.376 256.668C66.1002 257.698 66.1629 259.089 66.5117 260.663ZM80.0377 260.663C80.3864 259.088 80.4491 257.697 80.1733 256.668C79.9875 255.974 79.66 255.491 79.2004 255.23C78.9336 255.079 78.6189 255.002 78.266 255.002C77.0648 255.002 75.5409 255.828 73.9752 257.224C74.782 258.023 75.5824 258.951 76.3474 259.982C77.679 260.124 78.9201 260.356 80.0377 260.663ZM71.4999 259.876C72.0791 259.842 72.6599 259.812 73.2639 259.812C73.8679 259.812 74.4709 259.842 75.0501 259.876C74.4689 259.144 73.8724 258.475 73.2755 257.882C72.6786 258.475 72.0817 259.144 71.4999 259.876ZM73.2752 269.787C74.1626 269.787 75.0122 269.748 75.8202 269.677C76.3085 268.997 76.7807 268.274 77.2255 267.518C77.6604 266.779 78.0538 266.031 78.4052 265.287C78.0538 264.544 77.6604 263.796 77.2258 263.057C76.7807 262.3 76.3088 261.578 75.8202 260.898C75.0125 260.826 74.1629 260.787 73.2752 260.787C72.3874 260.787 71.5375 260.826 70.7294 260.897C70.2405 261.578 69.768 262.3 69.3229 263.057C68.8883 263.796 68.4949 264.544 68.1435 265.288C68.4949 266.031 68.888 266.779 69.3225 267.517C69.7677 268.274 70.2399 268.996 70.7285 269.677C71.5369 269.748 72.387 269.787 73.2752 269.787ZM78.9149 264.134C79.2765 263.263 79.5758 262.408 79.804 261.591C78.9834 261.365 78.077 261.179 77.095 261.042C77.4254 261.533 77.7472 262.042 78.0567 262.568C78.3634 263.089 78.6485 263.612 78.9149 264.134ZM67.6338 264.135C67.8999 263.612 68.1853 263.089 68.4913 262.568C68.8012 262.042 69.1233 261.533 69.454 261.042C68.472 261.179 67.5656 261.365 66.745 261.591C66.9732 262.409 67.2725 263.263 67.6338 264.135ZM80.7284 268.701C83.3243 267.822 84.8466 266.53 84.8466 265.287C84.8466 264.045 83.3243 262.752 80.7284 261.873C80.4221 262.967 79.9991 264.118 79.4684 265.287C79.9991 266.457 80.4221 267.607 80.7284 268.701ZM65.8212 268.701C66.1272 267.607 66.5499 266.457 67.0806 265.288C66.5499 264.118 66.1269 262.968 65.8209 261.874C63.2254 262.753 61.7037 264.045 61.7037 265.287C61.7037 266.53 63.2257 267.822 65.8212 268.701ZM77.095 269.532C78.077 269.396 78.9834 269.21 79.804 268.984C79.5755 268.166 79.2762 267.311 78.9149 266.44C78.6485 266.962 78.363 267.485 78.0567 268.006C77.7472 268.533 77.4254 269.041 77.095 269.532ZM69.453 269.532C69.1226 269.041 68.8009 268.533 68.491 268.006C68.185 267.486 67.8999 266.963 67.6338 266.441C67.2725 267.312 66.9735 268.166 66.7453 268.984C67.5656 269.209 68.4717 269.395 69.453 269.532ZM68.2847 275.574C69.4865 275.574 71.0107 274.748 72.5764 273.352C71.7686 272.551 70.9676 271.624 70.2017 270.591C68.87 270.45 67.6296 270.218 66.5123 269.911C66.1639 271.486 66.1012 272.877 66.3767 273.906C66.5624 274.6 66.8903 275.085 67.3506 275.346C67.6167 275.497 67.9314 275.574 68.2847 275.574ZM78.266 275.572C78.6192 275.572 78.9333 275.495 79.2004 275.344C79.66 275.083 79.9869 274.6 80.1724 273.906C80.4482 272.877 80.3855 271.486 80.037 269.912C78.9194 270.219 77.6787 270.451 76.3467 270.592C75.5817 271.624 74.781 272.551 73.9743 273.351C75.5399 274.746 77.0642 275.572 78.266 275.572ZM73.2752 272.693C73.872 272.1 74.4686 271.431 75.0501 270.698C74.4712 270.733 73.9061 270.805 73.3018 270.805C72.6972 270.805 72.0782 270.733 71.4989 270.698C72.0807 271.431 72.6779 272.101 73.2752 272.693ZM68.1696 253.739C67.5913 253.739 67.178 253.848 66.7158 254.11C65.9447 254.547 65.4124 255.296 65.134 256.336C64.8254 257.489 64.8521 259.004 65.2099 260.733C62.1598 261.812 60.418 263.463 60.418 265.287C60.418 267.112 62.1601 268.762 65.2102 269.841C64.8524 271.57 64.8258 273.086 65.1347 274.239C65.4127 275.278 65.9447 276.027 66.7164 276.465C67.1793 276.727 67.7353 276.839 68.3133 276.839C69.7555 276.839 71.4482 276.024 73.2755 274.439C75.1025 276.022 76.8237 276.857 78.2657 276.858C78.8439 276.858 79.3717 276.725 79.8345 276.463C80.605 276.026 81.1367 275.278 81.4147 274.239C81.7236 273.086 81.6969 271.57 81.3392 269.842C84.3898 268.762 86.1323 267.112 86.1323 265.287C86.1323 263.463 84.3902 261.812 81.3395 260.733C81.6975 259.004 81.7239 257.488 81.415 256.335C81.1367 255.297 80.6047 254.549 79.8339 254.112C79.3714 253.85 78.8436 253.717 78.2657 253.717C76.824 253.717 75.1031 254.552 73.2758 256.136C71.4482 254.551 69.7189 253.738 68.2763 253.738L68.1696 253.739ZM66.7566 260.266C66.6081 259.519 66.5084 258.818 66.503 258.205C66.4982 257.652 66.574 257.17 66.6862 256.751C66.8492 256.143 67.1259 255.725 67.5087 255.507C67.726 255.384 67.9909 255.3 68.2875 255.3C69.31 255.3 70.6555 256 72.1071 257.24C71.3932 257.971 70.6954 258.789 70.0287 259.678C68.8764 259.807 67.7778 260.004 66.7566 260.266ZM74.4445 257.241C75.8958 256.002 77.2445 255.324 78.2657 255.324C78.5627 255.324 78.824 255.387 79.0416 255.51C79.4238 255.727 79.7002 256.144 79.8628 256.751C80.1438 257.657 80.1074 258.861 79.7928 260.265C78.7716 260.004 77.6733 259.806 76.5213 259.678C75.8549 258.79 75.1578 257.971 74.4445 257.241ZM72.2058 259.521C72.558 259.103 72.9158 258.708 73.2755 258.339C73.6352 258.708 73.9926 259.103 74.3445 259.521C73.9849 259.508 73.6271 259.501 73.2752 259.501C72.9232 259.501 72.5658 259.508 72.2058 259.521ZM70.9046 261.205C71.6777 261.141 72.4742 261.095 73.2752 261.095C74.0758 261.095 74.8723 261.141 75.645 261.205C76.1053 261.854 76.5438 262.531 76.9488 263.22C77.3415 263.888 77.7115 264.583 78.049 265.287C77.7112 265.991 77.3412 266.686 76.9484 267.354C76.5431 268.043 76.105 268.72 75.6447 269.369C74.8723 269.433 74.0758 269.519 73.2752 269.519C72.4738 269.519 71.677 269.433 70.9037 269.369C70.443 268.72 70.0046 268.043 69.5993 267.354C69.2065 266.686 68.8369 265.992 68.4994 265.287C68.8369 264.583 69.2068 263.888 69.5996 263.22C70.0053 262.531 70.444 261.854 70.9046 261.205ZM78.8751 263.366C78.6986 263.039 78.5177 262.718 78.3341 262.405C78.1509 262.094 77.959 261.781 77.7604 261.47C78.3306 261.567 78.8805 261.683 79.4042 261.817C79.254 262.321 79.0769 262.839 78.8751 263.366ZM67.1449 261.817C67.6685 261.683 68.2184 261.567 68.7887 261.47C68.5897 261.781 68.3978 262.094 68.2146 262.405C68.031 262.717 67.8501 263.039 67.6736 263.366C67.4718 262.839 67.295 262.321 67.1449 261.817ZM79.821 265.287C80.2759 264.271 80.6526 263.264 80.9428 262.289C83.1617 263.099 84.5252 264.233 84.5252 265.287C84.5252 266.341 83.1617 267.475 80.9428 268.285C80.6523 267.31 80.2759 266.303 79.821 265.287ZM65.6065 268.285C63.3883 267.475 62.0251 266.341 62.0251 265.287C62.0251 264.234 63.3883 263.099 65.6062 262.29C65.8964 263.265 66.2728 264.271 66.7277 265.288C66.2732 266.304 65.8968 267.31 65.6065 268.285ZM77.76 269.104C77.9587 268.793 78.1509 268.481 78.3338 268.169C78.5177 267.857 78.6986 267.535 78.8751 267.208C79.0769 267.736 79.2537 268.254 79.4042 268.758C78.8802 268.891 78.3303 269.007 77.76 269.104ZM67.1452 268.757C67.2953 268.254 67.4721 267.736 67.6736 267.209C67.8498 267.536 68.0307 267.857 68.2143 268.169C68.3972 268.481 68.589 268.793 68.788 269.104C68.2181 269.007 67.6685 268.891 67.1452 268.757ZM68.2847 275.252C67.9877 275.252 67.7267 275.19 67.509 275.066C67.1265 274.849 66.8498 274.431 66.6872 273.823C66.42 272.908 66.4503 271.704 66.7572 270.309C67.7781 270.57 68.8761 270.768 70.0278 270.895C70.6947 271.785 71.3925 272.603 72.1068 273.334C70.6555 274.574 69.3065 275.253 68.2847 275.252ZM76.5209 270.896C77.6729 270.768 78.7713 270.571 79.7924 270.309C80.1476 271.833 80.1756 273.047 79.8622 273.823C79.6999 274.43 79.4238 274.848 79.0419 275.064C78.824 275.188 78.563 275.25 78.2663 275.25C77.2441 275.25 75.8948 274.572 74.4439 273.334C75.1574 272.604 75.8546 271.785 76.5209 270.896ZM73.2752 272.236C72.9152 271.867 72.5571 271.472 72.2048 271.054C72.5648 271.066 72.9229 271.073 73.2752 271.073C73.6271 271.073 73.9849 271.066 74.3445 271.054C73.9926 271.472 73.6348 271.867 73.2752 272.236Z" fill="#4E7AB5"/>
</g>
</g>
</g>
</g>
<path d="M56.5923 309L53.9363 304.44H52.1763V309H50.7203V297.848H54.3203C55.1629 297.848 55.8723 297.992 56.4483 298.28C57.0349 298.568 57.4723 298.957 57.7603 299.448C58.0483 299.939 58.1923 300.499 58.1923 301.128C58.1923 301.896 57.9683 302.573 57.5203 303.16C57.0829 303.747 56.4216 304.136 55.5363 304.328L58.3363 309H56.5923ZM52.1763 303.272H54.3203C55.1096 303.272 55.7016 303.08 56.0963 302.696C56.4909 302.301 56.6883 301.779 56.6883 301.128C56.6883 300.467 56.4909 299.955 56.0963 299.592C55.7123 299.229 55.1203 299.048 54.3203 299.048H52.1763V303.272ZM68.4547 304.28C68.4547 304.557 68.4387 304.851 68.4067 305.16H61.3987C61.452 306.024 61.7453 306.701 62.2787 307.192C62.8227 307.672 63.4787 307.912 64.2467 307.912C64.876 307.912 65.3987 307.768 65.8147 307.48C66.2413 307.181 66.54 306.787 66.7107 306.296H68.2787C68.044 307.139 67.5747 307.827 66.8707 308.36C66.1667 308.883 65.292 309.144 64.2467 309.144C63.4147 309.144 62.668 308.957 62.0067 308.584C61.356 308.211 60.844 307.683 60.4707 307C60.0973 306.307 59.9107 305.507 59.9107 304.6C59.9107 303.693 60.092 302.899 60.4547 302.216C60.8173 301.533 61.324 301.011 61.9747 300.648C62.636 300.275 63.3933 300.088 64.2467 300.088C65.0787 300.088 65.8147 300.269 66.4547 300.632C67.0947 300.995 67.5853 301.496 67.9267 302.136C68.2787 302.765 68.4547 303.48 68.4547 304.28ZM66.9507 303.976C66.9507 303.421 66.828 302.947 66.5827 302.552C66.3373 302.147 66.0013 301.843 65.5747 301.64C65.1587 301.427 64.6947 301.32 64.1827 301.32C63.4467 301.32 62.8173 301.555 62.2947 302.024C61.7827 302.493 61.4893 303.144 61.4147 303.976H66.9507ZM69.8325 304.584C69.8325 303.688 70.0139 302.904 70.3765 302.232C70.7392 301.549 71.2352 301.021 71.8645 300.648C72.5045 300.275 73.2139 300.088 73.9925 300.088C74.7605 300.088 75.4272 300.253 75.9925 300.584C76.5579 300.915 76.9792 301.331 77.2565 301.832V300.232H78.7285V309H77.2565V307.368C76.9685 307.88 76.5365 308.307 75.9605 308.648C75.3952 308.979 74.7339 309.144 73.9765 309.144C73.1979 309.144 72.4939 308.952 71.8645 308.568C71.2352 308.184 70.7392 307.645 70.3765 306.952C70.0139 306.259 69.8325 305.469 69.8325 304.584ZM77.2565 304.6C77.2565 303.939 77.1232 303.363 76.8565 302.872C76.5899 302.381 76.2272 302.008 75.7685 301.752C75.3205 301.485 74.8245 301.352 74.2805 301.352C73.7365 301.352 73.2405 301.48 72.7925 301.736C72.3445 301.992 71.9872 302.365 71.7205 302.856C71.4539 303.347 71.3205 303.923 71.3205 304.584C71.3205 305.256 71.4539 305.843 71.7205 306.344C71.9872 306.835 72.3445 307.213 72.7925 307.48C73.2405 307.736 73.7365 307.864 74.2805 307.864C74.8245 307.864 75.3205 307.736 75.7685 307.48C76.2272 307.213 76.5899 306.835 76.8565 306.344C77.1232 305.843 77.2565 305.261 77.2565 304.6ZM80.645 304.6C80.645 303.693 80.8264 302.904 81.189 302.232C81.5517 301.549 82.053 301.021 82.693 300.648C83.3437 300.275 84.085 300.088 84.917 300.088C85.9944 300.088 86.8797 300.349 87.573 300.872C88.277 301.395 88.741 302.12 88.965 303.048H87.397C87.2477 302.515 86.9544 302.093 86.517 301.784C86.0904 301.475 85.557 301.32 84.917 301.32C84.085 301.32 83.413 301.608 82.901 302.184C82.389 302.749 82.133 303.555 82.133 304.6C82.133 305.656 82.389 306.472 82.901 307.048C83.413 307.624 84.085 307.912 84.917 307.912C85.557 307.912 86.0904 307.763 86.517 307.464C86.9437 307.165 87.237 306.739 87.397 306.184H88.965C88.7304 307.08 88.261 307.8 87.557 308.344C86.853 308.877 85.973 309.144 84.917 309.144C84.085 309.144 83.3437 308.957 82.693 308.584C82.053 308.211 81.5517 307.683 81.189 307C80.8264 306.317 80.645 305.517 80.645 304.6ZM92.6838 301.432V306.6C92.6838 307.027 92.7744 307.331 92.9558 307.512C93.1371 307.683 93.4518 307.768 93.8998 307.768H94.9718V309H93.6598C92.8491 309 92.2411 308.813 91.8358 308.44C91.4304 308.067 91.2278 307.453 91.2278 306.6V301.432H90.0918V300.232H91.2278V298.024H92.6838V300.232H94.9718V301.432H92.6838Z" fill="#F9F9F9"/>
<g clip-path="url(#clip9_525_7241)">
<g clip-path="url(#clip10_525_7241)">
<g clip-path="url(#clip11_525_7241)">
<path d="M73 392.5C83.7696 392.5 92.5 383.77 92.5 373C92.5 362.23 83.7696 353.5 73 353.5C62.2304 353.5 53.5 362.23 53.5 373C53.5 383.77 62.2304 392.5 73 392.5Z" stroke="#606060" stroke-dasharray="6 6"/>
<path d="M75.0302 362.143C74.8955 362.143 74.7663 362.195 74.671 362.288L64.0042 372.688C63.909 372.78 63.8555 372.906 63.8555 373.038C63.8555 373.169 63.909 373.295 64.0042 373.388L67.0519 376.359C67.1472 376.452 67.2763 376.504 67.411 376.504C67.5457 376.504 67.6749 376.452 67.7702 376.359L81.4846 362.988C81.5556 362.919 81.604 362.83 81.6236 362.734C81.6431 362.638 81.6331 362.539 81.5946 362.448C81.5562 362.358 81.4911 362.281 81.4076 362.226C81.3241 362.172 81.2259 362.143 81.1255 362.143H75.0302ZM75.2405 363.133H79.8993L67.411 375.309L65.0816 373.038L75.2405 363.133ZM75.5381 371.552C75.4034 371.552 75.2742 371.604 75.179 371.697L69.0837 377.64C68.9884 377.733 68.935 377.859 68.935 377.99C68.935 378.121 68.9884 378.247 69.0837 378.34L72.1313 381.312L75.179 384.283C75.2742 384.376 75.4034 384.428 75.5381 384.428H81.6334C81.7339 384.428 81.8321 384.399 81.9156 384.345C81.9991 384.29 82.0641 384.213 82.1026 384.122C82.141 384.032 82.1511 383.932 82.1315 383.836C82.1119 383.74 82.0636 383.652 81.9926 383.583L76.2564 377.99L81.9926 372.397C82.0636 372.328 82.1119 372.24 82.1315 372.144C82.1511 372.048 82.141 371.948 82.1026 371.858C82.0641 371.767 81.9991 371.69 81.9156 371.636C81.8321 371.581 81.7339 371.552 81.6334 371.552H75.5381ZM75.7484 372.543H80.4072L72.4905 380.261L70.1611 377.99L75.7484 372.543ZM75.5381 378.69L80.4072 383.438H75.7484L73.2087 380.962L75.5381 378.69Z" fill="white"/>
</g>
</g>
</g>
<path d="M55.536 405.848V407.032H50.688V410.792H54.624V411.976H50.688V417H49.232V405.848H55.536ZM58.7505 405.16V417H57.2945V405.16H58.7505ZM69.008 408.232V417H67.552V415.704C67.2747 416.152 66.8853 416.504 66.384 416.76C65.8933 417.005 65.3493 417.128 64.752 417.128C64.0693 417.128 63.456 416.989 62.912 416.712C62.368 416.424 61.936 415.997 61.616 415.432C61.3067 414.867 61.152 414.179 61.152 413.368V408.232H62.592V413.176C62.592 414.04 62.8107 414.707 63.248 415.176C63.6853 415.635 64.2827 415.864 65.04 415.864C65.8187 415.864 66.432 415.624 66.88 415.144C67.328 414.664 67.552 413.965 67.552 413.048V408.232H69.008ZM73.2424 409.432V414.6C73.2424 415.027 73.333 415.331 73.5144 415.512C73.6957 415.683 74.0104 415.768 74.4584 415.768H75.5304V417H74.2184C73.4077 417 72.7997 416.813 72.3944 416.44C71.989 416.067 71.7864 415.453 71.7864 414.6V409.432H70.6504V408.232H71.7864V406.024H73.2424V408.232H75.5304V409.432H73.2424ZM79.0705 409.432V414.6C79.0705 415.027 79.1612 415.331 79.3425 415.512C79.5238 415.683 79.8385 415.768 80.2865 415.768H81.3585V417H80.0465C79.2358 417 78.6278 416.813 78.2225 416.44C77.8172 416.067 77.6145 415.453 77.6145 414.6V409.432H76.4785V408.232H77.6145V406.024H79.0705V408.232H81.3585V409.432H79.0705ZM91.1226 412.28C91.1226 412.557 91.1066 412.851 91.0746 413.16H84.0666C84.12 414.024 84.4133 414.701 84.9466 415.192C85.4906 415.672 86.1466 415.912 86.9146 415.912C87.544 415.912 88.0666 415.768 88.4826 415.48C88.9093 415.181 89.208 414.787 89.3786 414.296H90.9466C90.712 415.139 90.2426 415.827 89.5386 416.36C88.8346 416.883 87.96 417.144 86.9146 417.144C86.0826 417.144 85.336 416.957 84.6746 416.584C84.024 416.211 83.512 415.683 83.1386 415C82.7653 414.307 82.5786 413.507 82.5786 412.6C82.5786 411.693 82.76 410.899 83.1226 410.216C83.4853 409.533 83.992 409.011 84.6426 408.648C85.304 408.275 86.0613 408.088 86.9146 408.088C87.7466 408.088 88.4826 408.269 89.1226 408.632C89.7626 408.995 90.2533 409.496 90.5946 410.136C90.9466 410.765 91.1226 411.48 91.1226 412.28ZM89.6186 411.976C89.6186 411.421 89.496 410.947 89.2506 410.552C89.0053 410.147 88.6693 409.843 88.2426 409.64C87.8266 409.427 87.3626 409.32 86.8506 409.32C86.1146 409.32 85.4853 409.555 84.9626 410.024C84.4506 410.493 84.1573 411.144 84.0826 411.976H89.6186ZM94.5005 409.656C94.7565 409.155 95.1192 408.765 95.5885 408.488C96.0685 408.211 96.6498 408.072 97.3325 408.072V409.576H96.9485C95.3165 409.576 94.5005 410.461 94.5005 412.232V417H93.0445V408.232H94.5005V409.656Z" fill="#F9F9F9"/>
</g>
<defs>
<filter id="filter0_d_525_7241" x="0" y="0" width="154" height="445" filterUnits="userSpaceOnUse" color-interpolation-filters="sRGB">
<feFlood flood-opacity="0" result="BackgroundImageFix"/>
<feColorMatrix in="SourceAlpha" type="matrix" values="0 0 0 0 0 0 0 0 0 0 0 0 0 0 0 0 0 0 127 0" result="hardAlpha"/>
<feOffset dx="4"/>
<feGaussianBlur stdDeviation="6"/>
<feComposite in2="hardAlpha" operator="out"/>
<feColorMatrix type="matrix" values="0 0 0 0 0.529412 0 0 0 0 0.517647 0 0 0 0 0.517647 0 0 0 0.3 0"/>
<feBlend mode="normal" in2="BackgroundImageFix" result="effect1_dropShadow_525_7241"/>
<feBlend mode="normal" in="SourceGraphic" in2="effect1_dropShadow_525_7241" result="shape"/>
</filter>
<clipPath id="clip0_525_7241">
<rect width="40" height="40" fill="white" transform="translate(52.9961 29)"/>
</clipPath>
<clipPath id="clip1_525_7241">
<rect width="40" height="40" fill="white" transform="translate(52.9961 29)"/>
</clipPath>
<clipPath id="clip2_525_7241">
<rect width="40" height="40" fill="white" transform="translate(52.9961 29)"/>
</clipPath>
<clipPath id="clip3_525_7241">
<rect width="40" height="40" fill="white" transform="translate(53 137)"/>
</clipPath>
<clipPath id="clip4_525_7241">
<rect width="40" height="40" fill="white" transform="translate(53 137)"/>
</clipPath>
<clipPath id="clip5_525_7241">
<rect width="40" height="40" fill="white" transform="translate(53 137)"/>
</clipPath>
<clipPath id="clip6_525_7241">
<rect width="40" height="40" fill="white" transform="translate(52.9883 245)"/>
</clipPath>
<clipPath id="clip7_525_7241">
<rect width="40" height="40" fill="white" transform="translate(52.9883 245)"/>
</clipPath>
<clipPath id="clip8_525_7241">
<rect width="40" height="40" fill="white" transform="translate(52.9883 245)"/>
</clipPath>
<clipPath id="clip9_525_7241">
<rect width="40" height="40" fill="white" transform="translate(53 353)"/>
</clipPath>
<clipPath id="clip10_525_7241">
<rect width="40" height="40" fill="white" transform="translate(53 353)"/>
</clipPath>
<clipPath id="clip11_525_7241">
<rect width="40" height="40" fill="white" transform="translate(53 353)"/>
</clipPath>
</defs>
</svg>
