<svg width="155" height="444" viewBox="0 0 155 444" fill="none" xmlns="http://www.w3.org/2000/svg">
<g filter="url(#filter0_d_525_7363)">
<rect x="8.5" y="12" width="130" height="420" rx="20" fill="black" shape-rendering="crispEdges"/>
<g clip-path="url(#clip0_525_7363)">
<g clip-path="url(#clip1_525_7363)">
<g clip-path="url(#clip2_525_7363)">
<path d="M73.5 91C84.2696 91 93 82.2696 93 71.5C93 60.7304 84.2696 52 73.5 52C62.7304 52 54 60.7304 54 71.5C54 82.2696 62.7304 91 73.5 91Z" stroke="#606060" stroke-dasharray="6 6"/>
<path d="M84.2739 79.6605L78.9864 74.373C78.2938 75.4063 77.4045 76.2957 76.3711 76.9884L81.6605 82.2779C82.0203 82.6341 82.4925 82.8122 82.9649 82.8122C83.4374 82.8122 83.9135 82.6331 84.2758 82.2741C84.9887 81.5542 84.9887 80.3824 84.2739 79.6605Z" fill="#2FA35D"/>
<path d="M81.3799 61.4393C81.2086 61.2679 80.9726 61.1848 80.7293 61.2129L77.2432 61.618C76.9386 61.6532 76.6868 61.8555 76.5863 62.1451C76.4857 62.4348 76.5584 62.7494 76.7754 62.9656L77.4572 63.6449L72.1441 68.958L69.6162 66.4301C69.4177 66.232 69.0671 66.2326 68.8699 66.4301L64.8956 70.4078C64.8055 69.982 64.7562 69.5415 64.7562 69.089C64.7562 65.5906 67.5924 62.7543 71.0909 62.7543C72.6948 62.7543 74.1551 63.3551 75.2712 64.338L75.9646 63.6446C75.5394 63.176 75.3898 62.5362 75.5536 61.9274C74.2576 61.1178 72.7315 60.6426 71.0908 60.6426C66.426 60.6426 62.6445 64.424 62.6445 69.0888C62.6445 73.7537 66.426 77.5351 71.0908 77.5351C75.7556 77.5351 79.5371 73.7537 79.5371 69.0888C79.5371 68.332 79.4281 67.602 79.2415 66.904C79.2188 66.885 79.1928 66.8704 79.1706 66.8502L77.4019 68.6189C77.4135 68.7746 77.4255 68.9304 77.4255 69.0889C77.4255 72.5873 74.5893 75.4236 71.0908 75.4236C68.969 75.4236 67.0961 74.3768 65.9461 72.7757L69.2429 69.4818L71.7708 72.0097C71.9768 72.2157 72.311 72.2157 72.5171 72.0097L79.1695 65.3573L79.8532 66.0429C80.0686 66.2605 80.3836 66.3324 80.6727 66.2332C80.963 66.1332 81.1654 65.8815 81.2012 65.5761L81.6058 62.0904C81.6342 61.8482 81.5512 61.611 81.3789 61.439L81.3799 61.4393Z" fill="#2FA35D"/>
</g>
</g>
</g>
<path d="M62.768 115.612C62.032 115.612 61.3707 115.484 60.784 115.228C60.208 114.961 59.7547 114.599 59.424 114.14C59.0933 113.671 58.9227 113.132 58.912 112.524H60.464C60.5173 113.047 60.7307 113.489 61.104 113.852C61.488 114.204 62.0427 114.38 62.768 114.38C63.4613 114.38 64.0053 114.209 64.4 113.868C64.8053 113.516 65.008 113.068 65.008 112.524C65.008 112.097 64.8907 111.751 64.656 111.484C64.4213 111.217 64.128 111.015 63.776 110.876C63.424 110.737 62.9493 110.588 62.352 110.428C61.616 110.236 61.024 110.044 60.576 109.852C60.1387 109.66 59.76 109.361 59.44 108.956C59.1307 108.54 58.976 107.985 58.976 107.292C58.976 106.684 59.1307 106.145 59.44 105.676C59.7493 105.207 60.1813 104.844 60.736 104.588C61.3013 104.332 61.9467 104.204 62.672 104.204C63.7173 104.204 64.5707 104.465 65.232 104.988C65.904 105.511 66.2827 106.204 66.368 107.068H64.768C64.7147 106.641 64.4907 106.268 64.096 105.948C63.7013 105.617 63.1787 105.452 62.528 105.452C61.92 105.452 61.424 105.612 61.04 105.932C60.656 106.241 60.464 106.679 60.464 107.244C60.464 107.649 60.576 107.98 60.8 108.236C61.0347 108.492 61.3173 108.689 61.648 108.828C61.9893 108.956 62.464 109.105 63.072 109.276C63.808 109.479 64.4 109.681 64.848 109.884C65.296 110.076 65.68 110.38 66 110.796C66.32 111.201 66.48 111.756 66.48 112.46C66.48 113.004 66.336 113.516 66.048 113.996C65.76 114.476 65.3333 114.865 64.768 115.164C64.2027 115.463 63.536 115.612 62.768 115.612ZM70.0786 105.532V109.26H74.1426V110.46H70.0786V114.3H74.6226V115.5H68.6226V104.332H74.6226V105.532H70.0786ZM81.8818 115.612C80.8471 115.612 79.9031 115.372 79.0498 114.892C78.1964 114.401 77.5191 113.724 77.0178 112.86C76.5271 111.985 76.2818 111.004 76.2818 109.916C76.2818 108.828 76.5271 107.852 77.0178 106.988C77.5191 106.113 78.1964 105.436 79.0498 104.956C79.9031 104.465 80.8471 104.22 81.8818 104.22C82.9271 104.22 83.8764 104.465 84.7298 104.956C85.5831 105.436 86.2551 106.108 86.7458 106.972C87.2364 107.836 87.4818 108.817 87.4818 109.916C87.4818 111.015 87.2364 111.996 86.7458 112.86C86.2551 113.724 85.5831 114.401 84.7298 114.892C83.8764 115.372 82.9271 115.612 81.8818 115.612ZM81.8818 114.348C82.6604 114.348 83.3591 114.167 83.9778 113.804C84.6071 113.441 85.0978 112.924 85.4498 112.252C85.8124 111.58 85.9938 110.801 85.9938 109.916C85.9938 109.02 85.8124 108.241 85.4498 107.58C85.0978 106.908 84.6124 106.391 83.9938 106.028C83.3751 105.665 82.6711 105.484 81.8818 105.484C81.0924 105.484 80.3884 105.665 79.7698 106.028C79.1511 106.391 78.6604 106.908 78.2978 107.58C77.9458 108.241 77.7698 109.02 77.7698 109.916C77.7698 110.801 77.9458 111.58 78.2978 112.252C78.6604 112.924 79.1511 113.441 79.7698 113.804C80.3991 114.167 81.1031 114.348 81.8818 114.348Z" fill="#F9F9F9"/>
<g clip-path="url(#clip3_525_7363)">
<g clip-path="url(#clip4_525_7363)">
<g clip-path="url(#clip5_525_7363)">
<path d="M73.5 181C84.2696 181 93 172.27 93 161.5C93 150.73 84.2696 142 73.5 142C62.7304 142 54 150.73 54 161.5C54 172.27 62.7304 181 73.5 181Z" stroke="#606060" stroke-dasharray="6 6"/>
<path fill-rule="evenodd" clip-rule="evenodd" d="M71.9792 156.409L72.8562 155.532C72.2476 155.232 71.563 155.064 70.8398 155.064C68.315 155.064 66.2623 157.115 66.2623 159.641C66.2623 162.167 68.314 164.218 70.8398 164.218C73.3663 164.218 75.4168 162.168 75.4168 159.641C75.4168 158.917 75.2484 158.232 74.9488 157.624L74.0714 158.501C74.197 158.857 74.2652 159.241 74.2652 159.641C74.2652 161.534 72.7335 163.066 70.8401 163.066C68.9474 163.066 67.4144 161.533 67.4144 159.641C67.4144 157.746 68.9456 156.215 70.8401 156.215C71.2394 156.216 71.6224 156.284 71.9792 156.409ZM75.6147 165.584C76.0449 165.238 76.4365 164.845 76.7827 164.416L82.2811 169.915L81.1131 171.083L75.6147 165.584ZM70.8392 153.322C72.0478 153.322 73.1774 153.662 74.1375 154.25L75.0822 153.306C73.8695 152.492 72.4098 152.017 70.8392 152.017C66.6289 152.017 63.2148 155.431 63.2148 159.641C63.2148 163.852 66.6283 167.265 70.8392 167.265C72.1694 167.265 73.4204 166.924 74.5093 166.325L81.1138 172.929L84.1274 169.915L77.5232 163.311C78.1224 162.222 78.463 160.971 78.463 159.641C78.463 158.071 77.9882 156.611 77.1745 155.398L76.2303 156.342C76.819 157.302 77.1588 158.432 77.1588 159.641C77.1588 163.13 74.3291 165.959 70.8403 165.959C67.3505 165.959 64.5213 163.13 64.5213 159.641C64.5204 156.151 67.3493 153.322 70.8392 153.322ZM76.1335 153.532L71.3374 158.328C71.182 158.269 71.0144 158.237 70.839 158.237C70.0637 158.237 69.4348 158.865 69.4348 159.641C69.4348 160.415 70.0632 161.044 70.839 161.044C71.6143 161.044 72.2427 160.416 72.2427 159.641C72.2427 159.465 72.2106 159.297 72.152 159.142L76.9481 154.346L78.1684 154.262L80.1414 152.29L78.3844 152.095L78.1901 150.338L76.217 152.311L76.1335 153.532Z" fill="#7DA5C2"/>
</g>
</g>
</g>
<path d="M62.268 205.612C61.532 205.612 60.8707 205.484 60.284 205.228C59.708 204.961 59.2547 204.599 58.924 204.14C58.5933 203.671 58.4227 203.132 58.412 202.524H59.964C60.0173 203.047 60.2307 203.489 60.604 203.852C60.988 204.204 61.5427 204.38 62.268 204.38C62.9613 204.38 63.5053 204.209 63.9 203.868C64.3053 203.516 64.508 203.068 64.508 202.524C64.508 202.097 64.3907 201.751 64.156 201.484C63.9213 201.217 63.628 201.015 63.276 200.876C62.924 200.737 62.4493 200.588 61.852 200.428C61.116 200.236 60.524 200.044 60.076 199.852C59.6387 199.66 59.26 199.361 58.94 198.956C58.6307 198.54 58.476 197.985 58.476 197.292C58.476 196.684 58.6307 196.145 58.94 195.676C59.2493 195.207 59.6813 194.844 60.236 194.588C60.8013 194.332 61.4467 194.204 62.172 194.204C63.2173 194.204 64.0707 194.465 64.732 194.988C65.404 195.511 65.7827 196.204 65.868 197.068H64.268C64.2147 196.641 63.9907 196.268 63.596 195.948C63.2013 195.617 62.6787 195.452 62.028 195.452C61.42 195.452 60.924 195.612 60.54 195.932C60.156 196.241 59.964 196.679 59.964 197.244C59.964 197.649 60.076 197.98 60.3 198.236C60.5347 198.492 60.8173 198.689 61.148 198.828C61.4893 198.956 61.964 199.105 62.572 199.276C63.308 199.479 63.9 199.681 64.348 199.884C64.796 200.076 65.18 200.38 65.5 200.796C65.82 201.201 65.98 201.756 65.98 202.46C65.98 203.004 65.836 203.516 65.548 203.996C65.26 204.476 64.8333 204.865 64.268 205.164C63.7027 205.463 63.036 205.612 62.268 205.612ZM69.5786 195.532V199.26H73.6426V200.46H69.5786V204.3H74.1226V205.5H68.1226V194.332H74.1226V195.532H69.5786ZM87.6378 194.428V205.5H86.1818V197.244L82.5018 205.5H81.4778L77.7818 197.228V205.5H76.3258V194.428H77.8938L81.9898 203.58L86.0858 194.428H87.6378Z" fill="#F9F9F9"/>
<g clip-path="url(#clip6_525_7363)">
<g clip-path="url(#clip7_525_7363)">
<g clip-path="url(#clip8_525_7363)">
<path d="M73.5 271C84.2696 271 93 262.27 93 251.5C93 240.73 84.2696 232 73.5 232C62.7304 232 54 240.73 54 251.5C54 262.27 62.7304 271 73.5 271Z" stroke="#606060" stroke-dasharray="6 6"/>
<path d="M76.9327 242.077H76.3312C76.2591 242.077 76.2109 242.028 76.2109 241.956C76.2109 241.884 76.2591 241.836 76.3312 241.836H76.9327C77.0048 241.836 77.053 241.884 77.053 241.956C77.053 242.028 76.9808 242.077 76.9327 242.077Z" fill="#6171FD"/>
<path d="M76.0894 241.427C76.0654 241.427 76.0172 241.403 75.9932 241.378C75.945 241.33 75.945 241.234 75.9932 241.186L76.4262 240.753C76.4743 240.705 76.5705 240.705 76.6186 240.753C76.6668 240.801 76.6668 240.897 76.6186 240.945L76.1857 241.378C76.1615 241.402 76.1375 241.427 76.0894 241.427Z" fill="#6171FD"/>
<path d="M76.499 243.206C76.475 243.206 76.4268 243.182 76.4028 243.158L75.9697 242.725C75.9215 242.676 75.9215 242.58 75.9697 242.532C76.0179 242.484 76.114 242.484 76.1622 242.532L76.5951 242.965C76.6433 243.013 76.6433 243.109 76.5951 243.158C76.5951 243.206 76.5471 243.206 76.499 243.206Z" fill="#6171FD"/>
<path d="M75.4161 241.451V240.2C75.4161 240.152 75.3921 240.104 75.3199 240.08C75.2717 240.056 75.1996 240.08 75.1756 240.128C75.1756 240.128 74.3576 241.09 72.7698 241.09H71.2541C71.0616 241.09 70.8933 241.186 70.7969 241.331H70.773H70.5083C70.4121 241.331 70.3398 241.403 70.3398 241.499V242.462C70.3398 242.558 70.412 242.63 70.5083 242.63H70.773C70.8451 242.726 70.9654 242.799 71.0858 242.847L71.8797 244.939C71.9037 245.012 71.9758 245.084 72.0722 245.084L72.8417 245.084C72.9139 245.084 72.9861 245.036 73.0342 244.964C73.0582 244.891 73.0582 244.795 73.0102 244.747L72.6013 244.29L72.072 242.895H72.7696C74.3575 242.895 75.1754 243.857 75.1754 243.857C75.1994 243.881 75.2475 243.905 75.2715 243.905H75.3197C75.3679 243.881 75.4159 243.833 75.4159 243.785V242.534C75.6565 242.486 75.8248 242.269 75.8248 242.004C75.825 241.74 75.6566 241.499 75.4161 241.451Z" fill="#6171FD"/>
<path d="M64.2323 255.957C63.8475 254.874 63.6069 253.719 63.6069 252.517C63.6069 248.499 65.9886 245.059 69.4048 243.471V242.412C65.4593 244.024 62.6445 247.945 62.6445 252.492C62.6445 253.984 62.9332 255.404 63.4867 256.679L64.2323 255.957Z" fill="#6171FD"/>
<path d="M83.5008 252.493C83.5008 253.6 83.3083 254.658 82.9955 255.644L83.7655 256.414C84.2466 255.188 84.4872 253.864 84.4872 252.493C84.4872 247.874 81.6243 243.928 77.5586 242.316V243.375C81.0709 244.939 83.5008 248.451 83.5008 252.493Z" fill="#6171FD"/>
<path d="M77.4633 261.684C76.2604 262.189 74.9614 262.477 73.566 262.477C72.2909 262.477 71.064 262.237 69.9333 261.804L69.1875 262.55C70.5347 263.127 72.0023 263.464 73.542 263.464C75.202 263.464 76.7657 263.103 78.1611 262.429L77.4633 261.684Z" fill="#6171FD"/>
<path d="M83.9807 258.581C83.5957 257.137 82.1282 256.271 80.6606 256.656C79.2171 257.041 78.351 258.508 78.736 259.976C78.9285 260.674 79.3374 261.227 79.8907 261.564L79.1689 262.646L82.032 261.901C83.4996 261.516 84.3897 260.024 83.9807 258.581ZM81.5509 260.289H80.1073V259.856H81.5509V260.289ZM82.7778 259.423H80.1074V258.99H82.8018L82.7778 259.423ZM82.7778 258.605H80.1074V258.172H82.8018L82.7778 258.605Z" fill="#6171FD"/>
<path d="M63.3633 258.676H64.3256V261.298H63.3633V258.676Z" fill="#6171FD"/>
<path d="M64.8086 258.653L66.228 257.041L66.8295 257.161L66.3965 258.533H68.5135L67.9362 261.299H64.8086" fill="#6171FD"/>
<path d="M68.2985 255.164C68.1781 255.164 68.082 255.26 68.082 255.38V256.944C68.082 257.064 68.1781 257.161 68.2985 257.161H69.8141C69.9345 257.161 70.0306 257.064 70.0306 256.944V255.38C70.0306 255.26 69.9345 255.164 69.8141 255.164H68.2985Z" fill="#6171FD"/>
<path d="M71.0407 254.129C70.9204 254.129 70.8242 254.225 70.8242 254.345V256.968C70.8242 257.088 70.9204 257.184 71.0407 257.184H72.5564C72.6767 257.184 72.7729 257.088 72.7729 256.968V254.345C72.7729 254.225 72.6767 254.129 72.5564 254.129H71.0407Z" fill="#6171FD"/>
<path d="M73.8532 252.83C73.7329 252.83 73.6367 252.926 73.6367 253.047V256.968C73.6367 257.088 73.7329 257.184 73.8532 257.184H75.3689C75.4892 257.184 75.5853 257.088 75.5853 256.968V253.047C75.5853 252.926 75.4892 252.83 75.3689 252.83L73.8532 252.83Z" fill="#6171FD"/>
<path d="M78.2791 251.074H76.7634C76.6431 251.074 76.5469 251.17 76.5469 251.291V256.968C76.5469 257.089 76.6431 257.185 76.7634 257.185H78.2791C78.3994 257.185 78.4956 257.089 78.4956 256.968V251.291C78.5196 251.171 78.3993 251.074 78.2791 251.074Z" fill="#6171FD"/>
<path d="M78.3785 249.68L77.6567 246.745C77.6567 246.697 77.6086 246.673 77.5846 246.649C77.5364 246.625 77.5124 246.625 77.4642 246.649L74.4811 247.707C74.433 247.731 74.385 247.78 74.385 247.828C74.385 247.876 74.409 247.948 74.4572 247.972L75.2993 248.405C74.6013 249.44 72.388 252.278 68.2744 253.65C68.2022 253.674 68.154 253.746 68.1782 253.818C68.2022 253.89 68.2504 253.938 68.3225 253.938H68.3465C68.4187 253.938 74.4572 252.784 77.1517 249.343L78.1621 249.849C78.2103 249.873 78.2825 249.873 78.3065 249.825C78.3786 249.776 78.4025 249.728 78.3785 249.68Z" fill="#6171FD"/>
</g>
</g>
</g>
<path d="M60.268 295.612C59.532 295.612 58.8707 295.484 58.284 295.228C57.708 294.961 57.2547 294.599 56.924 294.14C56.5933 293.671 56.4227 293.132 56.412 292.524H57.964C58.0173 293.047 58.2307 293.489 58.604 293.852C58.988 294.204 59.5427 294.38 60.268 294.38C60.9613 294.38 61.5053 294.209 61.9 293.868C62.3053 293.516 62.508 293.068 62.508 292.524C62.508 292.097 62.3907 291.751 62.156 291.484C61.9213 291.217 61.628 291.015 61.276 290.876C60.924 290.737 60.4493 290.588 59.852 290.428C59.116 290.236 58.524 290.044 58.076 289.852C57.6387 289.66 57.26 289.361 56.94 288.956C56.6307 288.54 56.476 287.985 56.476 287.292C56.476 286.684 56.6307 286.145 56.94 285.676C57.2493 285.207 57.6813 284.844 58.236 284.588C58.8013 284.332 59.4467 284.204 60.172 284.204C61.2173 284.204 62.0707 284.465 62.732 284.988C63.404 285.511 63.7827 286.204 63.868 287.068H62.268C62.2147 286.641 61.9907 286.268 61.596 285.948C61.2013 285.617 60.6787 285.452 60.028 285.452C59.42 285.452 58.924 285.612 58.54 285.932C58.156 286.241 57.964 286.679 57.964 287.244C57.964 287.649 58.076 287.98 58.3 288.236C58.5347 288.492 58.8173 288.689 59.148 288.828C59.4893 288.956 59.964 289.105 60.572 289.276C61.308 289.479 61.9 289.681 62.348 289.884C62.796 290.076 63.18 290.38 63.5 290.796C63.82 291.201 63.98 291.756 63.98 292.46C63.98 293.004 63.836 293.516 63.548 293.996C63.26 294.476 62.8333 294.865 62.268 295.164C61.7027 295.463 61.036 295.612 60.268 295.612ZM77.4346 284.428V295.5H75.9786V287.244L72.2986 295.5H71.2746L67.5786 287.228V295.5H66.1226V284.428H67.6906L71.7866 293.58L75.8826 284.428H77.4346ZM84.9599 295.612C83.9252 295.612 82.9812 295.372 82.1279 294.892C81.2745 294.401 80.5972 293.724 80.0959 292.86C79.6052 291.985 79.3599 291.004 79.3599 289.916C79.3599 288.828 79.6052 287.852 80.0959 286.988C80.5972 286.113 81.2745 285.436 82.1279 284.956C82.9812 284.465 83.9252 284.22 84.9599 284.22C86.0052 284.22 86.9545 284.465 87.8079 284.956C88.6612 285.436 89.3332 286.108 89.8239 286.972C90.3145 287.836 90.5599 288.817 90.5599 289.916C90.5599 291.015 90.3145 291.996 89.8239 292.86C89.3332 293.724 88.6612 294.401 87.8079 294.892C86.9545 295.372 86.0052 295.612 84.9599 295.612ZM84.9599 294.348C85.7385 294.348 86.4372 294.167 87.0559 293.804C87.6852 293.441 88.1759 292.924 88.5279 292.252C88.8905 291.58 89.0719 290.801 89.0719 289.916C89.0719 289.02 88.8905 288.241 88.5279 287.58C88.1759 286.908 87.6905 286.391 87.0719 286.028C86.4532 285.665 85.7492 285.484 84.9599 285.484C84.1705 285.484 83.4665 285.665 82.8479 286.028C82.2292 286.391 81.7385 286.908 81.3759 287.58C81.0239 288.241 80.8479 289.02 80.8479 289.916C80.8479 290.801 81.0239 291.58 81.3759 292.252C81.7385 292.924 82.2292 293.441 82.8479 293.804C83.4772 294.167 84.1812 294.348 84.9599 294.348Z" fill="#F9F9F9"/>
<g clip-path="url(#clip9_525_7363)">
<g clip-path="url(#clip10_525_7363)">
<g clip-path="url(#clip11_525_7363)">
<path d="M73.5 361C84.2696 361 93 352.27 93 341.5C93 330.73 84.2696 322 73.5 322C62.7304 322 54 330.73 54 341.5C54 352.27 62.7304 361 73.5 361Z" stroke="#606060" stroke-dasharray="6 6"/>
<path d="M85.1287 337.182C85.5653 337.687 85.9044 338.314 86.146 339.062C86.3876 339.81 86.5087 340.663 86.5087 341.622C86.5087 342.556 86.3903 343.399 86.1541 344.152C85.9178 344.905 85.5759 345.537 85.1287 346.047C84.661 346.583 84.115 346.979 83.4906 347.234C82.8661 347.49 82.1786 347.617 81.4283 347.617C80.6524 347.617 79.9534 347.486 79.3316 347.223C78.7097 346.96 78.1751 346.568 77.7279 346.047C77.2859 345.537 76.9467 344.907 76.71 344.159C76.4737 343.412 76.3555 342.566 76.3555 341.622C76.3555 340.653 76.4749 339.802 76.7139 339.069C76.9531 338.337 77.2936 337.708 77.7355 337.182C78.1775 336.672 78.711 336.284 79.3355 336.018C79.9598 335.752 80.6574 335.619 81.4283 335.619C82.2095 335.619 82.9136 335.756 83.5407 336.03C84.1676 336.303 84.697 336.687 85.1287 337.182ZM84.9207 341.622C84.9207 340.859 84.8383 340.184 84.674 339.596C84.5095 339.008 84.2782 338.52 83.9802 338.133C83.677 337.736 83.3108 337.439 82.8818 337.24C82.4526 337.041 81.9705 336.942 81.4359 336.942C80.8807 336.942 80.3962 337.039 79.9824 337.232C79.5688 337.426 79.2029 337.726 78.8845 338.133C78.5809 338.525 78.3483 339.018 78.1864 339.611C78.0248 340.204 77.9441 340.875 77.9441 341.622C77.9441 343.133 78.2601 344.29 78.8922 345.092C79.5242 345.894 80.3721 346.294 81.4359 346.294C82.4999 346.294 83.3468 345.894 83.9764 345.092C84.6058 344.29 84.9207 343.133 84.9207 341.622Z" fill="#FFE653"/>
<path d="M60.3555 347.294L64.3369 335.445H66.2718L70.2527 347.294H68.5955L67.5249 343.984H63.0125L61.9418 347.294H60.3555ZM67.0886 342.639L65.2649 337.053L63.4487 342.639H67.0886Z" fill="#FFE653"/>
<path d="M72.7042 347.603C71.8549 347.603 71.1328 347.514 70.5378 347.338C69.9427 347.162 69.3832 346.945 68.8594 346.687V344.731H68.9694C69.4831 345.215 70.0649 345.59 70.7148 345.855C71.3646 346.121 71.991 346.253 72.5942 346.253C73.4534 346.253 74.1033 346.073 74.5437 345.713C74.984 345.353 75.2043 344.878 75.2043 344.289C75.2043 343.821 75.0887 343.44 74.858 343.145C74.6273 342.851 74.2604 342.632 73.7574 342.49C73.3958 342.385 73.0655 342.299 72.7668 342.23C72.4679 342.162 72.0933 342.07 71.6428 341.954C71.239 341.849 70.8772 341.715 70.5574 341.552C70.2379 341.389 69.9548 341.176 69.7084 340.913C69.4673 340.655 69.28 340.351 69.1464 340.001C69.0127 339.652 68.946 339.248 68.946 338.79C68.946 337.838 69.3154 337.04 70.0542 336.396C70.7934 335.752 71.737 335.43 72.885 335.43C73.5398 335.43 74.1595 335.495 74.7441 335.627C75.3286 335.758 75.8699 335.945 76.3681 336.187V338.056H76.2499C75.8777 337.715 75.4006 337.416 74.8188 337.161C74.2371 336.906 73.6264 336.779 72.9868 336.779C72.2636 336.779 71.6791 336.948 71.2338 337.288C70.7883 337.627 70.5656 338.072 70.5656 338.625C70.5656 339.124 70.6964 339.521 70.9582 339.816C71.2203 340.11 71.6004 340.326 72.0986 340.463C72.4289 340.552 72.8324 340.653 73.3092 340.767C73.7861 340.88 74.1819 340.983 74.4964 341.078C75.3037 341.326 75.8935 341.699 76.2657 342.199C76.6378 342.698 76.8239 343.313 76.8239 344.044C76.8239 344.502 76.7306 344.955 76.5445 345.402C76.3586 345.849 76.0978 346.227 75.7625 346.538C75.3848 346.879 74.9589 347.142 74.4844 347.327C74.0102 347.51 73.4167 347.603 72.7042 347.603Z" fill="#FFE653"/>
</g>
</g>
</g>
<path d="M64.824 383.02H59.96L59.064 385.5H57.528L61.56 374.412H63.24L67.256 385.5H65.72L64.824 383.02ZM64.408 381.836L62.392 376.204L60.376 381.836H64.408ZM72.5493 385.612C71.8133 385.612 71.1519 385.484 70.5653 385.228C69.9893 384.961 69.5359 384.599 69.2053 384.14C68.8746 383.671 68.7039 383.132 68.6933 382.524H70.2453C70.2986 383.047 70.5119 383.489 70.8853 383.852C71.2693 384.204 71.8239 384.38 72.5493 384.38C73.2426 384.38 73.7866 384.209 74.1813 383.868C74.5866 383.516 74.7893 383.068 74.7893 382.524C74.7893 382.097 74.6719 381.751 74.4373 381.484C74.2026 381.217 73.9093 381.015 73.5573 380.876C73.2053 380.737 72.7306 380.588 72.1333 380.428C71.3973 380.236 70.8053 380.044 70.3573 379.852C69.9199 379.66 69.5413 379.361 69.2213 378.956C68.9119 378.54 68.7573 377.985 68.7573 377.292C68.7573 376.684 68.9119 376.145 69.2213 375.676C69.5306 375.207 69.9626 374.844 70.5173 374.588C71.0826 374.332 71.7279 374.204 72.4533 374.204C73.4986 374.204 74.3519 374.465 75.0133 374.988C75.6853 375.511 76.0639 376.204 76.1493 377.068H74.5493C74.4959 376.641 74.2719 376.268 73.8773 375.948C73.4826 375.617 72.9599 375.452 72.3093 375.452C71.7013 375.452 71.2053 375.612 70.8213 375.932C70.4373 376.241 70.2453 376.679 70.2453 377.244C70.2453 377.649 70.3573 377.98 70.5813 378.236C70.8159 378.492 71.0986 378.689 71.4293 378.828C71.7706 378.956 72.2453 379.105 72.8533 379.276C73.5893 379.479 74.1813 379.681 74.6293 379.884C75.0773 380.076 75.4613 380.38 75.7812 380.796C76.1013 381.201 76.2613 381.756 76.2613 382.46C76.2613 383.004 76.1173 383.516 75.8293 383.996C75.5413 384.476 75.1146 384.865 74.5493 385.164C73.9839 385.463 73.3173 385.612 72.5493 385.612ZM83.4599 385.612C82.4252 385.612 81.4812 385.372 80.6279 384.892C79.7745 384.401 79.0972 383.724 78.5959 382.86C78.1052 381.985 77.8599 381.004 77.8599 379.916C77.8599 378.828 78.1052 377.852 78.5959 376.988C79.0972 376.113 79.7745 375.436 80.6279 374.956C81.4812 374.465 82.4252 374.22 83.4599 374.22C84.5052 374.22 85.4545 374.465 86.3079 374.956C87.1612 375.436 87.8332 376.108 88.3239 376.972C88.8145 377.836 89.0599 378.817 89.0599 379.916C89.0599 381.015 88.8145 381.996 88.3239 382.86C87.8332 383.724 87.1612 384.401 86.3079 384.892C85.4545 385.372 84.5052 385.612 83.4599 385.612ZM83.4599 384.348C84.2385 384.348 84.9372 384.167 85.5559 383.804C86.1852 383.441 86.6759 382.924 87.0279 382.252C87.3905 381.58 87.5719 380.801 87.5719 379.916C87.5719 379.02 87.3905 378.241 87.0279 377.58C86.6759 376.908 86.1905 376.391 85.5719 376.028C84.9532 375.665 84.2492 375.484 83.4599 375.484C82.6705 375.484 81.9665 375.665 81.3479 376.028C80.7292 376.391 80.2385 376.908 79.8759 377.58C79.5239 378.241 79.3479 379.02 79.3479 379.916C79.3479 380.801 79.5239 381.58 79.8759 382.252C80.2385 382.924 80.7292 383.441 81.3479 383.804C81.9772 384.167 82.6812 384.348 83.4599 384.348Z" fill="#F9F9F9"/>
</g>
<defs>
<filter id="filter0_d_525_7363" x="0.5" y="0" width="154" height="444" filterUnits="userSpaceOnUse" color-interpolation-filters="sRGB">
<feFlood flood-opacity="0" result="BackgroundImageFix"/>
<feColorMatrix in="SourceAlpha" type="matrix" values="0 0 0 0 0 0 0 0 0 0 0 0 0 0 0 0 0 0 127 0" result="hardAlpha"/>
<feOffset dx="4"/>
<feGaussianBlur stdDeviation="6"/>
<feComposite in2="hardAlpha" operator="out"/>
<feColorMatrix type="matrix" values="0 0 0 0 0.529412 0 0 0 0 0.517647 0 0 0 0 0.517647 0 0 0 0.3 0"/>
<feBlend mode="normal" in2="BackgroundImageFix" result="effect1_dropShadow_525_7363"/>
<feBlend mode="normal" in="SourceGraphic" in2="effect1_dropShadow_525_7363" result="shape"/>
</filter>
<clipPath id="clip0_525_7363">
<rect width="40" height="40" fill="white" transform="translate(53.5 51.5)"/>
</clipPath>
<clipPath id="clip1_525_7363">
<rect width="40" height="40" fill="white" transform="translate(53.5 51.5)"/>
</clipPath>
<clipPath id="clip2_525_7363">
<rect width="40" height="40" fill="white" transform="translate(53.5 51.5)"/>
</clipPath>
<clipPath id="clip3_525_7363">
<rect width="40" height="40" fill="white" transform="translate(53.5 141.5)"/>
</clipPath>
<clipPath id="clip4_525_7363">
<rect width="40" height="40" fill="white" transform="translate(53.5 141.5)"/>
</clipPath>
<clipPath id="clip5_525_7363">
<rect width="40" height="40" fill="white" transform="translate(53.5 141.5)"/>
</clipPath>
<clipPath id="clip6_525_7363">
<rect width="40" height="40" fill="white" transform="translate(53.5 231.5)"/>
</clipPath>
<clipPath id="clip7_525_7363">
<rect width="40" height="40" fill="white" transform="translate(53.5 231.5)"/>
</clipPath>
<clipPath id="clip8_525_7363">
<rect width="40" height="40" fill="white" transform="translate(53.5 231.5)"/>
</clipPath>
<clipPath id="clip9_525_7363">
<rect width="40" height="40" fill="white" transform="translate(53.5 321.5)"/>
</clipPath>
<clipPath id="clip10_525_7363">
<rect width="40" height="40" fill="white" transform="translate(53.5 321.5)"/>
</clipPath>
<clipPath id="clip11_525_7363">
<rect width="40" height="40" fill="white" transform="translate(53.5 321.5)"/>
</clipPath>
</defs>
</svg>
