<svg width="38" height="105" viewBox="0 0 38 105" fill="none" xmlns="http://www.w3.org/2000/svg">
<path d="M10.8555 85.0474L18.9983 94.095L27.1412 85.0474" stroke="#9C9C9C" stroke-opacity="0.19" stroke-linecap="round" stroke-linejoin="round"/>
<path d="M10.8555 74.1904L18.9983 83.238L27.1412 74.1904" stroke="#9C9C9C" stroke-opacity="0.19" stroke-linecap="round" stroke-linejoin="round"/>
<path d="M18.5 41.6192C18.5 41.8953 18.7239 42.1192 19 42.1192C19.2761 42.1192 19.5 41.8953 19.5 41.6192H18.5ZM18.5 23.5239V41.6192H19.5V23.5239H18.5Z" fill="#9C9C9C" fill-opacity="0.19"/>
<path d="M18.5 10C18.5 10.2761 18.7239 10.5 19 10.5C19.2761 10.5 19.5 10.2761 19.5 10H18.5ZM18.5 0V10H19.5V0L18.5 0Z" fill="#9C9C9C" fill-opacity="0.19"/>
<rect x="0.5" y="0.5" width="37" height="69.5714" rx="18.5" stroke="#9C9C9C" stroke-opacity="0.19"/>
<rect x="15.7852" y="10.3569" width="6.42857" height="13.6667" rx="3.21429" stroke="#9C9C9C" stroke-opacity="0.19"/>
</svg>
