<svg width="142" height="432" viewBox="0 0 142 432" fill="none" xmlns="http://www.w3.org/2000/svg">
<g filter="url(#filter0_d_525_7176)">
<rect x="6" y="6" width="130" height="420" rx="20" fill="black" shape-rendering="crispEdges"/>
<g clip-path="url(#clip0_525_7176)">
<g clip-path="url(#clip1_525_7176)">
<g clip-path="url(#clip2_525_7176)">
<path fill-rule="evenodd" clip-rule="evenodd" d="M77.1199 28.9047C78.2665 28.9047 79.1959 29.8341 79.1959 30.9807C79.1959 32.1273 78.2665 33.0567 77.1199 33.0567C75.9733 33.0567 75.0439 32.1273 75.0439 30.9807C75.0439 29.8341 75.9733 28.9047 77.1199 28.9047ZM64.763 38.4146V37.8958C64.763 37.6112 64.5289 37.377 64.2442 37.377C63.9596 37.377 63.7255 37.6112 63.7255 37.8958C63.7255 38.1804 63.9596 38.4146 64.2442 38.4146H64.763ZM66.8306 38.4146H67.3494C67.634 38.4146 67.8682 38.1804 67.8682 37.8958C67.8682 37.6112 67.634 37.377 67.3494 37.377C67.0648 37.377 66.8306 37.6112 66.8306 37.8958V38.4146ZM66.0869 42.6348V39.1583H65.5068V42.6349L66.0869 42.6348ZM66.8306 39.1583H67.3494C68.0446 39.1583 68.6119 38.5909 68.6119 37.8958C68.6119 37.2005 68.0445 36.6333 67.3494 36.6333C66.6541 36.6333 66.0869 37.2007 66.0869 37.8958V38.4146H65.5068V37.8958C65.5068 37.2005 64.9394 36.6333 64.2443 36.6333C63.549 36.6333 62.9818 37.2007 62.9818 37.8958C62.9818 38.591 63.5492 39.1583 64.2443 39.1583H64.7631V42.6349H63.4796C63.2141 39.8756 61.9638 39.9082 61.9638 37.8675C61.9638 35.7506 63.6798 34.0345 65.7965 34.0345C67.9134 34.0345 69.6296 35.7505 69.6296 37.8675C69.6296 39.9086 68.3796 39.8757 68.114 42.6349H66.8305L66.8306 39.1583ZM65.7884 29.5526L66.1784 29.9426C66.2419 30.0061 66.2628 30.0938 66.235 30.1792C66.2071 30.2645 66.1382 30.323 66.0496 30.3365L63.5334 30.7232C63.4605 30.7346 63.393 30.7137 63.3391 30.6632C63.2852 30.6127 63.2601 30.5468 63.2667 30.4731L63.5033 27.8069C63.5114 27.7147 63.5686 27.6407 63.6555 27.6092C63.7425 27.5777 63.8338 27.5978 63.8991 27.6635L64.234 27.9984C66.752 25.4804 70.2645 25.9564 71.436 27.959C71.4569 27.9947 71.4523 28.0378 71.4246 28.0683C71.3967 28.0991 71.3539 28.1074 71.3163 28.0899C69.2817 27.1366 66.6753 28.666 65.7884 29.5526ZM76.2118 40.765L75.6788 40.6222C75.5921 40.5991 75.5301 40.5333 75.5116 40.4456C75.4932 40.3577 75.5237 40.2727 75.5936 40.2165L77.5793 38.6236C77.6369 38.5772 77.706 38.5617 77.7776 38.5785C77.8495 38.5954 77.9042 38.6399 77.9354 38.7068L79.0635 41.1342C79.1024 41.218 79.09 41.3108 79.0307 41.3817C78.9713 41.4525 78.8819 41.4807 78.7926 41.4568L78.3349 41.3341C77.4131 44.7738 74.1335 46.1175 72.1175 44.969C72.0815 44.9486 72.064 44.909 72.0726 44.8686C72.0815 44.8281 72.1142 44.7992 72.1556 44.7957C74.3946 44.6041 75.8874 41.976 76.2118 40.765ZM70.9881 35.9503C70.8108 36.0522 70.5844 35.9909 70.4825 35.8139C70.3805 35.6367 70.4419 35.4103 70.6188 35.3083L71.4007 34.857C71.5779 34.7551 71.8043 34.8164 71.9063 34.9934C72.0082 35.1707 71.9468 35.3971 71.7699 35.499L70.9881 35.9503ZM69.0084 33.6976C68.9065 33.8749 68.6801 33.936 68.5028 33.834C68.3255 33.732 68.2643 33.5056 68.3664 33.3283L68.8177 32.5465C68.9196 32.3692 69.146 32.3081 69.323 32.4101C69.5003 32.512 69.5614 32.7385 69.4594 32.9158L69.0084 33.6976ZM60.9752 35.3084C61.1525 35.4111 61.2128 35.6382 61.1104 35.8151C61.0077 35.9924 60.7806 36.0527 60.6036 35.9503L59.8218 35.499C59.6445 35.3963 59.5842 35.1692 59.6866 34.9922C59.7893 34.815 60.0164 34.7546 60.1933 34.857L60.9752 35.3084ZM63.2265 33.3287C63.3284 33.5059 63.267 33.7323 63.0901 33.8343C62.9128 33.9362 62.6864 33.8748 62.5845 33.6979L62.1332 32.9161C62.0312 32.7388 62.0926 32.5124 62.2695 32.4105C62.4468 32.3085 62.6732 32.3699 62.7751 32.5468L63.2265 33.3287ZM66.1684 32.7386C66.1684 32.9439 66.002 33.1105 65.7965 33.1105C65.5912 33.1105 65.4247 32.9441 65.4247 32.7386V31.8356C65.4247 31.6303 65.591 31.4637 65.7965 31.4637C66.0018 31.4637 66.1684 31.6301 66.1684 31.8356V32.7386ZM66.8443 45.1259V45.377C66.8443 45.7195 66.5642 45.9999 66.2215 45.9999H65.4133C65.0708 45.9999 64.7904 45.7197 64.7904 45.377V45.1259H64.7744C64.4319 45.1259 64.1516 44.8457 64.1516 44.503V44.2519H64.1306C63.7881 44.2519 63.5078 43.9717 63.5078 43.629V43.3779H68.0852V43.629C68.0852 43.9646 67.8162 44.2405 67.4831 44.2516V44.503C67.4831 44.8455 67.203 45.1259 66.8603 45.1259H66.8443ZM78.0643 27.2962L77.8223 25.7832H76.4175L76.1754 27.2962C75.8223 27.3866 75.489 27.5262 75.1835 27.7075L73.9421 26.8086L72.9487 27.802L73.8476 29.0435C73.6664 29.3491 73.5267 29.6824 73.4363 30.0354L71.9233 30.2776V31.6824L73.4363 31.9247C73.5267 32.2776 73.6664 32.6107 73.8476 32.9166L72.9487 34.1581L73.9421 35.1515L75.1837 34.2526C75.4892 34.4339 75.8225 34.5737 76.1755 34.6639L76.4176 36.1769H77.8224L78.0647 34.6639C78.4176 34.5735 78.7507 34.4339 79.0566 34.2526L80.2981 35.1515L81.2915 34.1581L80.3926 32.9166C80.5738 32.611 80.7137 32.2777 80.8039 31.9247L82.3169 31.6826V30.2778L80.8039 30.0357C80.7135 29.6828 80.5738 29.3497 80.3926 29.0438L81.2915 27.8023L80.2981 26.8089L79.0566 27.7078C78.7505 27.5261 78.4172 27.3862 78.0643 27.2962Z" fill="#89C6D3"/>
<path d="M71.0039 55.5C81.7735 55.5 90.5039 46.7696 90.5039 36C90.5039 25.2304 81.7735 16.5 71.0039 16.5C60.2344 16.5 51.5039 25.2304 51.5039 36C51.5039 46.7696 60.2344 55.5 71.0039 55.5Z" stroke="#606060" stroke-dasharray="6 6"/>
</g>
</g>
</g>
<path d="M26.6079 80L23.9519 75.44H22.1919V80H20.7359V68.848H24.3359C25.1786 68.848 25.8879 68.992 26.4639 69.28C27.0506 69.568 27.4879 69.9573 27.7759 70.448C28.0639 70.9387 28.2079 71.4987 28.2079 72.128C28.2079 72.896 27.9839 73.5733 27.5359 74.16C27.0986 74.7467 26.4372 75.136 25.5519 75.328L28.3519 80H26.6079ZM22.1919 74.272H24.3359C25.1252 74.272 25.7172 74.08 26.1119 73.696C26.5066 73.3013 26.7039 72.7787 26.7039 72.128C26.7039 71.4667 26.5066 70.9547 26.1119 70.592C25.7279 70.2293 25.1359 70.048 24.3359 70.048H22.1919V74.272ZM38.4703 75.28C38.4703 75.5573 38.4543 75.8507 38.4223 76.16H31.4143C31.4676 77.024 31.7609 77.7013 32.2943 78.192C32.8383 78.672 33.4943 78.912 34.2623 78.912C34.8916 78.912 35.4143 78.768 35.8303 78.48C36.2569 78.1813 36.5556 77.7867 36.7263 77.296H38.2943C38.0596 78.1387 37.5903 78.8267 36.8863 79.36C36.1823 79.8827 35.3076 80.144 34.2623 80.144C33.4303 80.144 32.6836 79.9573 32.0223 79.584C31.3716 79.2107 30.8596 78.6827 30.4863 78C30.1129 77.3067 29.9263 76.5067 29.9263 75.6C29.9263 74.6933 30.1076 73.8987 30.4703 73.216C30.8329 72.5333 31.3396 72.0107 31.9903 71.648C32.6516 71.2747 33.4089 71.088 34.2623 71.088C35.0943 71.088 35.8303 71.2693 36.4703 71.632C37.1103 71.9947 37.6009 72.496 37.9423 73.136C38.2943 73.7653 38.4703 74.48 38.4703 75.28ZM36.9663 74.976C36.9663 74.4213 36.8436 73.9467 36.5983 73.552C36.3529 73.1467 36.0169 72.8427 35.5903 72.64C35.1743 72.4267 34.7103 72.32 34.1983 72.32C33.4623 72.32 32.8329 72.5547 32.3103 73.024C31.7983 73.4933 31.5049 74.144 31.4303 74.976H36.9663ZM39.8482 75.584C39.8482 74.688 40.0295 73.904 40.3922 73.232C40.7548 72.5493 41.2508 72.0213 41.8802 71.648C42.5202 71.2747 43.2348 71.088 44.0242 71.088C44.7815 71.088 45.4428 71.2587 46.0082 71.6C46.5842 71.9307 47.0055 72.3413 47.2722 72.832V71.232H48.7442V84.16H47.2722V78.384C46.9948 78.8747 46.5682 79.2907 45.9922 79.632C45.4162 79.9733 44.7442 80.144 43.9762 80.144C43.2082 80.144 42.5095 79.952 41.8802 79.568C41.2508 79.184 40.7548 78.6453 40.3922 77.952C40.0295 77.2587 39.8482 76.4693 39.8482 75.584ZM47.2722 75.6C47.2722 74.9387 47.1388 74.3627 46.8722 73.872C46.6055 73.3813 46.2428 73.008 45.7842 72.752C45.3362 72.4853 44.8402 72.352 44.2962 72.352C43.7522 72.352 43.2562 72.48 42.8082 72.736C42.3602 72.992 42.0028 73.3653 41.7362 73.856C41.4695 74.3467 41.3362 74.9227 41.3362 75.584C41.3362 76.256 41.4695 76.8427 41.7362 77.344C42.0028 77.8347 42.3602 78.2133 42.8082 78.48C43.2562 78.736 43.7522 78.864 44.2962 78.864C44.8402 78.864 45.3362 78.736 45.7842 78.48C46.2428 78.2133 46.6055 77.8347 46.8722 77.344C47.1388 76.8427 47.2722 76.2613 47.2722 75.6ZM58.9807 71.232V80H57.5247V78.704C57.2473 79.152 56.858 79.504 56.3567 79.76C55.866 80.0053 55.322 80.128 54.7247 80.128C54.042 80.128 53.4287 79.9893 52.8847 79.712C52.3407 79.424 51.9087 78.9973 51.5887 78.432C51.2793 77.8667 51.1247 77.1787 51.1247 76.368V71.232H52.5647V76.176C52.5647 77.04 52.7833 77.7067 53.2207 78.176C53.658 78.6347 54.2553 78.864 55.0127 78.864C55.7913 78.864 56.4047 78.624 56.8527 78.144C57.3007 77.664 57.5247 76.9653 57.5247 76.048V71.232H58.9807ZM62.191 69.808C61.9137 69.808 61.679 69.712 61.487 69.52C61.295 69.328 61.199 69.0933 61.199 68.816C61.199 68.5387 61.295 68.304 61.487 68.112C61.679 67.92 61.9137 67.824 62.191 67.824C62.4577 67.824 62.6817 67.92 62.863 68.112C63.055 68.304 63.151 68.5387 63.151 68.816C63.151 69.0933 63.055 69.328 62.863 69.52C62.6817 69.712 62.4577 69.808 62.191 69.808ZM62.895 71.232V80H61.439V71.232H62.895ZM66.8325 72.656C67.0885 72.1547 67.4512 71.7653 67.9205 71.488C68.4005 71.2107 68.9819 71.072 69.6645 71.072V72.576H69.2805C67.6485 72.576 66.8325 73.4613 66.8325 75.232V80H65.3765V71.232H66.8325V72.656ZM79.3453 75.28C79.3453 75.5573 79.3293 75.8507 79.2973 76.16H72.2893C72.3426 77.024 72.6359 77.7013 73.1693 78.192C73.7133 78.672 74.3693 78.912 75.1373 78.912C75.7666 78.912 76.2893 78.768 76.7053 78.48C77.1319 78.1813 77.4306 77.7867 77.6013 77.296H79.1693C78.9346 78.1387 78.4653 78.8267 77.7613 79.36C77.0573 79.8827 76.1826 80.144 75.1373 80.144C74.3053 80.144 73.5586 79.9573 72.8973 79.584C72.2466 79.2107 71.7346 78.6827 71.3613 78C70.9879 77.3067 70.8013 76.5067 70.8013 75.6C70.8013 74.6933 70.9826 73.8987 71.3453 73.216C71.7079 72.5333 72.2146 72.0107 72.8653 71.648C73.5266 71.2747 74.2839 71.088 75.1373 71.088C75.9693 71.088 76.7053 71.2693 77.3453 71.632C77.9853 71.9947 78.4759 72.496 78.8173 73.136C79.1693 73.7653 79.3453 74.48 79.3453 75.28ZM77.8413 74.976C77.8413 74.4213 77.7186 73.9467 77.4733 73.552C77.2279 73.1467 76.8919 72.8427 76.4653 72.64C76.0493 72.4267 75.5853 72.32 75.0733 72.32C74.3373 72.32 73.7079 72.5547 73.1853 73.024C72.6733 73.4933 72.3799 74.144 72.3053 74.976H77.8413ZM91.8112 71.072C92.4938 71.072 93.1018 71.216 93.6352 71.504C94.1685 71.7813 94.5898 72.2027 94.8992 72.768C95.2085 73.3333 95.3632 74.0213 95.3632 74.832V80H93.9232V75.04C93.9232 74.1653 93.7045 73.4987 93.2672 73.04C92.8405 72.5707 92.2592 72.336 91.5232 72.336C90.7658 72.336 90.1632 72.5813 89.7152 73.072C89.2672 73.552 89.0432 74.2507 89.0432 75.168V80H87.6032V75.04C87.6032 74.1653 87.3845 73.4987 86.9472 73.04C86.5205 72.5707 85.9392 72.336 85.2032 72.336C84.4458 72.336 83.8432 72.5813 83.3952 73.072C82.9472 73.552 82.7232 74.2507 82.7232 75.168V80H81.2672V71.232H82.7232V72.496C83.0112 72.0373 83.3952 71.6853 83.8752 71.44C84.3658 71.1947 84.9045 71.072 85.4912 71.072C86.2272 71.072 86.8778 71.2373 87.4432 71.568C88.0085 71.8987 88.4298 72.384 88.7072 73.024C88.9525 72.4053 89.3578 71.9253 89.9232 71.584C90.4885 71.2427 91.1178 71.072 91.8112 71.072ZM105.752 75.28C105.752 75.5573 105.736 75.8507 105.704 76.16H98.6955C98.7489 77.024 99.0422 77.7013 99.5755 78.192C100.12 78.672 100.776 78.912 101.544 78.912C102.173 78.912 102.696 78.768 103.112 78.48C103.538 78.1813 103.837 77.7867 104.008 77.296H105.576C105.341 78.1387 104.872 78.8267 104.168 79.36C103.464 79.8827 102.589 80.144 101.544 80.144C100.712 80.144 99.9649 79.9573 99.3035 79.584C98.6529 79.2107 98.1409 78.6827 97.7675 78C97.3942 77.3067 97.2075 76.5067 97.2075 75.6C97.2075 74.6933 97.3889 73.8987 97.7515 73.216C98.1142 72.5333 98.6209 72.0107 99.2715 71.648C99.9329 71.2747 100.69 71.088 101.544 71.088C102.376 71.088 103.112 71.2693 103.752 71.632C104.392 71.9947 104.882 72.496 105.224 73.136C105.576 73.7653 105.752 74.48 105.752 75.28ZM104.248 74.976C104.248 74.4213 104.125 73.9467 103.88 73.552C103.634 73.1467 103.298 72.8427 102.872 72.64C102.456 72.4267 101.992 72.32 101.48 72.32C100.744 72.32 100.114 72.5547 99.5915 73.024C99.0795 73.4933 98.7862 74.144 98.7115 74.976H104.248ZM111.945 71.072C113.012 71.072 113.876 71.3973 114.537 72.048C115.199 72.688 115.529 73.616 115.529 74.832V80H114.089V75.04C114.089 74.1653 113.871 73.4987 113.433 73.04C112.996 72.5707 112.399 72.336 111.641 72.336C110.873 72.336 110.26 72.576 109.801 73.056C109.353 73.536 109.129 74.2347 109.129 75.152V80H107.673V71.232H109.129V72.48C109.417 72.032 109.807 71.6853 110.297 71.44C110.799 71.1947 111.348 71.072 111.945 71.072ZM119.684 72.432V77.6C119.684 78.0267 119.774 78.3307 119.956 78.512C120.137 78.6827 120.452 78.768 120.9 78.768H121.972V80H120.66C119.849 80 119.241 79.8133 118.836 79.44C118.43 79.0667 118.228 78.4533 118.228 77.6V72.432H117.092V71.232H118.228V69.024H119.684V71.232H121.972V72.432H119.684Z" fill="#F9F9F9"/>
<g clip-path="url(#clip3_525_7176)">
<g clip-path="url(#clip4_525_7176)">
<g clip-path="url(#clip5_525_7176)">
<path d="M71.0039 163.5C81.7735 163.5 90.5039 154.77 90.5039 144C90.5039 133.23 81.7735 124.5 71.0039 124.5C60.2344 124.5 51.5039 133.23 51.5039 144C51.5039 154.77 60.2344 163.5 71.0039 163.5Z" stroke="#606060" stroke-dasharray="6 6"/>
<path d="M76.708 144.868L76.0262 144.621C75.9611 144.598 75.9179 144.536 75.9179 144.467V144.332C75.8087 144.383 75.6993 144.429 75.5898 144.469V145.38C75.813 145.454 76.0749 145.554 76.362 145.689C76.5658 145.441 76.6839 145.161 76.708 144.868Z" fill="#FFDAC0"/>
<path d="M76.2461 144.352L76.713 144.521V142.196L76.2461 142.027V144.352Z" fill="#FFDAC0"/>
<path d="M78.5099 139.204C78.6486 138.641 79.049 136.728 78.4739 135.364C77.8313 133.84 76.3986 133 74.4399 133C72.2405 133 71.8343 134.057 71.7952 134.178C71.6597 134.595 71.6243 135.14 72.3879 136.016C73.1203 136.857 76.2717 138.492 78.5099 139.204Z" fill="#FFDAC0"/>
<path d="M78.2508 140.417C78.2051 140.295 78.1485 140.178 78.0815 140.071C78.066 140.046 78.0529 140.02 78.0418 139.994L76.3711 141.727L76.8284 141.892L78.2508 140.417Z" fill="#FFDAC0"/>
<path d="M77.6789 142.71C77.81 142.209 77.988 141.96 78.131 141.76C78.2213 141.634 78.2926 141.535 78.3379 141.395C78.3918 141.23 78.394 141.012 78.3535 140.785L77.0391 142.148V144.349L77.5657 143.803C77.5964 143.271 77.6349 142.878 77.6789 142.71Z" fill="#FFDAC0"/>
<path d="M77.5412 144.301L77.0377 144.823C77.0234 145.186 76.8942 145.532 76.6602 145.839C76.9246 145.978 77.2044 146.148 77.4907 146.351C77.498 145.611 77.5156 144.9 77.5412 144.301Z" fill="#FFDAC0"/>
<path d="M75.9184 141.795C75.9184 141.753 75.9344 141.713 75.9643 141.682L78.1391 139.427C76.2288 138.775 73.5619 137.463 72.4551 136.531C72.2588 137.021 71.9049 137.414 71.5604 137.795C71.0738 138.334 70.6141 138.844 70.582 139.597C70.7048 140.844 70.9752 141.916 71.3059 142.467C71.7437 143.197 72.9826 144.354 74.4434 144.354C74.9284 144.354 75.4242 144.225 75.9185 143.969L75.9184 141.795ZM72.8044 139.934C72.7099 139.934 72.6251 139.894 72.5654 139.83C72.5619 139.83 72.5585 139.83 72.555 139.83C72.4169 139.83 72.2757 139.8 72.1851 139.746C72.1074 139.7 72.0818 139.599 72.128 139.521C72.1743 139.444 72.2749 139.418 72.3526 139.464C72.3863 139.484 72.4362 139.496 72.4881 139.501C72.4384 139.463 72.3962 139.416 72.3638 139.36C72.3183 139.282 72.345 139.182 72.4232 139.136C72.5015 139.091 72.6018 139.118 72.6473 139.196C72.6767 139.247 72.7293 139.274 72.8033 139.278C72.8075 139.278 72.8125 139.279 72.8166 139.279C72.8187 139.279 72.8207 139.279 72.8228 139.279C72.8231 139.279 72.8233 139.279 72.8238 139.279C72.8331 139.28 72.8422 139.281 72.8512 139.282C72.8532 139.282 72.8553 139.282 72.8574 139.283C73.0131 139.308 73.1319 139.443 73.1319 139.606C73.1321 139.787 72.9853 139.934 72.8044 139.934ZM73.2799 137.913C73.2643 138.002 73.1795 138.062 73.0905 138.047C73.0838 138.045 72.6573 137.976 72.3621 138.184C72.3333 138.205 72.3004 138.214 72.2678 138.214C72.2163 138.214 72.1656 138.19 72.1337 138.145C72.0815 138.071 72.0992 137.969 72.1733 137.916C72.5822 137.628 73.1241 137.72 73.147 137.724C73.2361 137.739 73.2956 137.824 73.2799 137.913ZM75.0152 140.826C74.8263 140.88 74.6339 140.907 74.4433 140.907C74.2526 140.907 74.0602 140.88 73.8713 140.826C73.633 140.759 73.4941 140.51 73.5614 140.271C73.6159 140.079 73.7936 139.944 73.9938 139.944C74.0354 139.944 74.0768 139.95 74.1168 139.961C74.2251 139.992 74.3347 140.008 74.4433 140.008C74.5518 140.008 74.6619 139.992 74.7706 139.961C74.8102 139.95 74.8512 139.944 74.8928 139.944C75.0935 139.944 75.2714 140.079 75.3255 140.272C75.3928 140.51 75.2535 140.758 75.0152 140.826ZM75.7544 139.606C75.7544 139.443 75.8734 139.308 76.029 139.283C76.031 139.282 76.033 139.282 76.0351 139.282C76.0442 139.281 76.0534 139.28 76.0626 139.279C76.0629 139.279 76.0632 139.279 76.0636 139.279C76.0657 139.279 76.0676 139.279 76.0697 139.279C76.0739 139.279 76.078 139.278 76.0822 139.278C76.1562 139.274 76.2097 139.247 76.2391 139.196C76.2844 139.118 76.3849 139.091 76.4632 139.136C76.5414 139.182 76.5681 139.282 76.5226 139.36C76.4904 139.416 76.448 139.463 76.3983 139.501C76.4502 139.496 76.5001 139.484 76.5338 139.464C76.6115 139.418 76.712 139.444 76.7584 139.521C76.8047 139.599 76.7792 139.7 76.7013 139.746C76.6106 139.8 76.4694 139.83 76.3313 139.83C76.3278 139.83 76.3245 139.83 76.321 139.83C76.2612 139.894 76.1763 139.934 76.082 139.934C75.9012 139.934 75.7544 139.787 75.7544 139.606Z" fill="#FFDAC0"/>
<path d="M71.3166 137.574C71.6863 137.164 72.0363 136.776 72.1945 136.287C72.1768 136.268 72.1596 136.249 72.1436 136.231C71.4177 135.398 71.3317 134.808 71.4177 134.342C70.5046 134.605 69.8481 135.602 69.654 136.527C69.4601 137.451 69.6535 138.664 70.2867 139.284C70.4144 138.574 70.8721 138.066 71.3166 137.574Z" fill="#FFDAC0"/>
<path d="M73.6214 144.572L73.6211 145.43L74.441 146.194L75.261 145.43V144.573C74.9867 144.645 74.7128 144.681 74.441 144.681C74.159 144.681 73.8847 144.641 73.6214 144.572Z" fill="#FFDAC0"/>
<path d="M79.4028 141.069C79.3125 141.075 79.2344 141.007 79.2283 140.917C79.2157 140.729 79.1501 140.189 79 139.948C78.9368 139.846 78.8294 139.732 78.6895 139.618C78.598 139.543 78.4651 139.553 78.3872 139.64C78.3226 139.712 78.3122 139.818 78.3622 139.897C78.6708 140.39 78.7922 141.062 78.6508 141.496C78.5897 141.684 78.4969 141.814 78.3987 141.951C78.2648 142.138 78.1129 142.35 77.9971 142.793C77.8392 143.396 77.7485 147.597 77.8786 149.952C77.9944 150.083 78.4944 150.574 79.4617 150.487C80.4172 150.402 80.7762 149.809 80.8561 149.65C80.5782 148.054 79.9714 145.331 79.7485 144.343C79.6532 143.921 79.7493 143.482 80.012 143.139C80.2877 142.779 80.4829 142.449 80.5765 142.184C80.853 141.401 80.6424 140.31 80.5712 139.995C80.4172 139.312 80.1477 138.904 79.8501 138.904C79.7129 138.904 79.62 139.019 79.5688 139.108C79.6838 139.207 79.8054 139.349 79.9299 139.549C80.2065 139.993 80.2097 140.686 80.2097 140.715C80.2097 140.806 80.1363 140.879 80.0458 140.879C79.9553 140.879 79.8819 140.806 79.8819 140.715C79.8819 140.709 79.8782 140.086 79.6515 139.722C79.441 139.383 79.2198 139.204 79.0441 139.23C78.9819 139.239 78.9211 139.286 78.8701 139.344C78.8791 139.35 78.8881 139.356 78.8966 139.363C79.0667 139.502 79.1952 139.64 79.2786 139.775C79.5025 140.135 79.5533 140.864 79.5554 140.895C79.5614 140.985 79.493 141.063 79.4028 141.069Z" fill="#FFDAC0"/>
<path d="M69.9314 141.044C70.0633 141.405 70.3449 141.665 70.646 141.724C70.4852 141.195 70.3583 140.545 70.2775 139.822C69.9055 140.016 69.7497 140.547 69.9314 141.044Z" fill="#FFDAC0"/>
<path d="M72.5226 145.691C72.8051 145.558 73.0664 145.458 73.2952 145.383L73.2954 144.471C72.9702 144.353 72.6662 144.191 72.3901 144.008C72.247 144.241 72.1719 144.497 72.1719 144.756C72.1718 145.09 72.2929 145.411 72.5226 145.691Z" fill="#FFDAC0"/>
<path d="M63.3438 149.527H66.3256V153H63.3438V149.527Z" fill="#FFDAC0"/>
<path d="M64.3027 146.927C64.3027 146.757 64.1646 146.619 63.9952 146.619C63.8256 146.619 63.6875 146.757 63.6875 146.927V147.446H64.3027V146.927Z" fill="#FFDAC0"/>
<path d="M67.3054 152.013C68.8017 152.031 70.0207 152.272 71.0929 152.766C70.7493 152.302 70.2355 151.953 69.5578 151.725C68.7744 151.462 67.7959 151.365 66.6484 151.437V153H70.8117C69.8166 152.569 68.683 152.357 67.3019 152.341C67.2113 152.34 67.1388 152.266 67.1399 152.175C67.1409 152.085 67.2146 152.012 67.3054 152.013Z" fill="#FFDAC0"/>
<path d="M73.2937 148.035C73.2937 147.537 73.4844 147.085 73.8308 146.762L74.2005 146.417L73.4157 145.686C72.2614 146.062 69.6885 147.311 68.4453 151.149C68.8885 151.203 69.2952 151.292 69.6627 151.415C69.9907 151.525 70.2835 151.663 70.5423 151.825V150.427C70.5423 150.336 70.6157 150.263 70.7062 150.263C70.7968 150.263 70.8701 150.336 70.8701 150.427V152.061C71.1321 152.276 71.3477 152.525 71.5145 152.808C71.8827 152.185 72.4848 151.726 73.294 151.439L73.2937 148.035Z" fill="#FFDAC0"/>
<path d="M63.6875 148.543H64.3027V149.201H63.6875V148.543Z" fill="#FFDAC0"/>
<path d="M65.4492 147.773H66.0643V149.2H65.4492V147.773Z" fill="#FFDAC0"/>
<path d="M80.9335 150.117C80.6925 150.4 80.2485 150.747 79.4918 150.814C79.4041 150.822 79.3194 150.826 79.2382 150.826C78.6133 150.826 78.1764 150.61 77.9102 150.416C77.9452 150.865 77.9912 151.211 78.0495 151.395C78.3637 152.385 78.926 152.791 79.7686 152.636C80.676 152.469 80.9994 151.544 80.9994 150.733C80.9994 150.608 80.9752 150.394 80.9335 150.117Z" fill="#FFDAC0"/>
<path d="M77.4867 146.756C76.7158 146.17 75.979 145.852 75.4656 145.686L74.054 147.002C73.7749 147.262 73.6211 147.629 73.6211 148.035V151.335C74.5762 151.068 75.7798 151.012 77.1941 151.182C77.2813 151.193 77.3447 151.27 77.3379 151.358L77.21 153H78.0113V152.137C77.904 151.952 77.8116 151.737 77.734 151.493C77.5461 150.901 77.4775 148.777 77.4867 146.756ZM74.479 150.529C74.2788 150.529 74.1166 150.366 74.1166 150.166C74.1166 149.966 74.2789 149.804 74.479 149.804C74.6792 149.804 74.8413 149.966 74.8413 150.166C74.8414 150.366 74.6791 150.529 74.479 150.529ZM74.479 148.296C74.2788 148.296 74.1166 148.134 74.1166 147.934C74.1166 147.734 74.2789 147.572 74.479 147.572C74.6792 147.572 74.8413 147.734 74.8413 147.934C74.8414 148.134 74.6791 148.296 74.479 148.296Z" fill="#FFDAC0"/>
<path d="M71.9339 152.769C73.1368 152.214 74.5384 151.975 76.2922 152.019C76.3826 152.021 76.4541 152.096 76.4519 152.187C76.4497 152.277 76.3745 152.35 76.2839 152.346C74.653 152.305 73.3411 152.515 72.2167 153.001H76.8839L77.0016 151.491C75.4544 151.323 72.9971 151.321 71.9339 152.769Z" fill="#FFDAC0"/>
<path d="M63.6875 147.773H64.3027V148.214H63.6875V147.773Z" fill="#FFDAC0"/>
<path d="M66.0643 146.927C66.0643 146.757 65.9263 146.619 65.7567 146.619C65.5871 146.619 65.4492 146.757 65.4492 146.927V147.446H66.0643V146.927Z" fill="#FFDAC0"/>
<path d="M66.0991 137.757C66.1099 137.754 66.121 137.754 66.1318 137.754C66.1649 137.754 66.1975 137.764 66.2252 137.783L67.488 138.658L67.267 137.504C67.2534 137.433 67.2885 137.361 67.3534 137.327C68.2693 136.86 68.7944 136.172 68.7944 135.44C68.7944 134.097 67.0469 133.004 64.899 133.004C62.7512 133.004 61.0039 134.097 61.0039 135.44C61.0039 136.783 62.7513 137.876 64.8993 137.876C65.3085 137.876 65.712 137.836 66.0991 137.757ZM66.961 135.026C67.1892 135.026 67.3742 135.211 67.3742 135.44C67.3742 135.668 67.1892 135.853 66.961 135.853C66.7327 135.853 66.5477 135.668 66.5477 135.44C66.5477 135.212 66.7327 135.026 66.961 135.026ZM62.8377 135.853C62.6094 135.853 62.4245 135.668 62.4245 135.44C62.4245 135.212 62.6094 135.027 62.8377 135.027C63.0659 135.027 63.2509 135.212 63.2509 135.44C63.2509 135.668 63.0659 135.853 62.8377 135.853ZM64.4861 135.44C64.4861 135.212 64.6711 135.027 64.8994 135.027C65.1276 135.027 65.3126 135.212 65.3126 135.44C65.3126 135.668 65.1276 135.853 64.8994 135.853C64.6711 135.853 64.4861 135.668 64.4861 135.44Z" fill="#FFDAC0"/>
<path d="M65.9477 145.595C67.5384 145.595 68.9487 144.971 69.301 144.112C69.3186 144.069 69.3534 144.036 69.3971 144.02L70.2604 143.709L69.4123 143.422C69.366 143.406 69.3292 143.371 69.3117 143.325C68.9786 142.45 67.5637 141.814 65.9476 141.814C65.0141 141.814 64.1389 142.02 63.4834 142.394C62.8568 142.752 62.5117 143.217 62.5117 143.705C62.5117 144.192 62.8568 144.657 63.4834 145.015C64.1391 145.389 65.0142 145.595 65.9477 145.595ZM68.0094 143.292C68.2376 143.292 68.4226 143.477 68.4226 143.705C68.4226 143.933 68.2376 144.118 68.0094 144.118C67.7812 144.118 67.5962 143.933 67.5962 143.705C67.5962 143.477 67.7812 143.292 68.0094 143.292ZM65.9477 143.292C66.1759 143.292 66.3609 143.477 66.3609 143.705C66.3609 143.933 66.1759 144.118 65.9477 144.118C65.7194 144.118 65.5345 143.933 65.5345 143.705C65.5345 143.477 65.7194 143.292 65.9477 143.292ZM63.886 143.292C64.1142 143.292 64.2992 143.477 64.2992 143.705C64.2992 143.933 64.1142 144.118 63.886 144.118C63.6577 144.118 63.4727 143.933 63.4727 143.705C63.4727 143.477 63.6577 143.292 63.886 143.292Z" fill="#FFDAC0"/>
<path d="M66.7755 148.119V148.846C66.7755 148.937 66.849 149.01 66.9395 149.01C67.0301 149.01 67.1036 148.937 67.1036 148.846V148.119C67.1036 147.748 66.8012 147.445 66.4297 147.445C66.3391 147.445 66.2656 147.519 66.2656 147.609C66.2656 147.7 66.3391 147.773 66.4297 147.773C66.6203 147.773 66.7755 147.929 66.7755 148.119Z" fill="#FFDAC0"/>
</g>
</g>
</g>
<path d="M28.1919 182.416C28.1919 181.328 28.4372 180.352 28.9279 179.488C29.4186 178.613 30.0852 177.931 30.9279 177.44C31.7812 176.949 32.7252 176.704 33.7599 176.704C34.9759 176.704 36.0372 176.997 36.9439 177.584C37.8506 178.171 38.5119 179.003 38.9279 180.08H37.1839C36.8746 179.408 36.4266 178.891 35.8399 178.528C35.2639 178.165 34.5706 177.984 33.7599 177.984C32.9812 177.984 32.2826 178.165 31.6639 178.528C31.0452 178.891 30.5599 179.408 30.2079 180.08C29.8559 180.741 29.6799 181.52 29.6799 182.416C29.6799 183.301 29.8559 184.08 30.2079 184.752C30.5599 185.413 31.0452 185.925 31.6639 186.288C32.2826 186.651 32.9812 186.832 33.7599 186.832C34.5706 186.832 35.2639 186.656 35.8399 186.304C36.4266 185.941 36.8746 185.424 37.1839 184.752H38.9279C38.5119 185.819 37.8506 186.645 36.9439 187.232C36.0372 187.808 34.9759 188.096 33.7599 188.096C32.7252 188.096 31.7812 187.856 30.9279 187.376C30.0852 186.885 29.4186 186.208 28.9279 185.344C28.4372 184.48 28.1919 183.504 28.1919 182.416ZM44.9193 188.144C44.0979 188.144 43.3513 187.957 42.6793 187.584C42.0179 187.211 41.4953 186.683 41.1113 186C40.7379 185.307 40.5513 184.507 40.5513 183.6C40.5513 182.704 40.7433 181.915 41.1273 181.232C41.5219 180.539 42.0553 180.011 42.7273 179.648C43.3993 179.275 44.1513 179.088 44.9833 179.088C45.8153 179.088 46.5673 179.275 47.2393 179.648C47.9113 180.011 48.4393 180.533 48.8233 181.216C49.2179 181.899 49.4153 182.693 49.4153 183.6C49.4153 184.507 49.2126 185.307 48.8073 186C48.4126 186.683 47.8739 187.211 47.1913 187.584C46.5086 187.957 45.7513 188.144 44.9193 188.144ZM44.9193 186.864C45.4419 186.864 45.9326 186.741 46.3913 186.496C46.8499 186.251 47.2179 185.883 47.4953 185.392C47.7833 184.901 47.9273 184.304 47.9273 183.6C47.9273 182.896 47.7886 182.299 47.5113 181.808C47.2339 181.317 46.8713 180.955 46.4233 180.72C45.9753 180.475 45.4899 180.352 44.9673 180.352C44.4339 180.352 43.9433 180.475 43.4953 180.72C43.0579 180.955 42.7059 181.317 42.4393 181.808C42.1726 182.299 42.0393 182.896 42.0393 183.6C42.0393 184.315 42.1673 184.917 42.4233 185.408C42.6899 185.899 43.0419 186.267 43.4793 186.512C43.9166 186.747 44.3966 186.864 44.9193 186.864ZM55.6017 179.072C56.6683 179.072 57.5323 179.397 58.1937 180.048C58.855 180.688 59.1857 181.616 59.1857 182.832V188H57.7457V183.04C57.7457 182.165 57.527 181.499 57.0897 181.04C56.6523 180.571 56.055 180.336 55.2977 180.336C54.5297 180.336 53.9163 180.576 53.4577 181.056C53.0097 181.536 52.7857 182.235 52.7857 183.152V188H51.3297V179.232H52.7857V180.48C53.0737 180.032 53.463 179.685 53.9537 179.44C54.455 179.195 55.0043 179.072 55.6017 179.072ZM64.668 188.144C63.996 188.144 63.3934 188.032 62.86 187.808C62.3267 187.573 61.9054 187.253 61.596 186.848C61.2867 186.432 61.116 185.957 61.084 185.424H62.588C62.6307 185.861 62.8334 186.219 63.196 186.496C63.5694 186.773 64.0547 186.912 64.652 186.912C65.2067 186.912 65.644 186.789 65.964 186.544C66.284 186.299 66.444 185.989 66.444 185.616C66.444 185.232 66.2734 184.949 65.932 184.768C65.5907 184.576 65.0627 184.389 64.348 184.208C63.6974 184.037 63.164 183.867 62.748 183.696C62.3427 183.515 61.9907 183.253 61.692 182.912C61.404 182.56 61.26 182.101 61.26 181.536C61.26 181.088 61.3934 180.677 61.66 180.304C61.9267 179.931 62.3054 179.637 62.796 179.424C63.2867 179.2 63.8467 179.088 64.476 179.088C65.4467 179.088 66.2307 179.333 66.828 179.824C67.4254 180.315 67.7454 180.987 67.788 181.84H66.332C66.3 181.381 66.1134 181.013 65.772 180.736C65.4414 180.459 64.9934 180.32 64.428 180.32C63.9054 180.32 63.4894 180.432 63.18 180.656C62.8707 180.88 62.716 181.173 62.716 181.536C62.716 181.824 62.8067 182.064 62.988 182.256C63.18 182.437 63.4147 182.587 63.692 182.704C63.98 182.811 64.3747 182.933 64.876 183.072C65.5054 183.243 66.0174 183.413 66.412 183.584C66.8067 183.744 67.1427 183.989 67.42 184.32C67.708 184.651 67.8574 185.083 67.868 185.616C67.868 186.096 67.7347 186.528 67.468 186.912C67.2014 187.296 66.8227 187.6 66.332 187.824C65.852 188.037 65.2974 188.144 64.668 188.144ZM77.6994 179.232V188H76.2434V186.704C75.9661 187.152 75.5767 187.504 75.0754 187.76C74.5847 188.005 74.0407 188.128 73.4434 188.128C72.7607 188.128 72.1474 187.989 71.6034 187.712C71.0594 187.424 70.6274 186.997 70.3074 186.432C69.9981 185.867 69.8434 185.179 69.8434 184.368V179.232H71.2834V184.176C71.2834 185.04 71.5021 185.707 71.9394 186.176C72.3767 186.635 72.9741 186.864 73.7314 186.864C74.5101 186.864 75.1234 186.624 75.5714 186.144C76.0194 185.664 76.2434 184.965 76.2434 184.048V179.232H77.6994ZM81.6138 176.16V188H80.1578V176.16H81.6138ZM85.8713 180.432V185.6C85.8713 186.027 85.9619 186.331 86.1433 186.512C86.3246 186.683 86.6393 186.768 87.0873 186.768H88.1593V188H86.8473C86.0366 188 85.4286 187.813 85.0233 187.44C84.6179 187.067 84.4153 186.453 84.4153 185.6V180.432H83.2793V179.232H84.4153V177.024H85.8713V179.232H88.1593V180.432H85.8713ZM90.6754 177.808C90.3981 177.808 90.1634 177.712 89.9714 177.52C89.7794 177.328 89.6834 177.093 89.6834 176.816C89.6834 176.539 89.7794 176.304 89.9714 176.112C90.1634 175.92 90.3981 175.824 90.6754 175.824C90.9421 175.824 91.1661 175.92 91.3474 176.112C91.5394 176.304 91.6354 176.539 91.6354 176.816C91.6354 177.093 91.5394 177.328 91.3474 177.52C91.1661 177.712 90.9421 177.808 90.6754 177.808ZM91.3794 179.232V188H89.9234V179.232H91.3794ZM98.1329 179.072C99.1996 179.072 100.064 179.397 100.725 180.048C101.386 180.688 101.717 181.616 101.717 182.832V188H100.277V183.04C100.277 182.165 100.058 181.499 99.6209 181.04C99.1836 180.571 98.5862 180.336 97.8289 180.336C97.0609 180.336 96.4476 180.576 95.9889 181.056C95.5409 181.536 95.3169 182.235 95.3169 183.152V188H93.8609V179.232H95.3169V180.48C95.6049 180.032 95.9942 179.685 96.4849 179.44C96.9862 179.195 97.5356 179.072 98.1329 179.072ZM107.711 179.088C108.469 179.088 109.13 179.253 109.695 179.584C110.271 179.915 110.698 180.331 110.975 180.832V179.232H112.447V188.192C112.447 188.992 112.277 189.701 111.935 190.32C111.594 190.949 111.103 191.44 110.463 191.792C109.834 192.144 109.098 192.32 108.255 192.32C107.103 192.32 106.143 192.048 105.375 191.504C104.607 190.96 104.154 190.219 104.015 189.28H105.455C105.615 189.813 105.946 190.24 106.447 190.56C106.949 190.891 107.551 191.056 108.255 191.056C109.055 191.056 109.706 190.805 110.207 190.304C110.719 189.803 110.975 189.099 110.975 188.192V186.352C110.687 186.864 110.261 187.291 109.695 187.632C109.13 187.973 108.469 188.144 107.711 188.144C106.933 188.144 106.223 187.952 105.583 187.568C104.954 187.184 104.458 186.645 104.095 185.952C103.733 185.259 103.551 184.469 103.551 183.584C103.551 182.688 103.733 181.904 104.095 181.232C104.458 180.549 104.954 180.021 105.583 179.648C106.223 179.275 106.933 179.088 107.711 179.088ZM110.975 183.6C110.975 182.939 110.842 182.363 110.575 181.872C110.309 181.381 109.946 181.008 109.487 180.752C109.039 180.485 108.543 180.352 107.999 180.352C107.455 180.352 106.959 180.48 106.511 180.736C106.063 180.992 105.706 181.365 105.439 181.856C105.173 182.347 105.039 182.923 105.039 183.584C105.039 184.256 105.173 184.843 105.439 185.344C105.706 185.835 106.063 186.213 106.511 186.48C106.959 186.736 107.455 186.864 107.999 186.864C108.543 186.864 109.039 186.736 109.487 186.48C109.946 186.213 110.309 185.835 110.575 185.344C110.842 184.843 110.975 184.261 110.975 183.6Z" fill="#F9F9F9"/>
<g clip-path="url(#clip6_525_7176)">
<g clip-path="url(#clip7_525_7176)">
<g clip-path="url(#clip8_525_7176)">
<path d="M71 271.5C81.7696 271.5 90.5 262.77 90.5 252C90.5 241.23 81.7696 232.5 71 232.5C60.2304 232.5 51.5 241.23 51.5 252C51.5 262.77 60.2304 271.5 71 271.5Z" stroke="#606060" stroke-dasharray="6 6"/>
<path d="M76.283 252.698H65.5849C63.8995 252.698 62.5283 251.327 62.5283 249.642C62.5283 247.956 63.8995 246.585 65.5849 246.585C65.9999 246.585 66.4042 246.669 66.7767 246.827C66.7465 246.623 66.7311 246.414 66.7311 246.203C66.7311 243.885 68.6166 242 70.934 242C73.2513 242 75.1368 243.885 75.1368 246.203C75.1368 246.414 75.1214 246.623 75.0912 246.827C75.4638 246.669 75.868 246.585 76.283 246.585C77.9684 246.585 79.3396 247.956 79.3396 249.642C79.3396 251.327 77.9684 252.698 76.283 252.698ZM72.8443 258.429H69.0236C68.8122 258.429 68.6415 258.6 68.6415 258.811V261.868C68.6415 262.079 68.8122 262.25 69.0236 262.25H72.8443C73.0557 262.25 73.2264 262.079 73.2264 261.868V258.811C73.2264 258.6 73.0557 258.429 72.8443 258.429ZM65.2028 254.991H61.3821C61.1707 254.991 61 255.161 61 255.373V258.429C61 258.641 61.1707 258.811 61.3821 258.811H65.2028C65.4142 258.811 65.5849 258.641 65.5849 258.429V255.373C65.5849 255.161 65.4142 254.991 65.2028 254.991ZM80.4858 254.991H76.6651C76.4537 254.991 76.283 255.161 76.283 255.373V258.429C76.283 258.641 76.4537 258.811 76.6651 258.811H80.4858C80.6972 258.811 80.8679 258.641 80.8679 258.429V255.373C80.8679 255.161 80.6972 254.991 80.4858 254.991ZM70.5519 253.844V256.901C70.5519 257.112 70.7226 257.283 70.934 257.283C71.1453 257.283 71.316 257.112 71.316 256.901V253.844C71.316 253.633 71.1453 253.462 70.934 253.462C70.7226 253.462 70.5519 253.633 70.5519 253.844ZM69.4057 256.901V253.844C69.4057 253.633 69.2349 253.462 69.0236 253.462C68.8122 253.462 68.6415 253.633 68.6415 253.844V256.519H67.1132C66.9019 256.519 66.7311 256.69 66.7311 256.901C66.7311 257.112 66.9019 257.283 67.1132 257.283H69.0236C69.2349 257.283 69.4057 257.112 69.4057 256.901ZM74.7547 256.519H73.2264V253.844C73.2264 253.633 73.0557 253.462 72.8443 253.462C72.633 253.462 72.4623 253.633 72.4623 253.844V256.901C72.4623 257.112 72.633 257.283 72.8443 257.283H74.7547C74.966 257.283 75.1368 257.112 75.1368 256.901C75.1368 256.69 74.966 256.519 74.7547 256.519Z" fill="#28AAF3"/>
</g>
</g>
</g>
<path d="M48.204 284.848C49.42 284.848 50.4707 285.077 51.356 285.536C52.252 285.984 52.9347 286.629 53.404 287.472C53.884 288.315 54.124 289.307 54.124 290.448C54.124 291.589 53.884 292.581 53.404 293.424C52.9347 294.256 52.252 294.896 51.356 295.344C50.4707 295.781 49.42 296 48.204 296H44.732V284.848H48.204ZM48.204 294.8C49.644 294.8 50.7427 294.421 51.5 293.664C52.2573 292.896 52.636 291.824 52.636 290.448C52.636 289.061 52.252 287.979 51.484 287.2C50.7267 286.421 49.6333 286.032 48.204 286.032H46.188V294.8H48.204ZM64.0445 291.28C64.0445 291.557 64.0285 291.851 63.9965 292.16H56.9885C57.0418 293.024 57.3352 293.701 57.8685 294.192C58.4125 294.672 59.0685 294.912 59.8365 294.912C60.4658 294.912 60.9885 294.768 61.4045 294.48C61.8312 294.181 62.1298 293.787 62.3005 293.296H63.8685C63.6338 294.139 63.1645 294.827 62.4605 295.36C61.7565 295.883 60.8818 296.144 59.8365 296.144C59.0045 296.144 58.2578 295.957 57.5965 295.584C56.9458 295.211 56.4338 294.683 56.0605 294C55.6872 293.307 55.5005 292.507 55.5005 291.6C55.5005 290.693 55.6818 289.899 56.0445 289.216C56.4072 288.533 56.9138 288.011 57.5645 287.648C58.2258 287.275 58.9832 287.088 59.8365 287.088C60.6685 287.088 61.4045 287.269 62.0445 287.632C62.6845 287.995 63.1752 288.496 63.5165 289.136C63.8685 289.765 64.0445 290.48 64.0445 291.28ZM62.5405 290.976C62.5405 290.421 62.4178 289.947 62.1725 289.552C61.9272 289.147 61.5912 288.843 61.1645 288.64C60.7485 288.427 60.2845 288.32 59.7725 288.32C59.0365 288.32 58.4072 288.555 57.8845 289.024C57.3725 289.493 57.0792 290.144 57.0045 290.976H62.5405ZM69.0704 296.144C68.3984 296.144 67.7957 296.032 67.2624 295.808C66.729 295.573 66.3077 295.253 65.9984 294.848C65.689 294.432 65.5184 293.957 65.4864 293.424H66.9904C67.033 293.861 67.2357 294.219 67.5984 294.496C67.9717 294.773 68.457 294.912 69.0544 294.912C69.609 294.912 70.0464 294.789 70.3664 294.544C70.6864 294.299 70.8464 293.989 70.8464 293.616C70.8464 293.232 70.6757 292.949 70.3344 292.768C69.993 292.576 69.465 292.389 68.7504 292.208C68.0997 292.037 67.5664 291.867 67.1504 291.696C66.745 291.515 66.393 291.253 66.0944 290.912C65.8064 290.56 65.6624 290.101 65.6624 289.536C65.6624 289.088 65.7957 288.677 66.0624 288.304C66.329 287.931 66.7077 287.637 67.1984 287.424C67.689 287.2 68.249 287.088 68.8784 287.088C69.849 287.088 70.633 287.333 71.2304 287.824C71.8277 288.315 72.1477 288.987 72.1904 289.84H70.7344C70.7024 289.381 70.5157 289.013 70.1744 288.736C69.8437 288.459 69.3957 288.32 68.8304 288.32C68.3077 288.32 67.8917 288.432 67.5824 288.656C67.273 288.88 67.1184 289.173 67.1184 289.536C67.1184 289.824 67.209 290.064 67.3904 290.256C67.5824 290.437 67.817 290.587 68.0944 290.704C68.3824 290.811 68.777 290.933 69.2784 291.072C69.9077 291.243 70.4197 291.413 70.8144 291.584C71.209 291.744 71.545 291.989 71.8224 292.32C72.1104 292.651 72.2597 293.083 72.2704 293.616C72.2704 294.096 72.137 294.528 71.8704 294.912C71.6037 295.296 71.225 295.6 70.7344 295.824C70.2544 296.037 69.6997 296.144 69.0704 296.144ZM75.0778 285.808C74.8004 285.808 74.5658 285.712 74.3738 285.52C74.1818 285.328 74.0858 285.093 74.0858 284.816C74.0858 284.539 74.1818 284.304 74.3738 284.112C74.5658 283.92 74.8004 283.824 75.0778 283.824C75.3444 283.824 75.5684 283.92 75.7498 284.112C75.9418 284.304 76.0378 284.539 76.0378 284.816C76.0378 285.093 75.9418 285.328 75.7498 285.52C75.5684 285.712 75.3444 285.808 75.0778 285.808ZM75.7818 287.232V296H74.3258V287.232H75.7818ZM81.8793 287.088C82.6366 287.088 83.2979 287.253 83.8633 287.584C84.4393 287.915 84.8659 288.331 85.1433 288.832V287.232H86.6153V296.192C86.6153 296.992 86.4446 297.701 86.1033 298.32C85.7619 298.949 85.2713 299.44 84.6313 299.792C84.0019 300.144 83.2659 300.32 82.4233 300.32C81.2713 300.32 80.3113 300.048 79.5433 299.504C78.7753 298.96 78.3219 298.219 78.1833 297.28H79.6233C79.7833 297.813 80.1139 298.24 80.6153 298.56C81.1166 298.891 81.7193 299.056 82.4233 299.056C83.2233 299.056 83.8739 298.805 84.3753 298.304C84.8873 297.803 85.1433 297.099 85.1433 296.192V294.352C84.8553 294.864 84.4286 295.291 83.8633 295.632C83.2979 295.973 82.6366 296.144 81.8793 296.144C81.1006 296.144 80.3913 295.952 79.7513 295.568C79.1219 295.184 78.6259 294.645 78.2633 293.952C77.9006 293.259 77.7193 292.469 77.7193 291.584C77.7193 290.688 77.9006 289.904 78.2633 289.232C78.6259 288.549 79.1219 288.021 79.7513 287.648C80.3913 287.275 81.1006 287.088 81.8793 287.088ZM85.1433 291.6C85.1433 290.939 85.0099 290.363 84.7433 289.872C84.4766 289.381 84.1139 289.008 83.6553 288.752C83.2073 288.485 82.7113 288.352 82.1673 288.352C81.6233 288.352 81.1273 288.48 80.6793 288.736C80.2313 288.992 79.8739 289.365 79.6073 289.856C79.3406 290.347 79.2073 290.923 79.2073 291.584C79.2073 292.256 79.3406 292.843 79.6073 293.344C79.8739 293.835 80.2313 294.213 80.6793 294.48C81.1273 294.736 81.6233 294.864 82.1673 294.864C82.7113 294.864 83.2073 294.736 83.6553 294.48C84.1139 294.213 84.4766 293.835 84.7433 293.344C85.0099 292.843 85.1433 292.261 85.1433 291.6ZM93.3478 287.072C94.4144 287.072 95.2784 287.397 95.9398 288.048C96.6011 288.688 96.9318 289.616 96.9318 290.832V296H95.4918V291.04C95.4918 290.165 95.2731 289.499 94.8358 289.04C94.3984 288.571 93.8011 288.336 93.0438 288.336C92.2758 288.336 91.6624 288.576 91.2038 289.056C90.7558 289.536 90.5318 290.235 90.5318 291.152V296H89.0758V287.232H90.5318V288.48C90.8198 288.032 91.2091 287.685 91.6998 287.44C92.2011 287.195 92.7504 287.072 93.3478 287.072Z" fill="#F9F9F9"/>
<g clip-path="url(#clip9_525_7176)">
<g clip-path="url(#clip10_525_7176)">
<g clip-path="url(#clip11_525_7176)">
<path d="M82.2906 359.373C81.6117 358.171 80.1223 357.564 78.6769 357.87C78.6813 357.21 78.5424 355.459 77.0588 354.295C75.8222 353.324 74.1205 353.133 72.6608 353.784C72.1197 351.511 70.0375 349.902 67.7185 350.005C65.4475 350.106 63.5522 351.8 63.151 354.059C62.6636 354.064 61.334 354.188 60.4742 355.293C59.6417 356.364 59.5918 357.919 60.3255 359.158C59.7491 359.352 59.2915 359.8 59.1002 360.373C58.8477 361.129 59.1028 361.988 59.7349 362.509C59.7686 362.537 59.8108 362.552 59.8545 362.552H62.4076C62.4266 363.082 62.4983 363.611 62.6219 364.127C62.6348 364.18 62.6703 364.225 62.7194 364.25C62.7685 364.275 62.8259 364.277 62.8767 364.256L64.2295 363.693C64.7715 363.467 65.3961 363.724 65.6219 364.265C65.6766 364.397 65.7042 364.535 65.7042 364.674C65.7042 365.105 65.4468 365.491 65.0484 365.657L63.6954 366.221C63.6446 366.242 63.6056 366.284 63.5888 366.337C63.5719 366.389 63.579 366.446 63.6079 366.493C64.2592 367.544 65.1628 368.443 66.2208 369.092C66.2678 369.121 66.3249 369.128 66.3771 369.111C66.4295 369.094 66.4716 369.055 66.4926 369.004L67.0502 367.65C67.2742 367.107 67.8978 366.848 68.4403 367.071C68.7034 367.18 68.9085 367.384 69.018 367.646C69.1274 367.908 69.128 368.198 69.0198 368.46L68.462 369.814C68.4411 369.865 68.4435 369.922 68.4686 369.971C68.4937 370.02 68.539 370.056 68.5926 370.068C69.1918 370.209 69.8072 370.279 70.4222 370.279C71.0477 370.279 71.6729 370.206 72.2796 370.061C72.3331 370.048 72.3784 370.012 72.4033 369.963C72.4282 369.914 72.4303 369.857 72.4091 369.806L71.8453 368.455C71.7358 368.192 71.7352 367.903 71.8434 367.64C71.9516 367.377 72.156 367.172 72.4189 367.063C72.5494 367.009 72.6869 366.981 72.8277 366.981C73.2593 366.981 73.6453 367.238 73.8111 367.636L74.3745 368.988C74.3957 369.039 74.438 369.078 74.4904 369.094C74.5427 369.111 74.5998 369.104 74.6465 369.075C75.6988 368.424 76.5983 367.521 77.248 366.464C77.2769 366.417 77.2837 366.36 77.2666 366.308C77.2496 366.255 77.2104 366.213 77.1595 366.192L75.8048 365.635C75.5418 365.527 75.3368 365.323 75.2275 365.06C75.1182 364.798 75.1175 364.509 75.2258 364.246C75.3907 363.845 75.7775 363.587 76.2112 363.587C76.3507 363.587 76.4867 363.614 76.6158 363.667L77.9706 364.225C78.0214 364.246 78.079 364.243 78.1279 364.218C78.1769 364.193 78.2122 364.148 78.2248 364.094C78.3434 363.589 78.4125 363.071 78.4313 362.553H82.1265C82.1974 362.553 82.2623 362.513 82.2941 362.449C82.3784 362.283 83.0885 360.788 82.2906 359.373ZM70.4143 364.302C69.3901 364.302 68.5121 363.548 68.332 362.552H72.4968C72.3171 363.548 71.439 364.302 70.4143 364.302ZM82.0063 362.176H59.9238C59.4472 361.75 59.2594 361.081 59.4563 360.491C59.6328 359.962 60.0933 359.566 60.658 359.457C60.7202 359.445 60.7723 359.402 60.7962 359.344C60.8201 359.285 60.8127 359.218 60.7767 359.166C59.9896 358.029 59.987 356.531 60.7706 355.524C61.661 354.379 63.1347 354.427 63.3 354.437C63.3978 354.443 63.4826 354.372 63.4964 354.276C63.8072 352.114 65.5899 350.475 67.7351 350.38C69.9465 350.281 71.9282 351.877 72.3418 354.091C72.3526 354.149 72.3904 354.199 72.4437 354.225C72.4969 354.251 72.5595 354.251 72.6122 354.223C73.9883 353.517 75.6426 353.661 76.8267 354.591C78.4864 355.893 78.3005 358.006 78.2919 358.095C78.2858 358.157 78.3108 358.218 78.3586 358.258C78.4064 358.298 78.4709 358.311 78.5306 358.294C79.8862 357.904 81.3299 358.436 81.9633 359.558C82.5752 360.643 82.1572 361.823 82.0063 362.176Z" fill="#D2BE48"/>
<path d="M71.0039 379.5C81.7735 379.5 90.5039 370.77 90.5039 360C90.5039 349.23 81.7735 340.5 71.0039 340.5C60.2344 340.5 51.5039 349.23 51.5039 360C51.5039 370.77 60.2344 379.5 71.0039 379.5Z" stroke="#606060" stroke-dasharray="6 6"/>
</g>
</g>
</g>
<path d="M30.0399 392.848V394.032H25.1919V397.792H29.1279V398.976H25.1919V404H23.7359V392.848H30.0399ZM32.5504 393.808C32.2731 393.808 32.0384 393.712 31.8464 393.52C31.6544 393.328 31.5584 393.093 31.5584 392.816C31.5584 392.539 31.6544 392.304 31.8464 392.112C32.0384 391.92 32.2731 391.824 32.5504 391.824C32.8171 391.824 33.0411 391.92 33.2224 392.112C33.4144 392.304 33.5104 392.539 33.5104 392.816C33.5104 393.093 33.4144 393.328 33.2224 393.52C33.0411 393.712 32.8171 393.808 32.5504 393.808ZM33.2544 395.232V404H31.7984V395.232H33.2544ZM40.0079 395.072C41.0746 395.072 41.9386 395.397 42.5999 396.048C43.2612 396.688 43.5919 397.616 43.5919 398.832V404H42.1519V399.04C42.1519 398.165 41.9332 397.499 41.4959 397.04C41.0586 396.571 40.4612 396.336 39.7039 396.336C38.9359 396.336 38.3226 396.576 37.8639 397.056C37.4159 397.536 37.1919 398.235 37.1919 399.152V404H35.7359V395.232H37.1919V396.48C37.4799 396.032 37.8692 395.685 38.3599 395.44C38.8612 395.195 39.4106 395.072 40.0079 395.072ZM45.4263 399.584C45.4263 398.688 45.6076 397.904 45.9703 397.232C46.3329 396.549 46.8289 396.021 47.4583 395.648C48.0983 395.275 48.8076 395.088 49.5863 395.088C50.3543 395.088 51.0209 395.253 51.5863 395.584C52.1516 395.915 52.5729 396.331 52.8503 396.832V395.232H54.3223V404H52.8503V402.368C52.5623 402.88 52.1303 403.307 51.5543 403.648C50.9889 403.979 50.3276 404.144 49.5703 404.144C48.7916 404.144 48.0876 403.952 47.4583 403.568C46.8289 403.184 46.3329 402.645 45.9703 401.952C45.6076 401.259 45.4263 400.469 45.4263 399.584ZM52.8503 399.6C52.8503 398.939 52.7169 398.363 52.4503 397.872C52.1836 397.381 51.8209 397.008 51.3623 396.752C50.9143 396.485 50.4183 396.352 49.8743 396.352C49.3303 396.352 48.8343 396.48 48.3863 396.736C47.9383 396.992 47.5809 397.365 47.3143 397.856C47.0476 398.347 46.9143 398.923 46.9143 399.584C46.9143 400.256 47.0476 400.843 47.3143 401.344C47.5809 401.835 47.9383 402.213 48.3863 402.48C48.8343 402.736 49.3303 402.864 49.8743 402.864C50.4183 402.864 50.9143 402.736 51.3623 402.48C51.8209 402.213 52.1836 401.835 52.4503 401.344C52.7169 400.843 52.8503 400.261 52.8503 399.6ZM58.2388 392.16V404H56.7828V392.16H58.2388ZM70.0419 404.112C69.0072 404.112 68.0632 403.872 67.2099 403.392C66.3566 402.901 65.6792 402.224 65.1779 401.36C64.6872 400.485 64.4419 399.504 64.4419 398.416C64.4419 397.328 64.6872 396.352 65.1779 395.488C65.6792 394.613 66.3566 393.936 67.2099 393.456C68.0632 392.965 69.0072 392.72 70.0419 392.72C71.0872 392.72 72.0366 392.965 72.8899 393.456C73.7432 393.936 74.4152 394.608 74.9059 395.472C75.3966 396.336 75.6419 397.317 75.6419 398.416C75.6419 399.515 75.3966 400.496 74.9059 401.36C74.4152 402.224 73.7432 402.901 72.8899 403.392C72.0366 403.872 71.0872 404.112 70.0419 404.112ZM70.0419 402.848C70.8206 402.848 71.5192 402.667 72.1379 402.304C72.7672 401.941 73.2579 401.424 73.6099 400.752C73.9726 400.08 74.1539 399.301 74.1539 398.416C74.1539 397.52 73.9726 396.741 73.6099 396.08C73.2579 395.408 72.7726 394.891 72.1539 394.528C71.5352 394.165 70.8312 393.984 70.0419 393.984C69.2526 393.984 68.5486 394.165 67.9299 394.528C67.3112 394.891 66.8206 395.408 66.4579 396.08C66.1059 396.741 65.9299 397.52 65.9299 398.416C65.9299 399.301 66.1059 400.08 66.4579 400.752C66.8206 401.424 67.3112 401.941 67.9299 402.304C68.5592 402.667 69.2632 402.848 70.0419 402.848ZM85.34 395.232V404H83.884V402.704C83.6067 403.152 83.2174 403.504 82.716 403.76C82.2254 404.005 81.6814 404.128 81.084 404.128C80.4014 404.128 79.788 403.989 79.244 403.712C78.7 403.424 78.268 402.997 77.948 402.432C77.6387 401.867 77.484 401.179 77.484 400.368V395.232H78.924V400.176C78.924 401.04 79.1427 401.707 79.58 402.176C80.0174 402.635 80.6147 402.864 81.372 402.864C82.1507 402.864 82.764 402.624 83.212 402.144C83.66 401.664 83.884 400.965 83.884 400.048V395.232H85.34ZM89.5744 396.432V401.6C89.5744 402.027 89.6651 402.331 89.8464 402.512C90.0277 402.683 90.3424 402.768 90.7904 402.768H91.8624V404H90.5504C89.7397 404 89.1317 403.813 88.7264 403.44C88.3211 403.067 88.1184 402.453 88.1184 401.6V396.432H86.9824V395.232H88.1184V393.024H89.5744V395.232H91.8624V396.432H89.5744ZM95.0825 396.848C95.3705 396.347 95.7972 395.931 96.3625 395.6C96.9385 395.259 97.6052 395.088 98.3625 395.088C99.1412 395.088 99.8452 395.275 100.475 395.648C101.115 396.021 101.616 396.549 101.979 397.232C102.341 397.904 102.523 398.688 102.523 399.584C102.523 400.469 102.341 401.259 101.979 401.952C101.616 402.645 101.115 403.184 100.475 403.568C99.8452 403.952 99.1412 404.144 98.3625 404.144C97.6159 404.144 96.9545 403.979 96.3785 403.648C95.8132 403.307 95.3812 402.885 95.0825 402.384V408.16H93.6265V395.232H95.0825V396.848ZM101.035 399.584C101.035 398.923 100.901 398.347 100.635 397.856C100.368 397.365 100.005 396.992 99.5465 396.736C99.0985 396.48 98.6025 396.352 98.0585 396.352C97.5252 396.352 97.0292 396.485 96.5705 396.752C96.1225 397.008 95.7599 397.387 95.4825 397.888C95.2159 398.379 95.0825 398.949 95.0825 399.6C95.0825 400.261 95.2159 400.843 95.4825 401.344C95.7599 401.835 96.1225 402.213 96.5705 402.48C97.0292 402.736 97.5252 402.864 98.0585 402.864C98.6025 402.864 99.0985 402.736 99.5465 402.48C100.005 402.213 100.368 401.835 100.635 401.344C100.901 400.843 101.035 400.256 101.035 399.584ZM112.215 395.232V404H110.759V402.704C110.482 403.152 110.092 403.504 109.591 403.76C109.1 404.005 108.556 404.128 107.959 404.128C107.276 404.128 106.663 403.989 106.119 403.712C105.575 403.424 105.143 402.997 104.823 402.432C104.514 401.867 104.359 401.179 104.359 400.368V395.232H105.799V400.176C105.799 401.04 106.018 401.707 106.455 402.176C106.892 402.635 107.49 402.864 108.247 402.864C109.026 402.864 109.639 402.624 110.087 402.144C110.535 401.664 110.759 400.965 110.759 400.048V395.232H112.215ZM116.449 396.432V401.6C116.449 402.027 116.54 402.331 116.721 402.512C116.903 402.683 117.217 402.768 117.665 402.768H118.737V404H117.425C116.615 404 116.007 403.813 115.601 403.44C115.196 403.067 114.993 402.453 114.993 401.6V396.432H113.857V395.232H114.993V393.024H116.449V395.232H118.737V396.432H116.449Z" fill="#F9F9F9"/>
</g>
<defs>
<filter id="filter0_d_525_7176" x="0" y="0" width="142" height="432" filterUnits="userSpaceOnUse" color-interpolation-filters="sRGB">
<feFlood flood-opacity="0" result="BackgroundImageFix"/>
<feColorMatrix in="SourceAlpha" type="matrix" values="0 0 0 0 0 0 0 0 0 0 0 0 0 0 0 0 0 0 127 0" result="hardAlpha"/>
<feOffset/>
<feGaussianBlur stdDeviation="3"/>
<feComposite in2="hardAlpha" operator="out"/>
<feColorMatrix type="matrix" values="0 0 0 0 0.529412 0 0 0 0 0.517647 0 0 0 0 0.517647 0 0 0 0.3 0"/>
<feBlend mode="normal" in2="BackgroundImageFix" result="effect1_dropShadow_525_7176"/>
<feBlend mode="normal" in="SourceGraphic" in2="effect1_dropShadow_525_7176" result="shape"/>
</filter>
<clipPath id="clip0_525_7176">
<rect width="40" height="40" fill="white" transform="translate(51.0039 16)"/>
</clipPath>
<clipPath id="clip1_525_7176">
<rect width="40" height="40" fill="white" transform="translate(51.0039 16)"/>
</clipPath>
<clipPath id="clip2_525_7176">
<rect width="40" height="40" fill="white" transform="translate(51.0039 16)"/>
</clipPath>
<clipPath id="clip3_525_7176">
<rect width="40" height="40" fill="white" transform="translate(51.0039 124)"/>
</clipPath>
<clipPath id="clip4_525_7176">
<rect width="40" height="40" fill="white" transform="translate(51.0039 124)"/>
</clipPath>
<clipPath id="clip5_525_7176">
<rect width="40" height="40" fill="white" transform="translate(51.0039 124)"/>
</clipPath>
<clipPath id="clip6_525_7176">
<rect width="40" height="40" fill="white" transform="translate(51 232)"/>
</clipPath>
<clipPath id="clip7_525_7176">
<rect width="40" height="40" fill="white" transform="translate(51 232)"/>
</clipPath>
<clipPath id="clip8_525_7176">
<rect width="40" height="40" fill="white" transform="translate(51 232)"/>
</clipPath>
<clipPath id="clip9_525_7176">
<rect width="40" height="40" fill="white" transform="translate(51.0039 340)"/>
</clipPath>
<clipPath id="clip10_525_7176">
<rect width="40" height="40" fill="white" transform="translate(51.0039 340)"/>
</clipPath>
<clipPath id="clip11_525_7176">
<rect width="40" height="40" fill="white" transform="translate(51.0039 340)"/>
</clipPath>
</defs>
</svg>
