<svg width="154" height="444" viewBox="0 0 154 444" fill="none" xmlns="http://www.w3.org/2000/svg">
<g filter="url(#filter0_d_525_7309)">
<rect x="8" y="12" width="130" height="420" rx="20" fill="black" shape-rendering="crispEdges"/>
<g clip-path="url(#clip0_525_7309)">
<g clip-path="url(#clip1_525_7309)">
<g clip-path="url(#clip2_525_7309)">
<path d="M72.9961 72.5C83.7656 72.5 92.4961 63.7696 92.4961 53C92.4961 42.2304 83.7656 33.5 72.9961 33.5C62.2265 33.5 53.4961 42.2304 53.4961 53C53.4961 63.7696 62.2265 72.5 72.9961 72.5Z" stroke="#606060" stroke-dasharray="6 6"/>
<path d="M62.9158 48.4196H77.172C77.4954 48.3105 77.8312 48.2451 78.1712 48.2245C78.2985 48.2245 78.4162 48.2095 78.5484 48.2095C79.2896 48.2032 80.0189 48.4011 80.6594 48.7824C80.9756 48.9621 81.265 49.187 81.519 49.4501V44.9474C81.5159 44.4875 81.3355 44.0471 81.017 43.7218C80.6985 43.3964 80.2673 43.2123 79.817 43.209H62.6981C62.2461 43.2123 61.8135 43.398 61.4947 43.7253C61.1758 44.0528 60.9966 44.4957 60.9961 44.9576V60.4668C61.0017 60.9252 61.1833 61.363 61.5016 61.6862C61.8197 62.0093 62.2494 62.1922 62.6981 62.1953H70.3024V61.9877C70.3026 61.3614 70.4907 60.7504 70.8412 60.2367H62.9163L62.9158 48.4196ZM68.8155 44.9399C69.0439 44.9401 69.263 45.0329 69.4243 45.198C69.5856 45.3632 69.6758 45.5873 69.6751 45.8206C69.6744 46.0539 69.583 46.2773 69.4207 46.4416C69.2586 46.6058 69.0391 46.6974 68.8107 46.696C68.5823 46.6948 68.3638 46.6006 68.2034 46.4345C68.043 46.2683 67.9539 46.0438 67.956 45.8105C67.9579 45.5789 68.0493 45.3575 68.2102 45.1945C68.3713 45.0315 68.5888 44.9399 68.8155 44.9399ZM66.2635 44.9399C66.4919 44.9401 66.7109 45.0329 66.8722 45.198C67.0335 45.3632 67.1239 45.5873 67.1232 45.8206C67.1225 46.0539 67.0309 46.2773 66.8688 46.4416C66.7065 46.6058 66.487 46.6974 66.2586 46.696C66.0302 46.6948 65.8117 46.6006 65.6514 46.4345C65.491 46.2683 65.402 46.0438 65.4039 45.8105C65.406 45.5789 65.4974 45.3575 65.6583 45.1945C65.8194 45.0315 66.0368 44.9399 66.2635 44.9399ZM63.7116 44.9399C63.94 44.9401 64.159 45.0329 64.3203 45.198C64.4816 45.3632 64.5719 45.5873 64.5713 45.8206C64.5706 46.0539 64.479 46.2773 64.3169 46.4416C64.1546 46.6058 63.9351 46.6974 63.7067 46.696C63.4783 46.6948 63.2598 46.6006 63.0995 46.4345C62.9391 46.2683 62.8501 46.0438 62.852 45.8105C62.854 45.5789 62.9454 45.3575 63.1064 45.1945C63.2675 45.0315 63.4849 44.9399 63.7116 44.9399ZM73.9216 51.9245C73.802 52.4233 73.7712 52.9402 73.831 53.4504C73.4244 54.3185 73.6891 55.2791 73.7869 55.6266C73.9072 56.1412 74.1269 56.6259 74.4334 57.0524C74.4725 57.1775 74.5191 57.3026 74.5705 57.4227C74.1739 57.6504 73.6865 57.9454 73.1574 58.2983H64.8088V50.3534H74.6391C74.3002 50.8231 74.0562 51.3572 73.9216 51.9245ZM84.9961 61.9854V63.1212C84.9956 63.3299 84.9141 63.5298 84.7696 63.6776C84.6249 63.8252 84.4291 63.9085 84.2248 63.909H72.7287C72.5243 63.9085 72.3284 63.8252 72.1839 63.6776C72.0394 63.5298 71.9579 63.3298 71.9574 63.1212V61.9854C71.956 61.5739 72.1359 61.1836 72.4471 60.9222C73.6207 59.9571 74.8926 59.1235 76.2406 58.4357C76.2586 58.427 76.27 58.4085 76.27 58.3883V57.1375C76.0952 56.8316 75.9736 56.4975 75.9101 56.1494C75.7165 56.0869 75.5428 55.7692 75.381 55.1788C75.2317 54.6411 75.2291 54.2909 75.381 54.1108C75.4425 54.0372 75.5311 53.9927 75.626 53.9881C75.5933 53.8815 75.567 53.7728 75.5475 53.6629C75.4495 53.23 75.4495 52.7799 75.5475 52.3471C75.6722 51.8325 75.9343 51.3631 76.3043 50.9912C76.5112 50.7663 76.7449 50.5688 76.9998 50.4034C77.1988 50.2512 77.4171 50.1275 77.6488 50.0357C77.8495 49.9654 78.059 49.9241 78.271 49.9131H78.5354C78.9878 49.9075 79.4331 50.0277 79.8237 50.2608C80.1225 50.4261 80.3753 50.6662 80.5584 50.9588C80.7899 50.9986 80.9987 51.1253 81.1437 51.3141C81.5013 51.7792 81.5944 52.5648 81.4181 53.6505C81.3984 53.7606 81.3723 53.869 81.3397 53.9756C81.4343 53.9801 81.523 54.0244 81.5845 54.0982C81.7314 54.2783 81.729 54.6261 81.5845 55.1663C81.4203 55.7541 81.2466 56.0743 81.0554 56.1368C80.9916 56.4809 80.8699 56.8111 80.6954 57.1124V58.3857C80.6954 58.4061 80.7069 58.4246 80.7248 58.4333C82.0687 59.1226 83.3365 59.9569 84.5062 60.9222C84.8175 61.1836 84.9974 61.574 84.9961 61.9854Z" fill="#5C9DEE"/>
</g>
</g>
</g>
<path d="M44.5321 85.848V87.032H39.6841V90.792H43.6201V91.976H39.6841V97H38.2281V85.848H44.5321ZM47.7466 89.656C48.0026 89.1547 48.3653 88.7653 48.8346 88.488C49.3146 88.2107 49.8959 88.072 50.5786 88.072V89.576H50.1946C48.5626 89.576 47.7466 90.4613 47.7466 92.232V97H46.2906V88.232H47.7466V89.656ZM56.0833 97.144C55.262 97.144 54.5153 96.9573 53.8433 96.584C53.182 96.2107 52.6593 95.6827 52.2753 95C51.902 94.3067 51.7153 93.5067 51.7153 92.6C51.7153 91.704 51.9073 90.9147 52.2913 90.232C52.686 89.5387 53.2193 89.0107 53.8913 88.648C54.5633 88.2747 55.3153 88.088 56.1473 88.088C56.9793 88.088 57.7313 88.2747 58.4033 88.648C59.0753 89.0107 59.6033 89.5333 59.9873 90.216C60.382 90.8987 60.5793 91.6933 60.5793 92.6C60.5793 93.5067 60.3767 94.3067 59.9713 95C59.5767 95.6827 59.038 96.2107 58.3553 96.584C57.6727 96.9573 56.9153 97.144 56.0833 97.144ZM56.0833 95.864C56.606 95.864 57.0967 95.7413 57.5553 95.496C58.014 95.2507 58.382 94.8827 58.6593 94.392C58.9473 93.9013 59.0913 93.304 59.0913 92.6C59.0913 91.896 58.9527 91.2987 58.6753 90.808C58.398 90.3173 58.0353 89.9547 57.5873 89.72C57.1393 89.4747 56.654 89.352 56.1313 89.352C55.598 89.352 55.1073 89.4747 54.6593 89.72C54.222 89.9547 53.87 90.3173 53.6033 90.808C53.3367 91.2987 53.2033 91.896 53.2033 92.6C53.2033 93.3147 53.3313 93.9173 53.5873 94.408C53.854 94.8987 54.206 95.2667 54.6433 95.512C55.0807 95.7467 55.5607 95.864 56.0833 95.864ZM66.7657 88.072C67.8324 88.072 68.6964 88.3973 69.3577 89.048C70.0191 89.688 70.3497 90.616 70.3497 91.832V97H68.9097V92.04C68.9097 91.1653 68.6911 90.4987 68.2537 90.04C67.8164 89.5707 67.2191 89.336 66.4617 89.336C65.6937 89.336 65.0804 89.576 64.6217 90.056C64.1737 90.536 63.9497 91.2347 63.9497 92.152V97H62.4937V88.232H63.9497V89.48C64.2377 89.032 64.6271 88.6853 65.1177 88.44C65.6191 88.1947 66.1684 88.072 66.7657 88.072ZM74.5041 89.432V94.6C74.5041 95.0267 74.5948 95.3307 74.7761 95.512C74.9574 95.6827 75.2721 95.768 75.7201 95.768H76.7921V97H75.4801C74.6694 97 74.0614 96.8133 73.6561 96.44C73.2508 96.0667 73.0481 95.4533 73.0481 94.6V89.432H71.9121V88.232H73.0481V86.024H74.5041V88.232H76.7921V89.432H74.5041ZM86.5562 92.28C86.5562 92.5573 86.5402 92.8507 86.5082 93.16H79.5002C79.5536 94.024 79.8469 94.7013 80.3802 95.192C80.9242 95.672 81.5802 95.912 82.3482 95.912C82.9776 95.912 83.5002 95.768 83.9162 95.48C84.3429 95.1813 84.6416 94.7867 84.8122 94.296H86.3802C86.1456 95.1387 85.6762 95.8267 84.9722 96.36C84.2682 96.8827 83.3936 97.144 82.3482 97.144C81.5162 97.144 80.7696 96.9573 80.1082 96.584C79.4576 96.2107 78.9456 95.6827 78.5722 95C78.1989 94.3067 78.0122 93.5067 78.0122 92.6C78.0122 91.6933 78.1936 90.8987 78.5562 90.216C78.9189 89.5333 79.4256 89.0107 80.0762 88.648C80.7376 88.2747 81.4949 88.088 82.3482 88.088C83.1802 88.088 83.9162 88.2693 84.5562 88.632C85.1962 88.9947 85.6869 89.496 86.0282 90.136C86.3802 90.7653 86.5562 91.48 86.5562 92.28ZM85.0522 91.976C85.0522 91.4213 84.9296 90.9467 84.6842 90.552C84.4389 90.1467 84.1029 89.8427 83.6762 89.64C83.2602 89.4267 82.7962 89.32 82.2842 89.32C81.5482 89.32 80.9189 89.5547 80.3962 90.024C79.8842 90.4933 79.5909 91.144 79.5162 91.976H85.0522ZM92.7501 88.072C93.8168 88.072 94.6808 88.3973 95.3421 89.048C96.0034 89.688 96.3341 90.616 96.3341 91.832V97H94.8941V92.04C94.8941 91.1653 94.6754 90.4987 94.2381 90.04C93.8008 89.5707 93.2034 89.336 92.4461 89.336C91.6781 89.336 91.0648 89.576 90.6061 90.056C90.1581 90.536 89.9341 91.2347 89.9341 92.152V97H88.4781V88.232H89.9341V89.48C90.2221 89.032 90.6114 88.6853 91.1021 88.44C91.6034 88.1947 92.1528 88.072 92.7501 88.072ZM98.1685 92.584C98.1685 91.688 98.3498 90.904 98.7125 90.232C99.0751 89.5493 99.5711 89.0213 100.2 88.648C100.84 88.2747 101.555 88.088 102.344 88.088C103.027 88.088 103.662 88.248 104.248 88.568C104.835 88.8773 105.283 89.288 105.592 89.8V85.16H107.064V97H105.592V95.352C105.304 95.8747 104.878 96.3067 104.312 96.648C103.747 96.9787 103.086 97.144 102.328 97.144C101.55 97.144 100.84 96.952 100.2 96.568C99.5711 96.184 99.0751 95.6453 98.7125 94.952C98.3498 94.2587 98.1685 93.4693 98.1685 92.584ZM105.592 92.6C105.592 91.9387 105.459 91.3627 105.192 90.872C104.926 90.3813 104.563 90.008 104.104 89.752C103.656 89.4853 103.16 89.352 102.616 89.352C102.072 89.352 101.576 89.48 101.128 89.736C100.68 89.992 100.323 90.3653 100.056 90.856C99.7898 91.3467 99.6565 91.9227 99.6565 92.584C99.6565 93.256 99.7898 93.8427 100.056 94.344C100.323 94.8347 100.68 95.2133 101.128 95.48C101.576 95.736 102.072 95.864 102.616 95.864C103.16 95.864 103.656 95.736 104.104 95.48C104.563 95.2133 104.926 94.8347 105.192 94.344C105.459 93.8427 105.592 93.2613 105.592 92.6Z" fill="#F9F9F9"/>
<g clip-path="url(#clip3_525_7309)">
<g clip-path="url(#clip4_525_7309)">
<g clip-path="url(#clip5_525_7309)">
<path d="M73 190C83.7696 190 92.5 181.27 92.5 170.5C92.5 159.73 83.7696 151 73 151C62.2304 151 53.5 159.73 53.5 170.5C53.5 181.27 62.2304 190 73 190Z" stroke="#606060" stroke-dasharray="6 6"/>
<path d="M72.9396 159.43C70.1532 159.43 67.8828 161.7 67.8828 164.486C67.8828 167.273 70.1533 169.543 72.9396 169.543C75.726 169.543 77.9964 167.273 77.9964 164.486C77.9962 161.7 75.726 159.43 72.9396 159.43Z" fill="#76D079"/>
<path d="M77.607 171.35H68.2674C65.8681 171.35 63.8555 173.285 63.8555 175.762V179.838H68.6285C68.4478 179.348 68.319 178.806 68.319 178.264C68.319 175.813 70.383 173.801 72.9114 173.801C75.4397 173.801 77.5037 175.787 77.5037 178.264C77.5037 178.832 77.4006 179.348 77.1942 179.838H81.9672L81.967 175.762C82.0186 173.285 80.0838 171.35 77.607 171.35Z" fill="#76D079"/>
<path d="M72.937 174.6C70.9246 174.6 69.2734 176.225 69.2734 178.263C69.2734 180.276 70.8989 181.927 72.937 181.927C74.9751 181.927 76.6006 180.301 76.6006 178.263C76.6006 176.251 74.9494 174.6 72.937 174.6ZM71.5696 179.244L70.3054 178.212L71.5954 177.283L71.9049 177.696L71.1825 178.238L71.9306 178.831L71.5696 179.244ZM72.6789 179.915L72.1887 179.734L73.2724 176.612L73.7626 176.793L72.6789 179.915ZM74.3043 179.244L73.9689 178.831L74.717 178.237L73.9946 177.696L74.3041 177.283L75.5941 178.212L74.3043 179.244Z" fill="#76D079"/>
</g>
</g>
</g>
<path d="M44.816 208.756C45.2213 208.82 45.5893 208.985 45.92 209.252C46.2613 209.519 46.528 209.849 46.72 210.244C46.9227 210.639 47.024 211.06 47.024 211.508C47.024 212.073 46.88 212.585 46.592 213.044C46.304 213.492 45.8827 213.849 45.328 214.116C44.784 214.372 44.1387 214.5 43.392 214.5H39.232V203.348H43.232C43.9893 203.348 44.6347 203.476 45.168 203.732C45.7013 203.977 46.1013 204.313 46.368 204.74C46.6347 205.167 46.768 205.647 46.768 206.18C46.768 206.841 46.5867 207.391 46.224 207.828C45.872 208.255 45.4027 208.564 44.816 208.756ZM40.688 208.164H43.136C43.8187 208.164 44.3467 208.004 44.72 207.684C45.0933 207.364 45.28 206.921 45.28 206.356C45.28 205.791 45.0933 205.348 44.72 205.028C44.3467 204.708 43.808 204.548 43.104 204.548H40.688V208.164ZM43.264 213.3C43.9893 213.3 44.5547 213.129 44.96 212.788C45.3653 212.447 45.568 211.972 45.568 211.364C45.568 210.745 45.3547 210.26 44.928 209.908C44.5013 209.545 43.9307 209.364 43.216 209.364H40.688V213.3H43.264ZM48.5005 210.084C48.5005 209.188 48.6818 208.404 49.0445 207.732C49.4072 207.049 49.9032 206.521 50.5325 206.148C51.1725 205.775 51.8818 205.588 52.6605 205.588C53.4285 205.588 54.0952 205.753 54.6605 206.084C55.2258 206.415 55.6472 206.831 55.9245 207.332V205.732H57.3965V214.5H55.9245V212.868C55.6365 213.38 55.2045 213.807 54.6285 214.148C54.0632 214.479 53.4018 214.644 52.6445 214.644C51.8658 214.644 51.1618 214.452 50.5325 214.068C49.9032 213.684 49.4072 213.145 49.0445 212.452C48.6818 211.759 48.5005 210.969 48.5005 210.084ZM55.9245 210.1C55.9245 209.439 55.7912 208.863 55.5245 208.372C55.2578 207.881 54.8952 207.508 54.4365 207.252C53.9885 206.985 53.4925 206.852 52.9485 206.852C52.4045 206.852 51.9085 206.98 51.4605 207.236C51.0125 207.492 50.6552 207.865 50.3885 208.356C50.1218 208.847 49.9885 209.423 49.9885 210.084C49.9885 210.756 50.1218 211.343 50.3885 211.844C50.6552 212.335 51.0125 212.713 51.4605 212.98C51.9085 213.236 52.4045 213.364 52.9485 213.364C53.4925 213.364 53.9885 213.236 54.4365 212.98C54.8952 212.713 55.2578 212.335 55.5245 211.844C55.7912 211.343 55.9245 210.761 55.9245 210.1ZM59.313 210.1C59.313 209.193 59.4943 208.404 59.857 207.732C60.2197 207.049 60.721 206.521 61.361 206.148C62.0117 205.775 62.753 205.588 63.585 205.588C64.6623 205.588 65.5477 205.849 66.241 206.372C66.945 206.895 67.409 207.62 67.633 208.548H66.065C65.9157 208.015 65.6223 207.593 65.185 207.284C64.7583 206.975 64.225 206.82 63.585 206.82C62.753 206.82 62.081 207.108 61.569 207.684C61.057 208.249 60.801 209.055 60.801 210.1C60.801 211.156 61.057 211.972 61.569 212.548C62.081 213.124 62.753 213.412 63.585 213.412C64.225 213.412 64.7583 213.263 65.185 212.964C65.6117 212.665 65.905 212.239 66.065 211.684H67.633C67.3983 212.58 66.929 213.3 66.225 213.844C65.521 214.377 64.641 214.644 63.585 214.644C62.753 214.644 62.0117 214.457 61.361 214.084C60.721 213.711 60.2197 213.183 59.857 212.5C59.4943 211.817 59.313 211.017 59.313 210.1ZM74.4718 214.5L71.0318 210.628V214.5H69.5758V202.66H71.0318V209.62L74.4078 205.732H76.4398L72.3118 210.1L76.4558 214.5H74.4718ZM85.8101 209.78C85.8101 210.057 85.7941 210.351 85.7621 210.66H78.7541C78.8075 211.524 79.1008 212.201 79.6341 212.692C80.1781 213.172 80.8341 213.412 81.6021 213.412C82.2315 213.412 82.7541 213.268 83.1701 212.98C83.5968 212.681 83.8955 212.287 84.0661 211.796H85.6341C85.3995 212.639 84.9301 213.327 84.2261 213.86C83.5221 214.383 82.6475 214.644 81.6021 214.644C80.7701 214.644 80.0235 214.457 79.3621 214.084C78.7115 213.711 78.1995 213.183 77.8261 212.5C77.4528 211.807 77.2661 211.007 77.2661 210.1C77.2661 209.193 77.4475 208.399 77.8101 207.716C78.1728 207.033 78.6795 206.511 79.3301 206.148C79.9915 205.775 80.7488 205.588 81.6021 205.588C82.4341 205.588 83.1701 205.769 83.8101 206.132C84.4501 206.495 84.9408 206.996 85.2821 207.636C85.6341 208.265 85.8101 208.98 85.8101 209.78ZM84.3061 209.476C84.3061 208.921 84.1835 208.447 83.9381 208.052C83.6928 207.647 83.3568 207.343 82.9301 207.14C82.5141 206.927 82.0501 206.82 81.5381 206.82C80.8021 206.82 80.1728 207.055 79.6501 207.524C79.1381 207.993 78.8448 208.644 78.7701 209.476H84.3061ZM92.004 205.572C93.0707 205.572 93.9347 205.897 94.596 206.548C95.2573 207.188 95.588 208.116 95.588 209.332V214.5H94.148V209.54C94.148 208.665 93.9293 207.999 93.492 207.54C93.0547 207.071 92.4573 206.836 91.7 206.836C90.932 206.836 90.3187 207.076 89.86 207.556C89.412 208.036 89.188 208.735 89.188 209.652V214.5H87.732V205.732H89.188V206.98C89.476 206.532 89.8653 206.185 90.356 205.94C90.8573 205.695 91.4067 205.572 92.004 205.572ZM97.4224 210.084C97.4224 209.188 97.6037 208.404 97.9664 207.732C98.329 207.049 98.825 206.521 99.4544 206.148C100.094 205.775 100.809 205.588 101.598 205.588C102.281 205.588 102.916 205.748 103.502 206.068C104.089 206.377 104.537 206.788 104.846 207.3V202.66H106.318V214.5H104.846V212.852C104.558 213.375 104.132 213.807 103.566 214.148C103.001 214.479 102.34 214.644 101.582 214.644C100.804 214.644 100.094 214.452 99.4544 214.068C98.825 213.684 98.329 213.145 97.9664 212.452C97.6037 211.759 97.4224 210.969 97.4224 210.084ZM104.846 210.1C104.846 209.439 104.713 208.863 104.446 208.372C104.18 207.881 103.817 207.508 103.358 207.252C102.91 206.985 102.414 206.852 101.87 206.852C101.326 206.852 100.83 206.98 100.382 207.236C99.9344 207.492 99.577 207.865 99.3104 208.356C99.0437 208.847 98.9104 209.423 98.9104 210.084C98.9104 210.756 99.0437 211.343 99.3104 211.844C99.577 212.335 99.9344 212.713 100.382 212.98C100.83 213.236 101.326 213.364 101.87 213.364C102.414 213.364 102.91 213.236 103.358 212.98C103.817 212.713 104.18 212.335 104.446 211.844C104.713 211.343 104.846 210.761 104.846 210.1Z" fill="#F9F9F9"/>
<g clip-path="url(#clip6_525_7309)">
<g clip-path="url(#clip7_525_7309)">
<g clip-path="url(#clip8_525_7309)">
<path d="M72.9961 289C83.7656 289 92.4961 280.27 92.4961 269.5C92.4961 258.73 83.7656 250 72.9961 250C62.2265 250 53.4961 258.73 53.4961 269.5C53.4961 280.27 62.2265 289 72.9961 289Z" stroke="#606060" stroke-dasharray="6 6"/>
<path d="M83.7233 273.851C84.0213 274.454 83.7798 275.188 83.184 275.489L74.0727 280.099C73.3935 280.443 72.5941 280.443 71.9149 280.099L62.8037 275.489C62.2079 275.188 61.9664 274.454 62.2644 273.851C62.5622 273.248 63.2868 273.004 63.8827 273.305L72.9936 277.915L82.1044 273.305C82.7004 273.004 83.4255 273.248 83.7233 273.851ZM83.7233 268.968C84.0213 269.571 83.7798 270.305 83.184 270.606L74.0727 275.216C73.3935 275.56 72.5941 275.56 71.9149 275.216L62.8037 270.606C62.2079 270.305 61.9664 269.571 62.2644 268.968C62.5622 268.365 63.2868 268.121 63.8827 268.422L72.9936 273.032L82.1044 268.422C82.7004 268.121 83.4255 268.365 83.7233 268.968ZM73.974 258.853L81.8607 262.4C82.4065 262.645 82.843 263.087 83.0855 263.64C83.6267 264.872 83.0783 266.315 81.8607 266.862L73.974 270.409C73.3501 270.69 72.638 270.69 72.0141 270.409L64.1274 266.862C63.5816 266.617 63.1451 266.175 62.9027 265.623C62.3615 264.391 62.9099 262.948 64.1274 262.4L72.0141 258.853C72.638 258.572 73.3501 258.572 73.974 258.853Z" fill="#41BFAD"/>
</g>
</g>
</g>
<path d="M45.0321 302.348V303.532H40.1841V307.292H44.1201V308.476H40.1841V313.5H38.7281V302.348H45.0321ZM54.5666 304.732V313.5H53.1106V312.204C52.8333 312.652 52.4439 313.004 51.9426 313.26C51.4519 313.505 50.9079 313.628 50.3106 313.628C49.6279 313.628 49.0146 313.489 48.4706 313.212C47.9266 312.924 47.4946 312.497 47.1746 311.932C46.8653 311.367 46.7106 310.679 46.7106 309.868V304.732H48.1506V309.676C48.1506 310.54 48.3693 311.207 48.8066 311.676C49.2439 312.135 49.8413 312.364 50.5986 312.364C51.3773 312.364 51.9906 312.124 52.4386 311.644C52.8866 311.164 53.1106 310.465 53.1106 309.548V304.732H54.5666ZM58.481 301.66V313.5H57.025V301.66H58.481ZM62.4185 301.66V313.5H60.9625V301.66H62.4185ZM68.436 313.612C67.7 313.612 67.0386 313.484 66.452 313.228C65.876 312.961 65.4226 312.599 65.092 312.14C64.7613 311.671 64.5906 311.132 64.58 310.524H66.132C66.1853 311.047 66.3986 311.489 66.772 311.852C67.156 312.204 67.7106 312.38 68.436 312.38C69.1293 312.38 69.6733 312.209 70.068 311.868C70.4733 311.516 70.676 311.068 70.676 310.524C70.676 310.097 70.5586 309.751 70.324 309.484C70.0893 309.217 69.796 309.015 69.444 308.876C69.092 308.737 68.6173 308.588 68.02 308.428C67.284 308.236 66.692 308.044 66.244 307.852C65.8066 307.66 65.428 307.361 65.108 306.956C64.7986 306.54 64.644 305.985 64.644 305.292C64.644 304.684 64.7986 304.145 65.108 303.676C65.4173 303.207 65.8493 302.844 66.404 302.588C66.9693 302.332 67.6146 302.204 68.34 302.204C69.3853 302.204 70.2386 302.465 70.9 302.988C71.572 303.511 71.9506 304.204 72.036 305.068H70.436C70.3826 304.641 70.1586 304.268 69.764 303.948C69.3693 303.617 68.8466 303.452 68.196 303.452C67.588 303.452 67.092 303.612 66.708 303.932C66.324 304.241 66.132 304.679 66.132 305.244C66.132 305.649 66.244 305.98 66.468 306.236C66.7026 306.492 66.9853 306.689 67.316 306.828C67.6573 306.956 68.132 307.105 68.74 307.276C69.476 307.479 70.068 307.681 70.516 307.884C70.964 308.076 71.348 308.38 71.668 308.796C71.988 309.201 72.148 309.756 72.148 310.46C72.148 311.004 72.004 311.516 71.716 311.996C71.428 312.476 71.0013 312.865 70.436 313.164C69.8706 313.463 69.204 313.612 68.436 313.612ZM76.0666 305.932V311.1C76.0666 311.527 76.1573 311.831 76.3386 312.012C76.5199 312.183 76.8346 312.268 77.2826 312.268H78.3546V313.5H77.0426C76.2319 313.5 75.6239 313.313 75.2186 312.94C74.8133 312.567 74.6106 311.953 74.6106 311.1V305.932H73.4746V304.732H74.6106V302.524H76.0666V304.732H78.3546V305.932H76.0666ZM79.5747 309.084C79.5747 308.188 79.7561 307.404 80.1187 306.732C80.4814 306.049 80.9774 305.521 81.6067 305.148C82.2467 304.775 82.9561 304.588 83.7347 304.588C84.5027 304.588 85.1694 304.753 85.7347 305.084C86.3001 305.415 86.7214 305.831 86.9987 306.332V304.732H88.4707V313.5H86.9987V311.868C86.7107 312.38 86.2787 312.807 85.7027 313.148C85.1374 313.479 84.4761 313.644 83.7187 313.644C82.9401 313.644 82.2361 313.452 81.6067 313.068C80.9774 312.684 80.4814 312.145 80.1187 311.452C79.7561 310.759 79.5747 309.969 79.5747 309.084ZM86.9987 309.1C86.9987 308.439 86.8654 307.863 86.5987 307.372C86.3321 306.881 85.9694 306.508 85.5107 306.252C85.0627 305.985 84.5667 305.852 84.0227 305.852C83.4787 305.852 82.9827 305.98 82.5347 306.236C82.0867 306.492 81.7294 306.865 81.4627 307.356C81.1961 307.847 81.0627 308.423 81.0627 309.084C81.0627 309.756 81.1961 310.343 81.4627 310.844C81.7294 311.335 82.0867 311.713 82.5347 311.98C82.9827 312.236 83.4787 312.364 84.0227 312.364C84.5667 312.364 85.0627 312.236 85.5107 311.98C85.9694 311.713 86.3321 311.335 86.5987 310.844C86.8654 310.343 86.9987 309.761 86.9987 309.1ZM90.3872 309.1C90.3872 308.193 90.5686 307.404 90.9312 306.732C91.2939 306.049 91.7952 305.521 92.4352 305.148C93.0859 304.775 93.8272 304.588 94.6592 304.588C95.7366 304.588 96.6219 304.849 97.3152 305.372C98.0192 305.895 98.4832 306.62 98.7072 307.548H97.1392C96.9899 307.015 96.6966 306.593 96.2592 306.284C95.8326 305.975 95.2992 305.82 94.6592 305.82C93.8272 305.82 93.1552 306.108 92.6432 306.684C92.1312 307.249 91.8752 308.055 91.8752 309.1C91.8752 310.156 92.1312 310.972 92.6432 311.548C93.1552 312.124 93.8272 312.412 94.6592 312.412C95.2992 312.412 95.8326 312.263 96.2592 311.964C96.6859 311.665 96.9792 311.239 97.1392 310.684H98.7072C98.4726 311.58 98.0032 312.3 97.2992 312.844C96.5952 313.377 95.7152 313.644 94.6592 313.644C93.8272 313.644 93.0859 313.457 92.4352 313.084C91.7952 312.711 91.2939 312.183 90.9312 311.5C90.5686 310.817 90.3872 310.017 90.3872 309.1ZM105.546 313.5L102.106 309.628V313.5H100.65V301.66H102.106V308.62L105.482 304.732H107.514L103.386 309.1L107.53 313.5H105.546Z" fill="#F9F9F9"/>
<g clip-path="url(#clip9_525_7309)">
<g clip-path="url(#clip10_525_7309)">
<g clip-path="url(#clip11_525_7309)">
<path d="M72.9961 388C83.7656 388 92.4961 379.27 92.4961 368.5C92.4961 357.73 83.7656 349 72.9961 349C62.2265 349 53.4961 357.73 53.4961 368.5C53.4961 379.27 62.2265 388 72.9961 388Z" stroke="#606060" stroke-dasharray="6 6"/>
<path d="M78.6383 361.287V359.317C78.6383 358.846 78.0689 358.61 77.7359 358.943L74.255 362.424C74.0486 362.63 74.0486 362.965 74.255 363.172L77.7359 366.652C78.0688 366.985 78.6383 366.75 78.6383 366.279V364.313C80.8408 364.34 82.6246 366.138 82.6246 368.347C82.6246 370.573 80.8142 372.384 78.5885 372.384C76.3628 372.384 74.5524 370.573 74.5524 368.347C74.5524 364.452 71.3838 361.284 67.4894 361.284C63.5946 361.284 60.4258 364.452 60.4258 368.347C60.4258 372.214 63.5502 375.361 67.4068 375.406V377.378C67.4068 377.849 67.976 378.085 68.3089 377.751L71.7898 374.27C71.9963 374.064 71.9963 373.729 71.7898 373.523L68.3089 370.042C67.976 369.709 67.4068 369.945 67.4068 370.416V372.379C65.2194 372.335 63.4533 370.545 63.4533 368.347C63.4533 366.121 65.2636 364.311 67.4894 364.311C69.7149 364.311 71.5255 366.121 71.5255 368.347C71.5255 372.242 74.6941 375.41 78.589 375.41C82.4835 375.41 85.6521 372.242 85.6521 368.347C85.6521 364.469 82.51 361.314 78.6383 361.287Z" fill="#4095C5"/>
</g>
</g>
</g>
<path d="M46.7001 401.348C47.9161 401.348 48.9668 401.577 49.8521 402.036C50.7481 402.484 51.4308 403.129 51.9001 403.972C52.3801 404.815 52.6201 405.807 52.6201 406.948C52.6201 408.089 52.3801 409.081 51.9001 409.924C51.4308 410.756 50.7481 411.396 49.8521 411.844C48.9668 412.281 47.9161 412.5 46.7001 412.5H43.2281V401.348H46.7001ZM46.7001 411.3C48.1401 411.3 49.2388 410.921 49.9961 410.164C50.7534 409.396 51.1321 408.324 51.1321 406.948C51.1321 405.561 50.7481 404.479 49.9801 403.7C49.2228 402.921 48.1294 402.532 46.7001 402.532H44.6841V411.3H46.7001ZM62.5406 407.78C62.5406 408.057 62.5246 408.351 62.4926 408.66H55.4846C55.5379 409.524 55.8313 410.201 56.3646 410.692C56.9086 411.172 57.5646 411.412 58.3326 411.412C58.9619 411.412 59.4846 411.268 59.9006 410.98C60.3273 410.681 60.6259 410.287 60.7966 409.796H62.3646C62.1299 410.639 61.6606 411.327 60.9566 411.86C60.2526 412.383 59.3779 412.644 58.3326 412.644C57.5006 412.644 56.7539 412.457 56.0926 412.084C55.4419 411.711 54.9299 411.183 54.5566 410.5C54.1833 409.807 53.9966 409.007 53.9966 408.1C53.9966 407.193 54.1779 406.399 54.5406 405.716C54.9033 405.033 55.4099 404.511 56.0606 404.148C56.7219 403.775 57.4793 403.588 58.3326 403.588C59.1646 403.588 59.9006 403.769 60.5406 404.132C61.1806 404.495 61.6713 404.996 62.0126 405.636C62.3646 406.265 62.5406 406.98 62.5406 407.78ZM61.0366 407.476C61.0366 406.921 60.9139 406.447 60.6686 406.052C60.4233 405.647 60.0873 405.343 59.6606 405.14C59.2446 404.927 58.7806 404.82 58.2686 404.82C57.5326 404.82 56.9033 405.055 56.3806 405.524C55.8686 405.993 55.5753 406.644 55.5006 407.476H61.0366ZM67.7265 411.156L70.4465 403.732H71.9985L68.5585 412.5H66.8625L63.4225 403.732H64.9905L67.7265 411.156ZM78.4872 412.612C77.4526 412.612 76.5086 412.372 75.6552 411.892C74.8019 411.401 74.1246 410.724 73.6232 409.86C73.1326 408.985 72.8872 408.004 72.8872 406.916C72.8872 405.828 73.1326 404.852 73.6232 403.988C74.1246 403.113 74.8019 402.436 75.6552 401.956C76.5086 401.465 77.4526 401.22 78.4872 401.22C79.5326 401.22 80.4819 401.465 81.3352 401.956C82.1886 402.436 82.8606 403.108 83.3512 403.972C83.8419 404.836 84.0872 405.817 84.0872 406.916C84.0872 408.015 83.8419 408.996 83.3512 409.86C82.8606 410.724 82.1886 411.401 81.3352 411.892C80.4819 412.372 79.5326 412.612 78.4872 412.612ZM78.4872 411.348C79.2659 411.348 79.9646 411.167 80.5832 410.804C81.2126 410.441 81.7032 409.924 82.0552 409.252C82.4179 408.58 82.5992 407.801 82.5992 406.916C82.5992 406.02 82.4179 405.241 82.0552 404.58C81.7032 403.908 81.2179 403.391 80.5992 403.028C79.9806 402.665 79.2766 402.484 78.4872 402.484C77.6979 402.484 76.9939 402.665 76.3752 403.028C75.7566 403.391 75.2659 403.908 74.9032 404.58C74.5512 405.241 74.3752 406.02 74.3752 406.916C74.3752 407.801 74.5512 408.58 74.9032 409.252C75.2659 409.924 75.7566 410.441 76.3752 410.804C77.0046 411.167 77.7086 411.348 78.4872 411.348ZM87.4653 405.348C87.7533 404.847 88.18 404.431 88.7453 404.1C89.3213 403.759 89.988 403.588 90.7453 403.588C91.524 403.588 92.228 403.775 92.8573 404.148C93.4973 404.521 93.9987 405.049 94.3613 405.732C94.724 406.404 94.9053 407.188 94.9053 408.084C94.9053 408.969 94.724 409.759 94.3613 410.452C93.9987 411.145 93.4973 411.684 92.8573 412.068C92.228 412.452 91.524 412.644 90.7453 412.644C89.9987 412.644 89.3373 412.479 88.7613 412.148C88.196 411.807 87.764 411.385 87.4653 410.884V416.66H86.0093V403.732H87.4653V405.348ZM93.4173 408.084C93.4173 407.423 93.284 406.847 93.0173 406.356C92.7507 405.865 92.388 405.492 91.9293 405.236C91.4813 404.98 90.9853 404.852 90.4413 404.852C89.908 404.852 89.412 404.985 88.9533 405.252C88.5053 405.508 88.1427 405.887 87.8653 406.388C87.5987 406.879 87.4653 407.449 87.4653 408.1C87.4653 408.761 87.5987 409.343 87.8653 409.844C88.1427 410.335 88.5053 410.713 88.9533 410.98C89.412 411.236 89.908 411.364 90.4413 411.364C90.9853 411.364 91.4813 411.236 91.9293 410.98C92.388 410.713 92.7507 410.335 93.0173 409.844C93.284 409.343 93.4173 408.756 93.4173 408.084ZM99.9258 412.644C99.2538 412.644 98.6512 412.532 98.1178 412.308C97.5845 412.073 97.1632 411.753 96.8538 411.348C96.5445 410.932 96.3738 410.457 96.3418 409.924H97.8458C97.8885 410.361 98.0912 410.719 98.4538 410.996C98.8272 411.273 99.3125 411.412 99.9098 411.412C100.465 411.412 100.902 411.289 101.222 411.044C101.542 410.799 101.702 410.489 101.702 410.116C101.702 409.732 101.531 409.449 101.19 409.268C100.849 409.076 100.321 408.889 99.6058 408.708C98.9552 408.537 98.4218 408.367 98.0058 408.196C97.6005 408.015 97.2485 407.753 96.9498 407.412C96.6618 407.06 96.5178 406.601 96.5178 406.036C96.5178 405.588 96.6512 405.177 96.9178 404.804C97.1845 404.431 97.5632 404.137 98.0538 403.924C98.5445 403.7 99.1045 403.588 99.7338 403.588C100.705 403.588 101.489 403.833 102.086 404.324C102.683 404.815 103.003 405.487 103.046 406.34H101.59C101.558 405.881 101.371 405.513 101.03 405.236C100.699 404.959 100.251 404.82 99.6858 404.82C99.1632 404.82 98.7472 404.932 98.4378 405.156C98.1285 405.38 97.9738 405.673 97.9738 406.036C97.9738 406.324 98.0645 406.564 98.2458 406.756C98.4378 406.937 98.6725 407.087 98.9498 407.204C99.2378 407.311 99.6325 407.433 100.134 407.572C100.763 407.743 101.275 407.913 101.67 408.084C102.065 408.244 102.401 408.489 102.678 408.82C102.966 409.151 103.115 409.583 103.126 410.116C103.126 410.596 102.993 411.028 102.726 411.412C102.459 411.796 102.081 412.1 101.59 412.324C101.11 412.537 100.555 412.644 99.9258 412.644Z" fill="#F9F9F9"/>
</g>
<defs>
<filter id="filter0_d_525_7309" x="0" y="0" width="154" height="444" filterUnits="userSpaceOnUse" color-interpolation-filters="sRGB">
<feFlood flood-opacity="0" result="BackgroundImageFix"/>
<feColorMatrix in="SourceAlpha" type="matrix" values="0 0 0 0 0 0 0 0 0 0 0 0 0 0 0 0 0 0 127 0" result="hardAlpha"/>
<feOffset dx="4"/>
<feGaussianBlur stdDeviation="6"/>
<feComposite in2="hardAlpha" operator="out"/>
<feColorMatrix type="matrix" values="0 0 0 0 0.529412 0 0 0 0 0.517647 0 0 0 0 0.517647 0 0 0 0.3 0"/>
<feBlend mode="normal" in2="BackgroundImageFix" result="effect1_dropShadow_525_7309"/>
<feBlend mode="normal" in="SourceGraphic" in2="effect1_dropShadow_525_7309" result="shape"/>
</filter>
<clipPath id="clip0_525_7309">
<rect width="40" height="40" fill="white" transform="translate(52.9961 33)"/>
</clipPath>
<clipPath id="clip1_525_7309">
<rect width="40" height="40" fill="white" transform="translate(52.9961 33)"/>
</clipPath>
<clipPath id="clip2_525_7309">
<rect width="40" height="40" fill="white" transform="translate(52.9961 33)"/>
</clipPath>
<clipPath id="clip3_525_7309">
<rect width="40" height="40" fill="white" transform="translate(53 150.5)"/>
</clipPath>
<clipPath id="clip4_525_7309">
<rect width="40" height="40" fill="white" transform="translate(53 150.5)"/>
</clipPath>
<clipPath id="clip5_525_7309">
<rect width="40" height="40" fill="white" transform="translate(53 150.5)"/>
</clipPath>
<clipPath id="clip6_525_7309">
<rect width="40" height="40" fill="white" transform="translate(52.9961 249.5)"/>
</clipPath>
<clipPath id="clip7_525_7309">
<rect width="40" height="40" fill="white" transform="translate(52.9961 249.5)"/>
</clipPath>
<clipPath id="clip8_525_7309">
<rect width="40" height="40" fill="white" transform="translate(52.9961 249.5)"/>
</clipPath>
<clipPath id="clip9_525_7309">
<rect width="40" height="40" fill="white" transform="translate(52.9961 348.5)"/>
</clipPath>
<clipPath id="clip10_525_7309">
<rect width="40" height="40" fill="white" transform="translate(52.9961 348.5)"/>
</clipPath>
<clipPath id="clip11_525_7309">
<rect width="40" height="40" fill="white" transform="translate(52.9961 348.5)"/>
</clipPath>
</defs>
</svg>
